<svg id="Capa_1" enable-background="new 0 0 512 512" height="512" viewBox="0 0 512 512" width="512" xmlns="http://www.w3.org/2000/svg"><g><path d="m512 256c0 77.99-34.87 147.83-89.88 194.78-32.1 27.4-71.06-3.17-113.93 5.72-5.83 1.2-11.73 2.21-17.7 3.01-11.28 1.53-22.79 2.31-34.49 2.31-10.91 0-21.65-.68-32.2-2-5.97-.75-11.87-1.71-17.7-2.86-43.78-8.65-83.55 21.71-116.22-6.18-55.01-46.95-89.88-116.79-89.88-194.78 0-141.38 114.62-256 256-256s256 114.62 256 256z" fill="#b1c95b"/><g><path d="m397.906 238.772c0 8.294-3.354 15.79-8.788 21.224s-12.931 8.788-21.224 8.788h-85.923v-60.024h85.923c16.577 0 30.012 13.435 30.012 30.012z" fill="#ffcfc2"/><path d="m367.89 223.42h-29.824v30.705h29.824c8.465 0 15.352-6.887 15.352-15.352.001-8.466-6.886-15.353-15.352-15.353z" fill="#f4baae"/><path d="m301.939 438.531h-91.687l9.256-66.256 1.659-11.886 1.668-11.904h66.522l3.354 23.983z" fill="#ffcfc2"/><g fill="#efac9c"><path d="m311.468 196.995c-1.919 0-3.839-.732-5.303-2.197-2.477-2.476-5.769-3.84-9.271-3.84s-6.795 1.364-9.271 3.84c-2.929 2.929-7.678 2.929-10.606 0-2.929-2.929-2.929-7.677 0-10.606 5.31-5.31 12.369-8.234 19.878-8.234s14.568 2.924 19.878 8.234c2.929 2.929 2.929 7.677 0 10.606-1.466 1.465-3.385 2.197-5.305 2.197z"/><path d="m231.971 196.995c-1.919 0-3.839-.732-5.303-2.197-2.477-2.476-5.769-3.84-9.271-3.84s-6.795 1.364-9.271 3.84c-2.929 2.929-7.678 2.929-10.606 0-2.929-2.929-2.929-7.677 0-10.606 5.31-5.31 12.369-8.234 19.878-8.234s14.568 2.924 19.878 8.234c2.929 2.929 2.929 7.677 0 10.606-1.466 1.465-3.385 2.197-5.305 2.197z"/></g><path d="m146.397 208.76h37.907v60.025h-37.907c-16.578 0-30.012-13.435-30.012-30.012 0-8.293 3.354-15.79 8.788-21.224 5.434-5.435 12.93-8.789 21.224-8.789z" fill="#f4baae"/><path d="m176.223 223.42h-29.823c-8.466 0-15.353 6.887-15.353 15.353 0 8.465 6.887 15.352 15.353 15.352h29.823z" fill="#efac9c"/><path d="m161.078 208.745 96.07 23.463.355-162.111c-70.511 2.955-115.163 53.539-124.585 65.251-1.231 1.531-1.772 3.495-1.516 5.443 4.859 36.929 29.676 67.954 29.676 67.954z" fill="#3d3842"/><path d="m233.766 134.981s2.829-35.592 28.341-71.785c1.396-1.981 3.889-2.885 6.223-2.234 13.896 3.878 62.879 20.613 112.694 74.37 1.445 1.559 2.108 3.698 1.824 5.805-4.968 36.776-29.629 67.608-29.629 67.608" fill="#656368"/><path d="m286.968 361.825h-59.64c-42.98 0-76.7-36.89-72.85-79.7l6.59-73.37s0 0 .01-.01c.549-.443 17.587-14.486 24.836-51.331.558-2.834 2.288-5.297 4.782-6.754 9.303-5.435 34.063-17.825 66.452-17.825 32.382 0 57.146 12.39 66.451 17.825 2.495 1.457 4.225 3.921 4.783 6.755 7.249 36.844 24.286 50.887 24.836 51.33.01.01.01.01.01.01l6.59 73.37c3.85 42.81-29.87 79.7-72.85 79.7z" fill="#ffcfc2"/><path d="m292.718 372.465c-1.9.15-3.82.23-5.75.23h-41.46l-4.12 65.83h-31.13l9.25-66.25 1.5-10.73c-39.92-3.4-70.19-38.73-66.53-79.42l6.59-73.37s0 0 .01-.01c.549-.443 17.587-14.486 24.836-51.331.558-2.834 2.285-5.295 4.778-6.753 5.483-3.204 16.341-8.829 30.966-12.907-9.73 11.24-16.12 25.51-17.55 41.34l-9.27 103.03c-3.85 42.81 29.87 79.7 72.86 79.7h19.27c1.43 0 2.84-.04 4.24-.13z" fill="#f4baae"/><circle cx="203.504" cy="226.678" fill="#aad6f2" r="41.961"/><circle cx="310.786" cy="226.678" fill="#aad6f2" r="41.961"/><path d="m422.12 450.78c-32.099 27.406-71.057 47.012-113.932 55.892-4.543.941-9.131-8.665-13.758-7.969-12.53 1.89-25.37-16.755-38.43-16.755-13.11 0-26 22.326-38.58 20.426-3.801-.574-7.575 5.503-11.319 4.764-43.777-8.65-83.555-28.473-116.22-56.358l.82-2.66c6.52-21.25 26.14-35.76 48.37-35.76h75.88l40.975 8.979 42.358-8.979h74.647c22.23 0 41.85 14.51 48.37 35.76z" fill="#6ea5ce"/><path d="m294.43 412.36v91.426c-1.31.198-2.623 5.729-3.94 5.907-11.277 1.521-22.795 2.307-34.49 2.307-10.902 0-21.653-.685-32.199-2.008-2.136-.268-4.263-7.298-6.381-7.618v-90.014z" fill="#efefef"/><g><path d="m223.8 408.63v101.37c-5.97-.75-11.87-1.71-17.7-2.86v-98.51z" fill="#ffe861"/><path d="m308.19 408.63v98.05c-5.83 1.2-11.73 2.21-17.7 3.01v-101.06z" fill="#ffcf64"/></g><path d="m219.99 412.36c-22.24 0-41.86 14.51-48.38 35.76l-13.7 44.41c-24.9-10.34-47.82-24.5-68.03-41.75l.82-2.66c6.52-21.25 26.14-35.76 48.37-35.76z" fill="#5c98bc"/><path d="m257.145 271.964c-6.953 0-12.589-5.636-12.589-12.589v-54.323c0-6.953 5.636-12.589 12.589-12.589 6.953 0 12.589 5.636 12.589 12.589v54.323c0 6.953-5.636 12.589-12.589 12.589z" fill="#f4baae"/><path d="m257.145 301.919c-11.098 0-21.533-4.322-29.381-12.17-2.611-2.611-2.611-6.844 0-9.455s6.844-2.611 9.455 0c5.322 5.322 12.399 8.254 19.926 8.254s14.603-2.931 19.926-8.254c2.611-2.611 6.844-2.611 9.455 0s2.611 6.844 0 9.455c-7.848 7.848-18.283 12.17-29.381 12.17z" fill="#fff"/><g><g><path d="m288.414 238.939c-3.339 0-6.478-1.301-8.839-3.662-2.361-2.36-3.661-5.5-3.661-8.838s1.3-6.478 3.662-8.839c6.253-6.254 14.569-9.698 23.413-9.698s17.16 3.444 23.414 9.698c2.361 2.361 3.661 5.5 3.661 8.839s-1.3 6.478-3.662 8.839c-2.36 2.361-5.499 3.661-8.838 3.661s-25.811 0-29.15 0z" fill="#95c2db"/></g><g><path d="m196.727 238.939c-3.339 0-6.478-1.301-8.839-3.662-2.361-2.36-3.661-5.5-3.661-8.838s1.3-6.478 3.662-8.839c6.253-6.254 14.569-9.698 23.413-9.698s17.16 3.444 23.414 9.698c2.361 2.361 3.661 5.5 3.661 8.839s-1.3 6.478-3.662 8.839c-2.36 2.361-5.499 3.661-8.838 3.661s-25.811 0-29.15 0z" fill="#95c2db"/></g></g><g><path d="m287.186 245.781c-3.339 0-6.478-1.301-8.839-3.662-2.361-2.36-3.661-5.5-3.661-8.838s1.3-6.478 3.662-8.839c6.253-6.254 14.569-9.698 23.413-9.698s17.16 3.444 23.414 9.698c2.361 2.361 3.661 5.5 3.661 8.839s-1.3 6.478-3.662 8.839c-2.36 2.361-5.499 3.661-8.838 3.661s-25.811 0-29.15 0z" fill="#fff"/></g><g><g><path d="m297.386 245.781h-10.2c-3.34 0-6.48-1.3-8.84-3.66s-3.66-5.5-3.66-8.84 1.3-6.48 3.66-8.84c5.13-5.13 11.66-8.38 18.72-9.37-3.81 3.92-6.15 9.28-6.15 15.19 0 6.07 2.47 11.56 6.47 15.52z" fill="#efefef"/></g></g><g><path d="m197.955 245.781c-3.339 0-6.478-1.301-8.839-3.662-2.361-2.36-3.661-5.5-3.661-8.838s1.3-6.478 3.662-8.839c6.253-6.254 14.569-9.698 23.413-9.698s17.16 3.444 23.414 9.698c2.361 2.361 3.661 5.5 3.661 8.839s-1.3 6.478-3.662 8.839c-2.36 2.361-5.499 3.661-8.838 3.661s-25.812 0-29.15 0z" fill="#fff"/></g><g><g><circle cx="217.396" cy="232.771" fill="#6ea5ce" r="11.001"/><path d="m221.583 222.59c-1.292-.528-2.7-.822-4.185-.822-6.072 0-11.003 4.923-11.003 11.003 0 6.072 4.931 10.995 11.003 10.995 1.484 0 2.893-.294 4.185-.822-4-1.644-6.818-5.577-6.818-10.173s2.818-8.538 6.818-10.181z" fill="#5c98bc"/></g><g><circle cx="296.894" cy="232.771" fill="#6ea5ce" r="11.001"/><path d="m301.08 222.59c-1.292-.528-2.7-.822-4.185-.822-6.072 0-11.003 4.923-11.003 11.003 0 6.072 4.931 10.995 11.003 10.995 1.484 0 2.893-.294 4.185-.822-4-1.644-6.818-5.577-6.818-10.173s2.818-8.537 6.818-10.181z" fill="#5c98bc"/></g></g><g><g><path d="m208.155 245.781h-10.2c-3.34 0-6.48-1.3-8.84-3.66s-3.66-5.5-3.66-8.84 1.3-6.48 3.66-8.84c5.13-5.13 11.66-8.38 18.72-9.37-3.81 3.92-6.15 9.28-6.15 15.19 0 6.07 2.47 11.56 6.47 15.52z" fill="#efefef"/></g></g><path d="m310.786 179.717c-21.052 0-38.912 13.925-44.856 33.048-2.555-1.592-5.56-2.528-8.786-2.528s-6.23.936-8.785 2.528c-5.943-19.123-23.804-33.048-44.856-33.048-25.895 0-46.961 21.066-46.961 46.96s21.066 46.96 46.961 46.96c25.813 0 46.823-20.937 46.954-46.72h.006c0-3.684 2.997-6.681 6.681-6.681 3.685 0 6.682 2.997 6.682 6.681h.006c.131 25.783 21.141 46.72 46.954 46.72 25.895 0 46.961-21.066 46.961-46.96s-21.066-46.96-46.961-46.96zm-107.282 83.921c-20.38 0-36.961-16.581-36.961-36.96s16.581-36.96 36.961-36.96 36.96 16.581 36.96 36.96-16.58 36.96-36.96 36.96zm107.282 0c-20.38 0-36.96-16.581-36.96-36.96s16.58-36.96 36.96-36.96 36.961 16.581 36.961 36.96-16.581 36.96-36.961 36.96z" fill="#a55249"/><g fill="#ffe861"><path d="m172.413 361.826h45.01c8.216 0 14.876 6.66 14.876 14.876v29.76c0 8.216-6.66 14.876-14.876 14.876h-45.01c-8.216 0-14.876-6.66-14.876-14.876v-29.76c0-8.216 6.66-14.876 14.876-14.876z"/><path d="m294.577 361.826h45.01c8.216 0 14.876 6.66 14.876 14.876v29.76c0 8.216-6.66 14.876-14.876 14.876h-45.01c-8.216 0-14.876-6.66-14.876-14.876v-29.76c0-8.216 6.66-14.876 14.876-14.876z"/></g><g fill="#ffcf64"><path d="m196.111 421.332h-23.7c-8.21 0-14.87-6.66-14.87-14.87v-29.76c0-8.22 6.66-14.88 14.87-14.88h23.7c-8.21 0-14.87 6.66-14.87 14.88v29.76c0 8.21 6.66 14.87 14.87 14.87z"/><path d="m318.281 421.332h-23.7c-8.22 0-14.88-6.66-14.88-14.87v-29.76c0-8.22 6.66-14.88 14.88-14.88h23.7c-8.22 0-14.88 6.66-14.88 14.88v29.76c0 8.21 6.66 14.87 14.88 14.87z"/></g></g></g></svg>