<svg clip-rule="evenodd" fill-rule="evenodd" height="11.111in" image-rendering="optimizeQuality" shape-rendering="geometricPrecision" text-rendering="geometricPrecision" viewBox="0 0 11111 11111" width="11.111in" xmlns="http://www.w3.org/2000/svg"><g id="Layer_x0020_1"><circle cx="5556" cy="5556" fill="#adbd64" r="5556"/><path d="m8648 9111h-6185c-56 0-96-55-79-108 16-53 409-1299 728-1635 323-341 1510-588 1560-598 45-10 90 19 99 64 9 46-20 90-65 99-329 67-1235 298-1473 550-241 254-552 1149-655 1461h5955c-103-312-413-1207-654-1461-239-252-1145-483-1474-550-45-9-74-53-65-99 10-45 54-74 99-64 50 10 1237 257 1560 598 319 336 712 1582 728 1635 17 53-23 108-79 108z"/><path d="m5556 9111c-46 0-84-37-84-83v-1564c0-46 38-83 84-83s83 37 83 83v1564c0 46-37 83-83 83z"/><path d="m3693 9111c-46 0-83-37-83-83v-542c0-46 37-83 83-83s84 37 84 83v542c0 46-38 83-84 83z"/><path d="m7418 9111c-46 0-83-37-83-83v-542c0-46 37-83 83-83s83 37 83 83v542c0 46-37 83-83 83z"/><path d="m5515 8658c-327 0-623-193-757-487-428 67-815-264-815-697 0-216 137-469 324-602 38-26 90-17 117 20 26 38 17 90-21 117-144 101-253 301-253 465 0 355 338 611 677 521 42-11 86 12 100 53 94 265 347 444 628 444 292 0 548-187 636-465 14-47 65-71 110-53 349 141 740-116 740-500 0-162-91-355-217-458-36-30-41-82-12-118 29-35 82-40 117-11 164 134 279 376 279 587 0 466-444 801-888 682-130 304-428 502-765 502z"/><path d="m6422 6935c-16 0-33-5-47-15-396-268-485-651-501-867-89 47-183 93-284 138-11 5-23 8-34 8-12 0-24-3-35-8-100-45-195-91-284-139-16 217-105 600-501 868-14 10-31 15-47 15-81 0-114-107-46-153 398-270 433-673 431-822-394-236-661-503-825-821-204-394-236-832-223-1368 1-15 1-63 1-103 1-36 24-67 58-78 96-32 281-125 434-384 27-46 91-55 130-17 348 336 1002 425 1456 399 210-12 726 1 969 377 9 13 14 29 13 45-2 381-37 824-277 1224-168 277-418 514-773 726-1 150 34 553 431 822 68 46 35 153-46 153zm-2228-3209c-1 26-1 41-1 50-24 938 60 1650 1363 2248 1121-515 1354-1122 1364-1989-201-283-628-290-805-280-480 27-1111-61-1506-380-143 205-304 304-415 351z"/><path d="m5556 7548c-5 0-9-1-14-1-532-87-906-626-922-649-26-38-16-90 22-116s90-16 116 22c5 7 345 493 798 576 454-83 794-571 797-576 26-38 78-48 116-22s48 78 22 116c-16 23-390 562-922 649-4 0-9 1-13 1z"/><path d="m7233 6576h-1143c-46 0-83-37-83-83s37-84 83-84h1143c99 0 180-80 180-180v-2205c0-1024-833-1857-1857-1857-1025 0-1858 833-1858 1857v2205c0 100 81 180 180 180h1143c46 0 83 38 83 84s-37 83-83 83h-1143c-191 0-347-155-347-347v-2205c0-1114 910-2024 2025-2024 1114 0 2024 910 2024 2024v2205c0 192-156 347-347 347z"/><path d="m5217 4429h-423c-46 0-84-38-84-84s38-83 84-83h423c46 0 83 37 83 83s-37 84-83 84z"/><path d="m6317 4429h-423c-46 0-83-38-83-84s37-83 83-83h423c46 0 84 37 84 83s-38 84-84 84z"/><path d="m5556 5443c-161 0-308-81-395-216-25-39-14-90 25-115s90-14 115 25c119 186 390 186 509 0 25-39 77-50 115-25 39 25 50 76 26 115-87 135-235 216-395 216z"/><path d="m6457 6944c-99 129-405 489-818 588v948c239-44 436-215 512-453 14-47 65-71 110-53 349 141 740-116 740-500 0-157-85-342-204-447-131-35-250-64-340-83z" fill="#dae4ea"/><path d="m5472 7532c-412-99-719-459-818-588-81 18-186 42-302 73-139 104-242 298-242 457 0 355 338 611 677 521 42-11 86 12 100 53 89 252 321 425 585 442z" fill="#dae4ea"/><path d="m4807 6868c110 137 395 447 749 512 353-65 638-375 748-512-336-263-415-612-430-815-89 47-183 93-284 138-11 5-23 8-34 8-12 0-24-3-35-8-100-45-195-91-284-139-15 203-94 552-430 816z" fill="#ffb091"/><path d="m6280 8156c-114 266-357 451-641 493v295h1696v-458c0-46 37-83 83-83s83 37 83 83v458h1032c-103-312-413-1207-654-1461-134-141-479-276-813-379 64 116 102 248 102 370 0 466-444 801-888 682z" fill="#057998"/><path d="m5472 8657c-310-16-586-205-714-486-428 67-815-264-815-697 0-123 44-257 116-374-339 103-691 240-826 383-241 254-552 1149-655 1461h1032v-458c0-46 37-83 83-83s84 37 84 83v458h1695z" fill="#057998"/><path d="m6139 6409h1094c99 0 180-80 180-180v-2205c0-1024-833-1857-1857-1857-1025 0-1858 833-1858 1857v2205c0 100 81 180 180 180h1094c91-185 103-361 102-449-394-236-661-503-825-821-204-394-236-832-223-1368 1-15 1-63 1-103 1-36 24-67 58-78 96-32 281-125 434-384 27-46 91-55 130-17 348 336 1002 425 1456 399 210-12 726 1 969 377 9 13 14 29 13 45-2 381-37 824-277 1224-168 277-418 514-773 726-1 89 11 264 102 449z" fill="#bf4d30"/><path d="m5556 6024c1121-515 1354-1122 1364-1989-201-283-628-290-805-280-480 27-1111-61-1506-380-143 205-304 304-415 351-1 26-1 41-1 50-24 938 60 1650 1363 2248zm395-797c-87 135-235 216-395 216-161 0-308-81-395-216-25-39-14-90 25-115s90-14 115 25c119 186 390 186 509 0 25-39 77-50 115-25 39 25 50 76 26 115zm366-798h-423c-46 0-83-38-83-84s37-83 83-83h423c46 0 84 37 84 83s-38 84-84 84zm-1100 0h-423c-46 0-84-38-84-84s38-83 84-83h423c46 0 83 37 83 83s-37 84-83 84z" fill="#ffc3a1"/></g></svg>