<svg id="圖層_1" enable-background="new 0 0 490 490" height="512" viewBox="0 0 490 490" width="512" xmlns="http://www.w3.org/2000/svg"><circle cx="245" cy="245" fill="#1e2364" r="245"/><path d="m475 245c0 67.6-29.2 128.5-75.7 170.6-1.4 1.2-2.7 2.4-4.1 3.6s-2.8 2.4-4.2 3.5c-19.1 15.7-40.8 28.4-64.4 37.4-2.3.9-4.7 1.8-7.1 2.6-2.4.8-4.8 1.6-7.3 2.4-9.1 2.8-18.4 5-27.9 6.6-1.7.3-3.5.6-5.2.8-1.7.3-3.5.5-5.2.7-9.4 1.2-19 1.8-28.8 1.8-9.7 0-19.3-.6-28.7-1.8-1.8-.2-3.6-.5-5.3-.7-1.8-.3-3.6-.6-5.3-.8-9.5-1.7-18.9-3.9-28-6.7-2.4-.7-4.7-1.5-7.1-2.3-.1 0-.1 0-.2-.1-2.4-.8-4.7-1.7-7.1-2.6-23.6-8.9-45.3-21.6-64.4-37.4-1.4-1.2-2.8-2.3-4.2-3.5-1.3-1.2-2.7-2.3-4-3.5-46.5-42-75.8-102.9-75.8-170.6 0-127 103-230 230-230s230 103 230 230z" fill="#d1e1ff"/><path d="m319.5 462.7c7.3-12.9 13.6-25.8 18.8-38.8l-26.5-25.2 34.4-1.3-16.6-35.3c5.1 2.1 9.8 3.9 13.6 5.3 20.4 7.6 42.3 21.2 52 51.8-22 19-47.6 33.8-75.7 43.5z" fill="#dc4b0a"/><path d="m304.9 84.7c33.9 3.7 54.1 29 48.8 61.3-3.3-5.8-8.4-11.8-14.6-14 3.6 8.2 6 21.2 4.6 32.5-.7 6.2-2.6 21.2-6.8 36.6-2.6-2.5-5.8-4.3-9.4-5.4-.1-7.2-.5-14.4-1.3-21.1-2.3-19.9-14.9-34.5-34.2-45.7-10.8 2.6-44.2 16.8-51.9 36.8-.9-6.8-1.8-13.7-2.8-20.5-13 6.8-23.5 18.1-29.3 31.6 0-8.5 0-17.1-.5-25.9-12.8 3.9-20 18-22.6 22.7-.5-4.8-1.8-11.2-2.4-16-8 4.8-15 13.6-19.2 20.6-.5 5.6-.8 11.6-.9 17.5-4 1.2-7.5 3.4-10.3 6.3-1.2-6.1-2.4-12.4-3.4-18.1-1.5-8.4-2.8-13.1-3.4-17.6-1.9-14.3.4-26.7 5.1-38-7.6 5.5-13.2 9.9-15.8 18.2-2-22.8 10.1-45.2 32.5-62.1 11.8-8.9 22.9-7.3 32.2-9.9-6.4-4.7-12.2-8.9-21.3-9.6 20.7-7.8 34-8.7 60.7-8.7 29.2 0 54.4 9.9 66.2 28.5z" fill="#1e2364"/><path d="m312 398.6 26.5 25.2c-5.2 12.9-11.6 25.9-18.9 38.9-13 4.4-26.5 7.8-40.5 9.8 9.2-40.6 18-89.7 17.9-128v-3.3c10.3 6.4 22.8 10.1 29.4 13.7l3.3 7.2 16.7 35.2z" fill="#1e2364"/><path d="m152.3 201.8c2.8-2.9 6.3-5.1 10.3-6.3.1-5.9.4-11.9.9-17.5 4.2-7.1 11.1-15.9 19.2-20.6.5 4.8 1.8 11.2 2.4 16 2.6-4.7 9.8-18.8 22.6-22.7.5 8.8.5 17.3.5 25.9 5.8-13.4 16.3-24.8 29.3-31.6.9 6.8 1.8 13.7 2.8 20.5 7.6-20 41-34.2 51.9-36.8 19.2 11.2 31.9 25.8 34.2 45.7.8 6.6 1.1 13.9 1.3 21.1 3.5 1.1 6.7 2.9 9.4 5.4 4.7 4.4 7.7 10.6 7.7 17.6 0 11.9-8.6 21.8-20 23.7-3.5 14-11.2 27.9-20.5 38.1-6.8 7.6-15 16.2-25.7 22.7-9.1 5.5-20 9.4-33.4 9.4s-24.2-3.8-33.4-9.4c-10.6-6.4-18.9-15.1-25.7-22.7-9.2-10.2-17-24.1-20.4-38.1-11.4-1.9-20-11.8-20-23.7-.1-6.5 2.5-12.3 6.6-16.7z" fill="#fff"/><path d="m297 344.6c.1 38.2-8.7 87.3-17.9 127.9-1.7.3-3.5.5-5.2.7-9.4 1.2-19 1.8-28.8 1.8-9.7 0-19.3-.6-28.7-1.8-1.8-.2-3.6-.5-5.3-.7-9.1-40.6-17.9-89.6-17.9-127.9 1-.7 2-1.5 2.9-2.3 12.6 11.7 29.9 19 48.9 19s36.4-7.2 48.9-19c1.1.8 2.1 1.5 3.1 2.3z" fill="#fff"/><path d="m278.5 315.5c0 10.4 6.5 19.3 15.6 26.8-12.6 11.7-29.9 19-48.9 19s-36.4-7.2-48.9-19c9.1-7.5 15.6-16.4 15.6-26.8v-12.7c9.1 5.5 20 9.4 33.4 9.4s24.2-3.8 33.4-9.4v12.7z" fill="#fff"/><path d="m211 472.5c-13.9-2.1-27.4-5.4-40.4-9.8-7.3-12.9-13.6-25.9-18.8-38.8l26.5-25.2-34.4-1.3 16.6-35.3 3.4-7.2c6.6-3.6 19.1-7.3 29.4-13.7 0 1.1-.1 2.3-.1 3.4-.1 38.3 8.7 87.3 17.8 127.9z" fill="#1e2364"/><path d="m151.6 423.9c5.2 12.9 11.6 25.8 18.9 38.7-28-9.6-53.6-24.5-75.6-43.4 9.6-30.5 31.5-44.1 52-51.7 3.9-1.4 8.5-3.2 13.6-5.3l-16.7 35.2 34.4 1.3z" fill="#dc4b0a"/><g fill="#1e2364"><path d="m345.1 362.7c-3.6-1.4-7.5-2.8-11.7-4.5l-2.5-5.4c-.5-1-1.2-1.7-2.1-2.2-2.8-1.5-6.4-3-10.5-4.7-6-2.4-12.7-5.2-18.6-8.9-1.4-.8-3-1-4.5-.4-7.7-6.9-11.6-14-11.6-21.1v-9.9c10-6.5 17.8-14.8 24.4-22.1 9.5-10.5 16.9-23.9 20.8-37.2 12.3-3.5 21-14.8 21-27.9 0-7-2.6-13.8-7.1-19 2.6-10.2 4.7-21.8 6.2-34.5.7-5.8.5-12.1-.4-18.3.4.6.7 1.2 1.1 1.8 1.1 1.8 3.1 2.8 5.2 2.4s3.7-2 4-4.1c2.7-16.5-.8-32.2-9.9-44.3-9.2-12.1-23.7-20.1-40.9-22.5-13-18-38.5-28.8-69.2-28.8-26.8 0-40.8.9-62.4 9-2.2.8-3.5 3.1-3.2 5.4s2.2 4.1 4.6 4.3c2.9.2 5.5.9 7.8 1.8-6.4 1.1-13.8 3-21.3 8.6-24 18.1-36.5 42.3-34.5 66.5.2 2.4 2.1 4.3 4.4 4.5 2.4.3 4.6-1.2 5.3-3.5.3-1 .7-1.9 1.1-2.7-1.1 7.1-1.1 14.3-.1 21.6.3 2.5.9 5 1.5 7.9.6 2.8 1.3 5.9 2 9.9 1 5.6 2 10.9 2.9 15.8-4.1 5.1-6.3 11.4-6.3 18.1 0 13.1 8.6 24.3 21 27.9 3.8 13.3 11.3 26.7 20.8 37.2 6.6 7.3 14.4 15.5 24.4 22.1v9.9c0 7.1-3.9 14.2-11.6 21.1-1.5-.6-3.1-.5-4.5.4-5.9 3.6-12.7 6.4-18.6 8.9-4.1 1.7-7.7 3.2-10.5 4.7-.9.5-1.7 1.3-2.1 2.2l-2.6 5.4c-4.1 1.7-8 3.2-11.7 4.5-28 10.4-45.9 27.9-54.4 53.1 1.3 1.2 2.7 2.4 4 3.5 1.4 1.2 2.8 2.4 4.2 3.5.1-.4.3-.9.4-1.3 9.6-31.3 32.7-43.2 49.2-49.3.6-.2 1.3-.5 1.9-.7l-11.3 23.8c-.7 1.5-.6 3.3.2 4.7.9 1.4 2.4 2.3 4.1 2.4l22.6.9-17.9 17c-1.5 1.4-2 3.6-1.2 5.5 4.5 11.1 9.9 22.5 16.4 34.4 2.3.9 4.7 1.8 7.1 2.6.1 0 .1 0 .2.1 2.4.8 4.7 1.6 7.1 2.3-8.1-13.9-14.7-27.2-20-39.9l24-22.8c1.5-1.4 1.9-3.5 1.2-5.4s-2.5-3.2-4.5-3.2l-26.9-1 13.4-28.4 2.8-5.7c2.2-1.1 5-2.2 8.1-3.5 3.9-1.6 8.2-3.4 12.5-5.4.6 37.2 8.7 83 17.4 122 1.8.3 3.5.6 5.3.8 1.8.3 3.5.5 5.3.7-8.8-38.9-17.2-85.1-18-122.5 13.1 10.1 29.5 15.6 46.7 15.6s33.6-5.5 46.8-15.6c-.8 37.4-9.2 83.6-18 122.5 1.8-.2 3.5-.4 5.2-.7 1.8-.3 3.5-.5 5.2-.8 8.7-39 16.9-84.8 17.5-122.1 4.3 2.1 8.5 3.8 12.5 5.4 3.2 1.4 6 2.5 8.2 3.6l2.7 5.6 13.4 28.4-26.9 1c-2 .1-3.8 1.4-4.5 3.2-.7 1.9-.2 4 1.2 5.4l24 22.8c-5.3 12.7-12 26-20.1 40 2.5-.8 4.9-1.5 7.3-2.4 2.4-.8 4.8-1.7 7.1-2.6 6.5-11.9 11.9-23.3 16.4-34.4.8-1.9.3-4.1-1.2-5.5l-17.9-17 22.6-.9c1.7-.1 3.2-1 4.1-2.4s1-3.2.2-4.7l-11.3-23.8c.6.2 1.3.5 1.9.7 16.5 6.2 39.6 18 49.2 49.3.1.4.3.9.4 1.3 1.4-1.2 2.8-2.3 4.2-3.5s2.8-2.4 4.1-3.6c-8.7-25.2-26.5-42.5-54.3-52.9zm-191-238.4c-1.8-1.4-4.2-1.4-6-.1-2.6 1.5-4.8 3.1-6.9 4.9 3.7-14.9 13.7-29.2 29.2-40.8 7.3-5.5 14.3-6.4 21.1-7.4 3.1-.4 6.3-.9 9.4-1.7 1.9-.5 3.2-2 3.6-3.9.3-1.9-.4-3.8-2-4.9l-.1-.1c-2.5-1.8-5.1-3.7-7.9-5.3 13.1-3.3 25.1-3.7 44.5-3.7 28.3 0 51.4 9.8 61.9 26.2.8 1.3 2.2 2.1 3.7 2.3 15.5 1.7 28.4 8.4 36.4 18.9 5.2 6.9 8.2 15.1 8.7 24.1-2.5-2.2-5.4-4.2-8.7-5.4-1.9-.7-4-.2-5.4 1.3s-1.7 3.6-.9 5.4c3.1 6.9 5.5 18.9 4.2 29.9-1.3 10.5-2.9 20.2-4.9 28.9-.4-.2-.9-.5-1.3-.7-.2-6.6-.6-12.7-1.2-18.2-2.3-20.3-14.3-36.5-36.7-49.5-1.1-.6-2.4-.8-3.7-.5-9.5 2.3-33.8 12.2-47.5 27.5l-.9-7.1c-.2-1.6-1.2-3-2.7-3.8-1.4-.7-3.2-.7-4.6 0-8.6 4.5-16.2 10.8-22.2 18.3-.1-2.8-.2-5.6-.3-8.5-.1-1.5-.9-2.9-2.1-3.8-1.3-.9-2.9-1.1-4.3-.7-7.9 2.5-13.9 8.1-18.2 13.5-.1-.9-.2-1.8-.3-2.6-.2-1.7-1.2-3.2-2.7-3.9-1.5-.8-3.3-.7-4.8.2-11.1 6.6-18.8 18.8-20.9 22.4-.4.6-.6 1.3-.7 2.1-.4 4.5-.7 9.3-.8 14.5-.7.3-1.4.7-2 1-.6-3.3-1.2-6.7-1.9-10.2-.7-4.2-1.5-7.6-2-10.3-.6-2.8-1.1-5-1.4-7.1-1.6-12.1-.1-23.7 4.8-35.4.9-2.1.2-4.5-1.5-5.8zm35.7 152.6c-9-9.9-16.2-23.4-19.3-35.9-.5-1.9-2.1-3.4-4-3.7-9.2-1.5-15.8-9.4-15.8-18.7 0-4.9 1.9-9.6 5.3-13.2 2.2-2.3 5.1-4.1 8.2-5 2.1-.6 3.5-2.5 3.6-4.7.1-5.7.4-11.1.8-16 1.7-2.8 5.5-8.4 10.6-13.2.4 2.6.9 5.3 1.1 7.5s1.9 3.9 4 4.4c2.1.4 4.3-.6 5.4-2.5l.3-.5c1.9-3.6 6.4-11.8 13.2-16.7.2 6.1.2 12.1.2 18 0 2.4 1.7 4.4 4 4.9s4.7-.7 5.6-2.9c4.4-10.2 11.6-19 20.7-25.3l1.7 13c.3 2.3 2.1 4 4.4 4.3s4.4-1 5.2-3.2c6.1-16.4 34-29.8 46.3-33.4 18.3 11.1 28.1 24.5 30 40.9.7 6 1.1 13 1.2 20.6 0 2.2 1.5 4.1 3.6 4.7 2.7.8 5.3 2.3 7.4 4.3 2 1.8 3.5 3.9 4.5 6.3s1.6 4.9 1.6 7.6c0 9.3-6.7 17.2-15.8 18.7-2 .3-3.5 1.8-4 3.7-3.1 12.5-10.3 26-19.3 35.9-6.6 7.3-14.5 15.7-24.6 21.7-9.6 5.8-19.7 8.6-30.8 8.6s-21.1-2.8-30.8-8.6c-10-6-17.9-14.3-24.5-21.6zm55.3 79.4c-15.3 0-29.8-5-41.3-14 8.6-8.4 12.9-17.4 12.9-26.8v-4.4c8.9 4.1 18.3 6.1 28.4 6.1s19.4-2 28.3-6.1v4.4c0 9.4 4.4 18.4 13 26.7-11.6 9.1-26.1 14.1-41.3 14.1z"/><g><path d="m284.9 211h-.5c-3.7 0-6.8-3-6.8-6.8v-12.6c0-3.7 3-6.8 6.8-6.8h.5c3.7 0 6.8 3 6.8 6.8v12.6c0 3.8-3.1 6.8-6.8 6.8z"/><path d="m205.7 211h-.5c-3.7 0-6.8-3-6.8-6.8v-12.6c0-3.7 3-6.8 6.8-6.8h.5c3.7 0 6.8 3 6.8 6.8v12.6c0 3.8-3 6.8-6.8 6.8z"/></g><path d="m220.9 250.6c2.7 10 12.5 17.5 24.2 17.5s21.5-7.4 24.2-17.5z"/></g></svg>