<svg height="128" viewBox="0 0 128 128" width="128" xmlns="http://www.w3.org/2000/svg"><g id="flat" fill="none" fill-rule="evenodd"><g id="girl-flat" transform="translate(-832 -448)"><g id="circles" fill="#38b4ca" transform="translate(64 64)"><path id="circle" d="m832 512c-35.346224 0-64-28.653776-64-64s28.653776-64 64-64 64 28.653776 64 64-28.653776 64-64 64z"/></g><path id="Combined-Shape" d="m927.344939 567.811732c-9.264027 5.214037-19.957149 8.188268-31.344939 8.188268s-22.080912-2.974231-31.344939-8.188268l.866468-10.83084c.294508-3.681358 2.594042-6.900705 5.980891-8.373249l14.491211-6.300526c1.825549-.793717 3.006369-2.594717 3.006369-4.58535v-10.721767h14v10.721767c0 1.990633 1.18082 3.791633 3.006369 4.58535l14.491211 6.300526c3.386849 1.472544 5.686383 4.691891 5.980891 8.373249z" fill="#fae5e0"/><path id="Combined-Shape" d="m927.344939 567.811732c-9.264027 5.214037-19.957149 8.188268-31.344939 8.188268s-22.080912-2.974231-31.344939-8.188268l.866468-10.83084c.294508-3.681358 2.594042-6.900705 5.980891-8.373249l3.988522-1.73414c4.212657 5.472503 11.821846 9.126497 20.509058 9.126497s16.296401-3.653994 20.509058-9.126497l3.988522 1.73414c3.386849 1.472544 5.686383 4.691891 5.980891 8.373249z" fill="#365a7c"/><ellipse id="Oval" cx="896" cy="475.5" fill="#ffba3a" rx="17" ry="16.5"/><ellipse id="Oval" cx="896" cy="472.5" fill="#365a7c" rx="7" ry="6.5"/><circle id="Oval" cx="896" cy="500" fill="#ffc75e" r="28"/><path id="ear" d="m918.5 519c2.485281 0 5.5-4.785758 5.5-8.5s-1.412362-5.5-3.5-5.5-4.5 2.910149-4.5 6.5.014719 7.5 2.5 7.5z" fill="#fae5e0"/><path id="Oval" d="m914.207966 567.309905c-12.042734-23.044252 20.957266-18.819971 5.813467-41.250452 0-7.160056 1.442866-15.164688-12.321597-8.143012 10.924925 17.443234-22.398646 27.000392 6.50813 49.393464z" fill="#ffc75e" transform="matrix(-1 0 0 1 1826.165 0)"/><path id="ear" d="m870.5 519c2.485281 0 5.5-4.785758 5.5-8.5s-1.412362-5.5-3.5-5.5-4.5 2.910149-4.5 6.5.014719 7.5 2.5 7.5z" fill="#fae5e0" transform="matrix(-1 0 0 1 1744 0)"/><path id="face" d="m873.460083 503h10.539917l4-8.637142v8.637142h16l.082966-8.637142 3.917034 8.637142h10.539917c.301704 1.61555.460083 3.287671.460083 5 0 13.807119-10.297451 25-23 25s-23-11.192881-23-25c0-1.712329.158379-3.38445.460083-5z" fill="#fff0ec"/><g id="expressions" transform="translate(114 127)"><circle id="eye" cx="771" cy="387" fill="#324b50" r="3"/><circle id="eye" cx="793" cy="387" fill="#324b50" r="3"/><path id="mouth" d="m776 396c.8 3.333333 2.8 5 6 5s5.2-1.666667 6-5z" fill="#fe725f"/></g><g id="slice" transform="translate(64 64)"/></g></g></svg>