<svg id="Layer_1" enable-background="new 0 0 128 128" height="512" viewBox="0 0 128 128" width="512" xmlns="http://www.w3.org/2000/svg"><g><circle id="XMLID_11092_" cx="64" cy="64" fill="#e9bb06" r="64"/><g id="XMLID_196_"><g id="XMLID_1241_"><path id="XMLID_883_" d="m119.9 95.3c-5.3 9.5-13 17.5-22.2 23.2-1 .6-1.9 1.2-2.9 1.7-9.1 5-19.6 7.9-30.7 7.9s-21.6-2.9-30.7-7.9c-1-.6-2-1.1-2.9-1.7-9.2-5.7-16.9-13.7-22.2-23.2 2.5-7.7 8.5-13.9 16.3-16.6l20.1-6.8 2.9-1h.1l2.2-2.8h28.5l2.6 2.8h.1l2.9 1 19.8 6.8c7.6 2.6 13.6 8.9 16.1 16.6z" fill="#d54232"/><path id="XMLID_1164_" d="m47.1 56.1c.6 4.9 1.2 10.9.3 14.8.4 1.2.8 2.3 1.2 3.4 2.3 6.7 8.5 8.9 15.6 8.9 7 0 13.3-2.3 15.6-9 .4-1.1.8-2.3 1.2-3.4-.9-3.9-.2-9.9.3-14.8.6-5.1 1.4-8.2 1.5-8-10.3-10.3-27-10.3-37.2 0 .1-.1.9 3.1 1.5 8.1z" fill="#f1b97c"/><g id="XMLID_1157_"><ellipse id="XMLID_1162_" cx="85.4" cy="43.4" fill="#f8cfa3" rx="7.5" ry="4.5" transform="matrix(.18 -.984 .984 .18 27.397 119.591)"/><path id="XMLID_1161_" d="m87 37.6c-.3 3.1-.6 5.1-.6 5.1-.5 2.6-.9 4.7-1.3 6.6 1.3-.5 2.8-2.5 3.3-5.4.6-3-.2-5.5-1.4-6.3z" fill="#f1b97c"/><path id="XMLID_1160_" d="m64 8c-24.8 1.1-23.7 19.9-23.7 19.9 0 7.4 1.2 14.8 1.2 14.8 2.9 15.9 4.8 17 4.8 17 2.3 3.3 5.3 5.9 7.8 7.7 2.4 1.8 5.3 2.7 8.2 2.7h3.3c3 0 5.9-.9 8.2-2.7 2.4-1.8 5.5-4.5 7.8-7.7 0 0 1.9-1.1 4.8-17 0 0 1.2-7.3 1.2-14.8 0 0 1.1-18.8-23.6-19.9z" fill="#f8cfa3"/><ellipse id="XMLID_1159_" cx="42.5" cy="43.4" fill="#f8cfa3" rx="4.5" ry="7.5" transform="matrix(.984 -.18 .18 .984 -7.106 8.35)"/><path id="XMLID_1158_" d="m40.9 37.6c.3 3.1.6 5.1.6 5.1.5 2.6.9 4.7 1.3 6.6-1.3-.5-2.8-2.5-3.3-5.4-.5-3 .2-5.5 1.4-6.3z" fill="#f1b97c"/></g><path id="XMLID_1156_" d="m64.4 83.6-.1-.1.1-.1z" fill="#5e86c3"/><path id="XMLID_1106_" d="m83.9 71.9v.1c-.4 1.1-.8 2.2-1.2 3.3-1.3 3.9-3.8 6.8-7.5 8.7-3 1.5-6.7 2.3-11 2.3-9.4 0-16-3.9-18.4-11-.4-1.2-.8-2.3-1.2-3.3 0-.1 0-.1 0-.2l2.9-1v.1c.4 1.2.8 2.3 1.2 3.4 2.3 6.7 8.5 8.9 15.6 8.9 7 0 13.3-2.3 15.6-9 .4-1.1.8-2.3 1.2-3.4v-.1z" fill="#fcfcfc"/><g id="XMLID_1029_" fill="#e34d30"><path id="XMLID_724_" d="m33.3 120.1c-1-.6-2-1.1-2.9-1.7v-8.7z"/><path id="XMLID_584_" d="m97.7 109.7v8.7c-1 .6-1.9 1.2-2.9 1.7z"/></g><g id="XMLID_1240_"><path id="XMLID_1261_" d="m83.2 35.1v3.2s-.7.8-.8 2.5c0 .9-.2 1.8-.6 2.6-.6 1.5-1.5 3.2-4.3 3.8 0 0-9 2.2-11.2-4 0 0-1-3.9-2.4-3.9s-2.4 3.9-2.4 3.9c-2.1 6.3-11.2 4-11.2 4-2.7-.6-3.6-2.3-4.3-3.8-.4-.8-.5-1.7-.6-2.6-.1-1.7-.8-2.5-.8-2.5v-3.2c8.8-1.1 14.5.4 14.5.4.2.1.5.1.8.2 2.6.5 5.2.5 7.8 0 .3-.1.6-.1.8-.2.2 0 5.9-1.5 14.7-.4z" fill="#343843"/><path id="XMLID_1260_" d="m66.9 40.3c-.2-1.3.4-2.7 1.6-3.4.7-.4 1.7-.8 3.1-1 0 0 6.3-.8 8.9.8.5.3.9.9.9 1.5.1 1 .2 2.7-.2 4.3-.4 1.7-1.8 3-3.5 3.4-1.5.3-4.1.8-6.4.3-2-.4-3.5-1.9-4-3.9-.1-.5-.3-1.2-.4-2z" fill="#6fb1e1"/><path id="XMLID_1259_" d="m83.2 35.1v3.2l1.1-.9c1-.8 1.1-1.9 1.1-3.1z" fill="#646c79"/><path id="XMLID_1258_" d="m61.2 40.3c.2-1.3-.4-2.7-1.6-3.4-.7-.4-1.7-.8-3.1-1 0 0-6.3-.8-8.9.8-.5.3-.9.9-.9 1.5-.1 1-.2 2.7.2 4.3.4 1.7 1.8 3 3.5 3.4 1.5.3 4.1.8 6.4.3 2-.4 3.5-1.9 4-3.9.1-.5.3-1.2.4-2z" fill="#6fb1e1"/><path id="XMLID_1257_" d="m42.5 34.2c.2 1.2.3 2.4 1.3 3.2l1.1.9v-3.2z" fill="#646c79"/></g><path id="XMLID_1251_" d="m67.2 61.9c-.4 1.5-1.6 2.6-3 2.6s-2.5-1.1-3-2.5c.9.3 1.9.5 3 .5 1.1-.1 2.1-.3 3-.6z" fill="#343843"/><path id="XMLID_1184_" d="m41.9 44.4h1.9c.1-2.3-.2-4.6-.5-6.3-.4-2 .2-4.2 1.7-5.7 3.8-4 10.5-6.2 10.5-6.2-1.2 2.2-5.7 5.3-5.7 5.3 8.4-1.2 18.3-8.8 18.3-8.8-2.4 3.9-10.8 9-10.8 9 7.5-1 24-11.4 24-11.4s-1.3 2.8 1.5 7.7c1.8 3.2 2.1 11.3 2.1 16.4h1.3c0-5.3 1.5-7.9 1.5-7.9 2.4-2.4 3-12.3 3-12.3 2-11-6.3-13.5-6.3-13.5-4.4-6-12.5-7.3-19.7-6.9-16 .8-27.5 15.7-24.4 31.3.1.3.1.5.1.5 1.1 5.2 1.3 5.4 1.5 8.8z" fill="#343843"/><g id="XMLID_1027_" fill="#3f4349"><path id="XMLID_1172_" d="m68.4 8.8c.7-.1 1.9-.1 2.5-.1-1.6-.2-2.7-.2-4.3-.1 4.1-.6 3.5-.5 6.5-.7-11.6-1.2-24.6 5.6-30.3 14 2.9-3.3 6.5-6.1 8.6-7.4-3.9 3-7 7.2-7.6 8.2 6.6-8.2 19.2-13.8 27.8-13.8.9 0 1.4-.1 1.4-.1-1.3-.1-2.6-.1-4.6 0zm-9.1 2c1.1-.5.9-.4 1.6-.6 2.5-.7 3.8-.9 5-1.1-1 .2-3.4.4-6.6 1.7z"/><path id="XMLID_1173_" d="m81.2 13.8c-9.9-6.6-22.5-2.2-29.4 3.5 2-1.2 4.9-2.7 7.6-3.7-4 1.7-7.3 4-8.5 5 3.6-2.2 8.9-4.7 14-6.1-3.9 1.3-7.6 3.6-9.2 4.9 0 0 .3-.2.8-.5-1.2.9-2.5 2-2.9 2.5 6.6-5.2 14.8-8.3 23.6-6.3-1.4-.6-2.8-1-4.5-1.2 2.8 0 4.8.6 7.2 1.8-.8-.5-1.4-.9-2.4-1.4 1.4.5 1.3.4 1.9.8 0 0-.1 0-.2-.1 1.1.3 1.2.4 2 .8z"/><path id="XMLID_1174_" d="m84.8 13.5c.5 1.4 1.7 3.6 2.1 6.4-1.3-2.6-1.6-4.4-4.1-6.9 2.8 5.2 4.3 9.8 3.3 18.8v.2c.3-.6.8-2.6.9-2.7-.1 1.1-.4 2.8-.9 4.3 2.3-3.4 4-13.9-1.3-20.1z"/></g></g></g></g></svg>