<svg height="128" viewBox="0 0 128 128" width="128" xmlns="http://www.w3.org/2000/svg"><g id="flat" fill="none" fill-rule="evenodd"><g id="boy-flat" transform="translate(-1792 -256)"><g id="circles" fill="#77c19c" transform="translate(64 64)"><path id="circle" d="m1792 320c-35.34622 0-64-28.653776-64-64s28.65378-64 64-64 64 28.653776 64 64-28.65378 64-64 64z"/></g><path id="Combined-Shape" d="m1887.34494 375.811732c-9.26403 5.214037-19.95715 8.188268-31.34494 8.188268s-22.08091-2.974231-31.34494-8.188268l1.1057-13.821286c.14726-1.840679 1.29703-3.450353 2.99045-4.186624l17.24242-7.496705c1.82555-.793717 3.00637-2.594717 3.00637-4.58535v-11.721767h14v11.721767c0 1.990633 1.18082 3.791633 3.00637 4.58535l17.24242 7.496705c1.69342.736271 2.84319 2.345945 2.99045 4.186624z" fill="#fae5e0"/><path id="Combined-Shape" d="m1887.34494 375.811732c-9.26403 5.214037-19.95715 8.188268-31.34494 8.188268s-22.08091-2.974231-31.34494-8.188268l1.1057-13.821286c.14726-1.840679 1.29703-3.450353 2.99045-4.186624l13.24879-5.760344v3.956522h28v-3.956522l13.24879 5.760344c1.69342.736271 2.84319 2.345945 2.99045 4.186624z" fill="#365a7c"/><path id="Combined-Shape" d="m1863.03584 383.617671c-2.31053.252657-4.65804.382329-7.03584.382329s-4.72531-.129672-7.03584-.382329l-2.96416-31.617671c2.62279 2 5.95612 3 10 3s7.37721-1 10-3z" fill="#38b4ca"/><path id="Combined-Shape" d="m1858.56392 383.949581 7.43608-34.949581 7 2 1 12h-5l5 7-9.28495 13.411593c-2.02187.275285-4.07378.456144-6.15113.537988zm-11.27897-.537988-9.28495-13.411593 5-7h-5l1-12 7-2 7.43608 34.949581c-2.07735-.081844-4.12926-.262703-6.15113-.537988z" fill="#324b50"/><path id="hair" d="m1856 328.394423c19.99998 0 24.37806-7.528599 27-15.394423 1-3 5-8.00371 4-11.330123-.62371-2.074712-2.41221-3.399699-3-5.669877-.80304-3.101535 0-6-2-8-3-3-6-2-9-4-3.6187-2.412465-2-8-10-9-5.3436-.66795-8.77295 5.025228-18 4-9-1-11 6-14 10s-6 7-6 13.418233c0 5.581767 4 6.581767 5 10.581767 2.04626 8.185056 8 15.394423 26 15.394423z" fill="#324b50"/><path id="ear" d="m1830.5 329c2.48528 0 5.5-4.785758 5.5-8.5s-1.41236-5.5-3.5-5.5-4.5 2.910149-4.5 6.5.01472 7.5 2.5 7.5z" fill="#fae5e0" transform="matrix(-1 0 0 1 3664 0)"/><path id="ear" d="m1878.5 329c2.48528 0 5.5-4.785758 5.5-8.5s-1.41236-5.5-3.5-5.5-4.5 2.910149-4.5 6.5.01472 7.5 2.5 7.5z" fill="#fae5e0"/><path id="face" d="m1875.89225 309.082044c-.14274 2.499063 3.10775 5.136083 3.10775 6.91296 0 14.807119-10.29745 26-23 26s-23-11.192881-23-26c0-1.776877 3.25049-4.413897 3.10775-6.91296-1.43236-25.07784 12.69966-8.08704 19.89225-8.08704s21.32461-16.9908 19.89225 8.08704z" fill="#fff0ec"/><g fill="#324b50"><path id="Rectangle" d="m1863 315c-1.65685 0-3 1.343146-3 3v4c0 1.656854 1.34315 3 3 3h8c1.65685 0 3-1.343146 3-3v-4c0-1.656854-1.34315-3-3-3zm0-2h8c2.76142 0 5 2.238576 5 5v4c0 2.761424-2.23858 5-5 5h-8c-2.76142 0-5-2.238576-5-5v-4c0-2.761424 2.23858-5 5-5z"/><path id="Rectangle" d="m1841 315c-1.65685 0-3 1.343146-3 3v4c0 1.656854 1.34315 3 3 3h8c1.65685 0 3-1.343146 3-3v-4c0-1.656854-1.34315-3-3-3zm0-2h8c2.76142 0 5 2.238576 5 5v4c0 2.761424-2.23858 5-5 5h-8c-2.76142 0-5-2.238576-5-5v-4c0-2.761424 2.23858-5 5-5z"/><path id="Line-8" d="m1875.70711 318.707107-1.41422-1.414214 5-5 1.41422 1.414214z"/><path id="Line-8" d="m1832.70711 318.707107-1.41422-1.414214 5-5 1.41422 1.414214z" transform="matrix(-1 0 0 1 3669 0)"/><path id="Line-7" d="m1853.5547 319.83205-1.1094-1.6641c1.15704-.771363 2.3468-1.16795 3.5547-1.16795s2.39766.396587 3.5547 1.16795l-1.1094 1.6641c-.84296-.56197-1.6532-.83205-2.4453-.83205s-1.60234.27008-2.4453.83205z"/></g><g id="expressions" transform="translate(114 124)"><circle id="eye" cx="1731" cy="196" fill="#324b50" r="3"/><circle id="eye" cx="1753" cy="196" fill="#324b50" r="3"/><path id="mouth" d="m1736 207c.8 3.333333 2.8 5 6 5s5.2-1.666667 6-5z" fill="#f79e89"/></g><g id="slice" transform="translate(64 64)"/></g></g></svg>