<svg id="Layer_2_00000018938459162922615490000011374558304310283689_" enable-background="new 0 0 512 512" viewBox="0 0 512 512" xmlns="http://www.w3.org/2000/svg" xmlns:xlink="http://www.w3.org/1999/xlink"><linearGradient id="SVGID_1_" gradientTransform="matrix(1 0 0 -1 0 512)" gradientUnits="userSpaceOnUse" x1="80.14" x2="481.48" y1="417.55" y2="53.27"><stop offset="0" stop-color="#883acc"/><stop offset="1" stop-color="#a81ac6"/></linearGradient><g id="Layer_1-2"><g id="_9"><path d="m506 258.6c33.4 169.2-79.2 278.9-248.3 248.3-134.9-24.4-298.6-120.7-248.3-248.3 40.2-101.9 155.9-209 248.3-248.3 126.2-53.7 221.7 113.7 248.3 248.3z" fill="url(#SVGID_1_)"/><path d="m203.4 294 20.3-4c-.8 4.5-1.1 8.5-1.1 11.9 0 14.1 6.7 21.1 20 21.1 9.2 0 15.6-3.6 19.3-10.7s6.3-21.7 8.1-43.5c-9.4 8.5-18.9 12.8-28.8 12.8-13.5 0-24.5-4.7-33.1-14.1s-12.9-21.4-12.9-36.1c0-16.4 5.2-29.6 15.6-39.6s24.1-15 41.1-15c43.3 0 65 26.1 65 78.2 0 24.9-6.2 44.5-18.8 58.9-12.5 14.3-29.6 21.5-51.3 21.5-29.1 0-43.7-10.9-43.7-32.7 0-2.2.1-5 .3-8.7zm51.9-105c-10.9 0-16.4 14.1-16.4 42.3 0 23 4.8 34.5 14.4 34.5 12.2 0 18.3-12.4 18.3-37.1 0-26.4-5.5-39.7-16.3-39.7z" fill="#fff"/></g></g></svg>