<svg id="Layer_2_00000008868526782964587130000016020972927638210210_" enable-background="new 0 0 512 512" viewBox="0 0 512 512" xmlns="http://www.w3.org/2000/svg" xmlns:xlink="http://www.w3.org/1999/xlink"><linearGradient id="SVGID_1_" gradientTransform="matrix(1 0 0 -1 0 512)" gradientUnits="userSpaceOnUse" x1="80.14" x2="481.48" y1="417.55" y2="53.27"><stop offset="0" stop-color="#883acc"/><stop offset="1" stop-color="#a81ac6"/></linearGradient><g id="Layer_1-2"><g id="_8"><path d="m506 258.6c33.4 169.2-79.2 278.9-248.3 248.3-134.9-24.4-298.6-120.7-248.3-248.3 40.2-101.9 155.9-209 248.3-248.3 126.2-53.7 221.7 113.7 248.3 248.3z" fill="url(#SVGID_1_)"/><path d="m217.8 259.3c-13.7-9.6-20.6-21.6-20.6-36.1s5.3-25 16-33.6 24.7-12.8 42.1-12.8c15.2 0 27.5 3.3 36.9 9.9s14.1 15.3 14.1 26c0 11.9-6.2 21.4-18.8 28.6 20.4 10.8 30.7 25.2 30.7 43.2 0 15-5.9 27.2-17.6 36.5s-27 14-46 14c-17.5 0-32.1-4.2-43.6-12.6s-17.3-19-17.3-31.7c.1-13.7 8.1-24.3 24.1-31.4zm10.8 6.4c-10.2 6.3-15.3 14.7-15.3 25.2 0 8.8 4 16.4 11.9 22.7s17.4 9.4 28.4 9.4c8.6 0 15.9-2.3 21.9-7 6-4.6 9-10.3 9-16.9 0-10.8-8.5-18.7-25.6-23.8-8.4-2.4-18.5-5.7-30.3-9.6zm48.5-29c6.4-5.6 9.7-12.3 9.7-20 0-18.4-10.8-27.6-32.5-27.6-18.3 0-27.5 6.6-27.5 19.9 0 8 8.2 14.6 24.7 19.8l17.4 5.4c1.8.5 4.5 1.4 8.2 2.5z" fill="#fff"/></g></g></svg>