<svg id="Layer_2_00000088832770753055230300000007591564579436736698_" enable-background="new 0 0 512 512" viewBox="0 0 512 512" xmlns="http://www.w3.org/2000/svg" xmlns:xlink="http://www.w3.org/1999/xlink"><linearGradient id="SVGID_1_" gradientTransform="matrix(1 0 0 -1 0 512)" gradientUnits="userSpaceOnUse" x1="80.14" x2="481.48" y1="417.55" y2="53.27"><stop offset="0" stop-color="#883acc"/><stop offset="1" stop-color="#a81ac6"/></linearGradient><g id="Layer_1-2"><g id="_5"><path d="m506 258.6c33.4 169.2-79.2 278.9-248.3 248.3-134.9-24.4-298.6-120.7-248.3-248.3 40.2-101.9 155.9-209 248.3-248.3 126.2-53.7 221.7 113.7 248.3 248.3z" fill="url(#SVGID_1_)"/><path d="m305.9 178.1-5.8 32.2h-72.7l-5.7 32.8c12.3-8.3 25-12.5 38.2-12.5 16 0 29 4.7 39.2 14s15.3 21.3 15.3 35.9c0 16.3-5.8 29.3-17.2 38.9s-27 14.4-46.6 14.4c-35.3 0-53-12.1-53-36.4 0-3.5.5-7.9 1.6-13l19.9-4.2c-1.3 6.1-1.9 11.8-1.9 16.9 0 15.3 8.1 22.9 24.4 22.9 19.5 0 29.2-13.8 29.2-41.4 0-19.5-8.3-29.3-24.8-29.3-9.9 0-18.7 5.2-26.4 15.7l-17.7-4.3 14.4-82.8z" fill="#fff"/></g></g></svg>