<svg id="Layer_2_00000035506634616917220790000015377128899687271084_" enable-background="new 0 0 512 512" viewBox="0 0 512 512" xmlns="http://www.w3.org/2000/svg" xmlns:xlink="http://www.w3.org/1999/xlink"><linearGradient id="SVGID_1_" gradientTransform="matrix(1 0 0 -1 0 512)" gradientUnits="userSpaceOnUse" x1="80.14" x2="481.48" y1="417.55" y2="53.27"><stop offset="0" stop-color="#883acc"/><stop offset="1" stop-color="#a81ac6"/></linearGradient><g id="Layer_1-2"><g id="_2"><path d="m506 258.6c33.4 169.2-79.2 278.9-248.3 248.3-134.9-24.4-298.6-120.7-248.3-248.3 40.2-101.9 155.9-209 248.3-248.3 126.2-53.7 221.7 113.7 248.3 248.3z" fill="url(#SVGID_1_)"/><path d="m312.6 297v36.8h-114.4v-21.7c9.4-10.3 20.1-21.3 32.2-33 27.2-26 40.8-45.9 40.8-59.6 0-18.3-7.3-27.5-21.8-27.5-17.7 0-26.5 11.1-26.5 33.2 0 5.2 1.3 12.6 3.8 22.1l-23.7-5.6c-1.8-7-2.7-12.7-2.7-17 0-31.1 19.2-46.6 57.6-46.6 16.2 0 29.6 4 40.1 12s15.7 18.3 15.7 30.8c0 14.3-10.4 29.9-31.1 46.7l-13.9 11.2-15.4 12.9c-1 .8-3.4 2.5-7.2 5.2z" fill="#fff"/></g></g></svg>