<svg id="Layer_2_00000014592955177279562410000004982210692688871590_" enable-background="new 0 0 512 512" viewBox="0 0 512 512" xmlns="http://www.w3.org/2000/svg" xmlns:xlink="http://www.w3.org/1999/xlink"><linearGradient id="SVGID_1_" gradientTransform="matrix(1 0 0 -1 0 512)" gradientUnits="userSpaceOnUse" x1="80.14" x2="481.48" y1="417.55" y2="53.27"><stop offset="0" stop-color="#883acc"/><stop offset="1" stop-color="#a81ac6"/></linearGradient><g id="Layer_1-2"><g id="_6"><path d="m506 258.6c33.4 169.2-79.2 278.9-248.3 248.3-134.9-24.4-298.6-120.7-248.3-248.3 40.2-101.9 155.9-209 248.3-248.3 126.2-53.7 221.7 113.7 248.3 248.3z" fill="url(#SVGID_1_)"/><path d="m308.6 218.9-20.4 3.4c.9-4.9 1.4-9.2 1.4-12.7 0-13.8-6.5-20.7-19.5-20.7-9.4 0-15.9 3.7-19.7 11.1s-6.6 21.8-8.4 43.4c9.4-8.2 19.1-12.2 29.2-12.2 13.2 0 24.1 4.6 32.8 13.8s13 20.8 13 34.8c0 16.9-5.1 30.3-15.3 40.4s-23.8 15.2-40.8 15.2c-43.7 0-65.6-25.6-65.6-76.8 0-24.9 6.3-44.8 18.8-59.6s29.4-22.2 50.5-22.2c29.7 0 44.6 11.7 44.6 35.2-.2 1.8-.3 4.2-.6 6.9zm-50.6 27.9c-11.8 0-17.6 11.8-17.6 35.5 0 27.2 5.5 40.8 16.6 40.8s16.2-14.4 16.2-43.1c0-22.1-5.1-33.2-15.2-33.2z" fill="#fff"/></g></g></svg>