<svg id="Layer_2_00000158029547047143849960000003170337433660088482_" enable-background="new 0 0 512 512" viewBox="0 0 512 512" xmlns="http://www.w3.org/2000/svg" xmlns:xlink="http://www.w3.org/1999/xlink"><linearGradient id="SVGID_1_" gradientTransform="matrix(1 0 0 -1 0 512)" gradientUnits="userSpaceOnUse" x1="80.14" x2="481.48" y1="417.55" y2="53.27"><stop offset="0" stop-color="#883acc"/><stop offset="1" stop-color="#a81ac6"/></linearGradient><g id="Layer_1-2"><g id="_3"><path d="m506 258.6c33.4 169.2-79.2 278.9-248.3 248.3-134.9-24.4-298.6-120.7-248.3-248.3 40.2-101.9 155.9-209 248.3-248.3 126.2-53.7 221.7 113.7 248.3 248.3z" fill="url(#SVGID_1_)"/><path d="m199.2 282.2 20.6-1.1c-1.7 5.9-2.7 11.2-2.9 15.8-.8 16.4 7.9 24.6 25.9 24.6s26.6-10 26.6-30-10.6-30.3-31.8-30.3l-12.1.2v-18.1l8.8.1c22.3 0 33.5-9.4 33.5-28.3 0-16.4-7.9-24.6-23.7-24.6s-23.4 7.2-23.4 21.7c0 3.5.4 7.6 1.4 12.2l-20.6-4.3c0-29 16.9-43.5 50.5-43.5 38.9 0 58.3 13.2 58.3 39.8 0 17.4-11 29.2-32.9 35.4 24.9 5.7 37.3 18.6 37.3 38.6 0 29.9-20.7 44.8-62.1 44.8-36.8 0-55.2-12.4-55.2-37.1-.1-4.5.6-9.9 1.8-15.9z" fill="#fff"/></g></g></svg>