<svg xmlns="http://www.w3.org/2000/svg" xmlns:xlink="http://www.w3.org/1999/xlink" width="1080" zoomAndPan="magnify" viewBox="0 0 810 809.999993" height="1080" preserveAspectRatio="xMidYMid meet" version="1.0"><defs><clipPath id="73f35785a7"><path d="M 60.382812 262.1875 L 744 262.1875 L 744 455 L 60.382812 455 Z M 60.382812 262.1875 " clip-rule="nonzero"/></clipPath></defs><g clip-path="url(#73f35785a7)"><path fill="#e9bcff" d="M 48.652344 267.804688 C 48.28125 268.304688 48.230469 268.859375 48.46875 269.441406 C 47.042969 271.074219 43.773438 269.808594 43.21875 272.816406 C 38.421875 277.589844 40.238281 282.46875 43.089844 287.292969 C 51.105469 300.796875 61.152344 312.714844 71.9375 324.027344 C 110.597656 364.507812 155.929688 395.046875 207.140625 417.855469 C 296.539062 457.703125 388.8125 463.214844 483.40625 443.753906 C 527.261719 434.734375 568.714844 418.226562 609.40625 399.792969 C 633.324219 388.953125 656.503906 376.71875 680 365.035156 C 680.660156 364.242188 681.292969 363.453125 681.953125 362.660156 C 683.113281 362.609375 684.40625 362.214844 685.355469 362.636719 C 685.355469 362.636719 685.355469 362.636719 685.378906 362.660156 C 686.117188 363.003906 685.617188 364.058594 684.773438 364.480469 C 680.210938 373.710938 673.855469 381.675781 667.078125 389.296875 C 662.4375 394.519531 658.324219 399.925781 655.898438 406.515625 C 645.824219 417.671875 645.480469 429.617188 654.449219 440.007812 C 682.425781 429.222656 699.488281 407.042969 714.996094 383.074219 C 720.769531 374.160156 727.125 365.667969 733.347656 357.070312 C 748.277344 336.5 744.953125 338.636719 736.699219 319.675781 C 734.851562 315.429688 732.058594 311.6875 728.894531 308.257812 C 727.730469 306.992188 726.546875 305.9375 724.726562 305.9375 C 722.351562 301.21875 717.921875 301.164062 713.597656 301.324219 C 700.753906 301.796875 687.9375 302.429688 675.097656 303.011719 C 672.40625 301.535156 669.609375 301.980469 666.816406 302.5625 C 664.179688 300.980469 661.355469 301.480469 658.5625 301.851562 C 656.875 300.425781 654.765625 300.953125 652.839844 300.691406 C 626.757812 297.023438 601.46875 290.484375 577.363281 279.644531 C 575.546875 278.828125 573.671875 278.167969 571.828125 277.429688 C 569.636719 276.535156 567.160156 275.503906 565.417969 277.5625 C 564.101562 279.117188 564.46875 281.941406 565.628906 283.230469 C 570.746094 288.980469 571.511719 296.917969 575.96875 302.90625 C 577.945312 305.570312 580.847656 307.203125 583.824219 308.8125 C 606.742188 321.339844 631.242188 329.460938 656.636719 335.105469 C 658.902344 335.605469 661.304688 335.761719 663.386719 336.710938 C 665.8125 337.820312 665.128906 339.878906 663.914062 341.695312 C 661.277344 341.378906 659.40625 342.433594 658.191406 344.730469 C 655.738281 344.914062 653.367188 345.285156 652.125 347.839844 C 651.519531 347.550781 651.125 347.734375 650.941406 348.367188 C 648.59375 348.472656 646.429688 348.949219 645.164062 351.242188 C 643.582031 351.664062 641.921875 351.875 640.445312 352.5625 C 624.226562 360 608.140625 367.699219 591.84375 374.949219 C 577.046875 381.542969 562.070312 387.660156 547.171875 393.964844 C 543.03125 395.152344 538.863281 396.179688 534.800781 397.523438 C 495.191406 410.367188 454.632812 418.25 412.996094 420.046875 C 398.121094 420.679688 383.246094 420.863281 368.375 421.230469 C 365.550781 419.648438 362.652344 420.28125 359.726562 420.863281 C 357.0625 419.28125 354.292969 419.835938 351.496094 420.363281 C 349.070312 418.671875 346.433594 419.386719 343.824219 419.648438 C 342.320312 418.382812 340.660156 418.460938 338.945312 419.070312 C 338.363281 418.648438 337.785156 418.621094 337.175781 419.015625 C 335.488281 417.644531 333.40625 418.121094 331.507812 417.804688 C 322.121094 416.195312 312.496094 416.273438 303.289062 413.503906 C 302.472656 414.269531 299.757812 414.664062 303.078125 416.0625 C 305.292969 417.011719 305.425781 417.671875 304.820312 418.226562 C 304.292969 418.699219 303.210938 419.097656 302.421875 419.492188 C 272.9375 413.480469 244.535156 403.984375 216.742188 392.621094 C 214.261719 391.328125 211.757812 390.035156 209.277344 388.742188 C 194.457031 381.015625 179.609375 373.289062 164.789062 365.589844 C 164.5 364.957031 164.078125 364.535156 163.550781 364.296875 C 163.179688 364.136719 162.785156 364.058594 162.335938 364.058594 C 161.863281 363.03125 161.046875 362.554688 159.9375 362.582031 C 159.488281 361.527344 158.671875 361.054688 157.539062 361.105469 C 157.117188 360.023438 156.296875 359.550781 155.136719 359.601562 C 154.714844 358.523438 153.925781 357.992188 152.765625 358.074219 C 152.371094 356.964844 151.578125 356.464844 150.417969 356.542969 L 150.390625 356.515625 C 150.023438 355.4375 149.230469 354.910156 148.097656 354.988281 L 148.042969 354.960938 C 147.332031 354.40625 146.566406 353.878906 145.777344 353.40625 L 145.699219 353.351562 C 145.328125 352.273438 144.589844 351.742188 143.429688 351.796875 L 143.351562 351.742188 C 142.980469 350.664062 142.242188 350.136719 141.082031 350.1875 L 141.003906 350.136719 C 141.003906 350.136719 140.976562 350.109375 140.976562 350.109375 C 140.976562 350.109375 141.003906 350.136719 141.003906 350.136719 C 140.660156 349.027344 139.894531 348.5 138.734375 348.554688 L 138.683594 348.527344 C 138.339844 347.417969 137.574219 346.890625 136.414062 346.945312 L 136.386719 346.917969 C 136.019531 345.8125 135.253906 345.257812 134.09375 345.285156 C 127.34375 339.824219 120.617188 334.367188 113.867188 328.90625 C 109.464844 327.167969 106.429688 323.605469 103.027344 320.574219 C 103.160156 320.046875 103.398438 319.625 103.6875 319.253906 C 104.136719 318.675781 104.71875 318.28125 105.507812 318.042969 C 103.1875 315.484375 101.050781 312.742188 97.703125 311.398438 C 96.648438 311.078125 95.671875 310.632812 94.90625 309.789062 C 95.828125 310.316406 96.753906 310.867188 97.703125 311.398438 C 97.121094 310.421875 96.460938 309.578125 95.222656 309.761719 C 94.90625 308.046875 93.824219 307.019531 92.242188 306.386719 C 92.058594 305.277344 91.480469 304.59375 90.292969 304.539062 C 89.816406 303.484375 89.183594 302.667969 87.945312 302.535156 C 87.785156 301.980469 87.496094 301.558594 86.917969 301.324219 C 85.097656 298.421875 82.777344 296.046875 79.875 294.230469 C 78.476562 292.25 77.132812 290.21875 74.839844 289.140625 C 74.417969 287.558594 73.125 286.714844 71.9375 285.789062 C 66.453125 277.984375 59.570312 271.234375 55.375 261.976562 C 53.082031 264.71875 49.230469 264.246094 48.652344 267.804688 Z M 651.28125 350.320312 C 651.257812 350.320312 651.257812 350.320312 651.230469 350.320312 C 651.230469 350.347656 651.257812 350.347656 651.257812 350.347656 C 651.230469 350.347656 651.203125 350.320312 651.203125 350.320312 C 651.203125 350.320312 651.230469 350.320312 651.230469 350.320312 C 651.230469 350.292969 651.230469 350.265625 651.203125 350.242188 C 651.257812 350.265625 651.257812 350.292969 651.28125 350.320312 Z M 135.992188 353.351562 C 136.152344 353.511719 136.308594 353.667969 136.46875 353.828125 C 136.414062 353.800781 136.363281 353.773438 136.308594 353.75 C 136.152344 353.644531 135.992188 353.539062 135.835938 353.40625 C 135.859375 353.40625 135.914062 353.378906 135.992188 353.351562 Z M 164.632812 365.589844 C 164.632812 365.617188 164.605469 365.617188 164.605469 365.640625 C 164.554688 365.695312 164.527344 365.773438 164.472656 365.828125 L 164.289062 366.011719 L 164.605469 365.617188 C 164.605469 365.589844 164.578125 365.589844 164.578125 365.5625 C 164.578125 365.589844 164.605469 365.589844 164.632812 365.589844 Z M 135.015625 353.722656 C 135.28125 353.617188 135.542969 353.511719 135.78125 353.433594 C 135.941406 353.539062 136.097656 353.644531 136.257812 353.75 C 135.886719 353.5625 135.464844 353.539062 135.015625 353.722656 Z M 137.285156 354.511719 C 137.46875 354.644531 137.65625 354.777344 137.8125 354.910156 C 137.8125 354.933594 137.839844 354.933594 137.839844 354.960938 C 137.65625 354.804688 137.46875 354.644531 137.285156 354.511719 Z M 53.6875 285.132812 C 53.664062 285.132812 53.636719 285.105469 53.609375 285.105469 C 53.609375 285.105469 53.582031 285.078125 53.582031 285.078125 C 53.582031 285.050781 53.558594 285.027344 53.558594 285 C 53.609375 285.027344 53.636719 285.078125 53.6875 285.132812 Z M 56.140625 288.585938 C 56.140625 288.636719 56.140625 288.691406 56.195312 288.71875 C 56.195312 288.664062 56.140625 288.613281 56.140625 288.585938 Z M 93.191406 309.601562 C 93.007812 309.683594 92.824219 309.789062 92.640625 309.945312 C 92.613281 309.8125 92.585938 309.683594 92.558594 309.550781 C 92.769531 309.578125 92.980469 309.578125 93.191406 309.601562 Z M 88.472656 303.773438 C 88.183594 303.5625 87.972656 303.246094 87.839844 302.851562 C 87.839844 302.851562 87.839844 302.851562 87.867188 302.851562 C 88.023438 303.222656 88.207031 303.539062 88.472656 303.773438 Z M 88.472656 303.773438 " fill-opacity="1" fill-rule="nonzero"/></g><path fill="#e9bcff" d="M 145.617188 353.351562 C 146.382812 353.878906 147.148438 354.382812 147.886719 354.910156 C 147.515625 353.800781 146.753906 353.300781 145.617188 353.351562 Z M 145.617188 353.351562 " fill-opacity="1" fill-rule="nonzero"/></svg>