<svg id="Layer_1" enable-background="new 0 0 512 512" height="512" viewBox="0 0 512 512" width="512" xmlns="http://www.w3.org/2000/svg"><g><path clip-rule="evenodd" d="m198.627 398.169-83.444-250.333c8.616-.453 17.232-1.359 25.396-2.266 8.616-1.359 9.522-7.71 9.069-10.881-.453-2.726-3.172-8.616-10.429-7.71-22.216 1.813-42.175 2.719-60.767 2.719-2.266 0-4.992 0-7.257 0 40.363-58.955 107.934-97.95 185.035-97.95 55.775 0 106.567 20.404 146.016 54.416-12.248 2.265-24.935 10.882-28.575 23.13-10.873 35.372 10.437 58.502 20.42 73.914 10.874 17.232 14.968 35.832 16.779 55.33 2.266 27.208-9.077 61.673-16.326 87.983l-23.591 70.289-82.991-248.974c8.624-.453 17.232-1.359 25.403-2.266 9.062-1.359 9.515-7.71 9.062-10.881 0-2.726-2.719-8.163-10.421-7.71-22.231 2.266-41.729 2.719-60.321 2.719s-38.543-.453-60.768-2.719c-7.257-.453-9.975 4.984-10.428 7.71 0 3.171.453 9.522 9.069 10.881 7.71.906 15.874 1.813 23.583 2.266l36.277 98.864zm281.627-141.939c0 80.257-42.637 151-106.583 190.464l52.167-148.749c10.421-28.122 22.216-56.689 29.012-86.163 3.625-16.326 5.453-32.652 5-49.432 13.139 28.567 20.404 60.314 20.404 93.88zm-224.024 224.024c-22.231 0-43.089-3.172-63.04-9.077l65.759-197.261 71.195 193.636c-23.59 8.155-48.073 12.702-73.914 12.702zm-103.855-25.404c-71.657-37.636-120.628-112.456-120.628-198.62 0-30.395 5.89-58.962 16.771-85.264zm103.855-454.85c-141.5 0-256.23 114.73-256.23 256.23 0 141.033 114.73 255.77 256.23 255.77 141.033 0 255.77-114.737 255.77-255.77 0-141.5-114.737-256.23-255.77-256.23z" fill="#0ca3d1" fill-rule="evenodd"/></g></svg>