<svg id="Layer" viewBox="0 0 64 64" xmlns="http://www.w3.org/2000/svg"><g id="Calculate"><rect fill="#8fcaff" height="59" rx="7" width="44" x="1"/><g fill="#70b2f9"><rect height="16" rx="1" width="34" x="6" y="5"/><rect height="8" rx="2" width="8" x="7" y="24"/><rect height="8" rx="2" width="8" x="19" y="24"/><rect height="8" rx="2" width="8" x="31" y="24"/><rect height="8" rx="2" width="8" x="7" y="35"/><rect height="8" rx="2" width="8" x="19" y="35"/><rect height="8" rx="2" width="8" x="7" y="46"/><rect height="8" rx="2" width="8" x="19" y="46"/></g><path d="m62 30h-4c-.55273438 0-1 .44726562-1 1s.44726562 1 1 1h1.5859375l-3.78320312 3.78320312-5.35546875-2.67773438c-.35449219-.17578125-.78222656-.12792969-1.08789062.12597656l-6 5c-.42382812.35351562-.48144531.984375-.12792969 1.40917969.19824219.23730469.48242188.359375.76953125.359375.22558594 0 .45214844-.07617188.63964844-.23144531l5.49707031-4.58203125 5.41503906 2.70800781c.38475785.19140625.84863281.11816406 1.15429688-.1875l4.29296875-4.29296875v1.5859375c0 .55273438.44726562 1 1 1s1-.44726562 1-1v-4c0-.55273438-.44726562-1-1-1z" fill="#ff6675"/><path d="m36 18h-2c-.55273438 0-1-.44726562-1-1s.44726562-1 1-1h2c.55273438 0 1 .44726562 1 1s-.44726562 1-1 1z" fill="#5693db"/><path d="m30 18h-2c-.55273438 0-1-.44726562-1-1s.44726562-1 1-1h2c.55273438 0 1 .44726562 1 1s-.44726562 1-1 1z" fill="#5693db"/><path d="m24 18h-2c-.55273438 0-1-.44726562-1-1s.44726562-1 1-1h2c.55273438 0 1 .44726562 1 1s-.44726562 1-1 1z" fill="#5693db"/><path d="m62 52c-.55224609 0-1 .44775391-1 1 0 .6953125-.92822266 1.48779297-2.42529297 2.06933594-1.52978516.60009766-3.50927734.93066406-5.57470703.93066406s-4.04492188-.33056641-5.578125-.93212891c-1.49365234-.58007812-2.421875-1.37255859-2.421875-2.06787109 0-.55224609-.44775391-1-1-1s-1 .44775391-1 1v6c0 2.85058594 4.29882812 5 10 5s10-2.14941406 10-5v-6c0-.55224609-.44775391-1-1-1z" fill="#ef8e2e"/><path d="m47 59v-4.11175537c-1.24182129-.55780029-2-1.26171875-2-1.88824463 0-.55224609-.44775391-1-1-1s-1 .44775391-1 1v6c0 1.36364746.99151611 2.56317139 2.64190674 3.44732666.87683105-.99475098 1.35809326-2.16040039 1.35809326-3.44732666z" fill="#e06817"/><path d="m62 46c-.55224609 0-1 .44775391-1 1 0 .6953125-.92822266 1.48779297-2.42529297 2.06933594-1.52978516.60009766-3.50927734.93066406-5.57470703.93066406s-4.04492188-.33056641-5.578125-.93212891c-1.49365234-.58007812-2.421875-1.37255859-2.421875-2.06787109 0-.55224609-.44775391-1-1-1s-1 .44775391-1 1v6c0 2.85058594 4.29882812 5 10 5s10-2.14941406 10-5v-6c0-.55224609-.44775391-1-1-1z" fill="#f9a93e"/><path d="m47 53v-4.11175537c-1.24182129-.55780029-2-1.26171875-2-1.88824463 0-.55224609-.44775391-1-1-1s-1 .44775391-1 1v6c0 1.70471191 1.54473877 3.1541748 4 4.04760742z" fill="#f19533"/><ellipse cx="53" cy="47" fill="#ffcd5f" rx="10" ry="5"/><path d="m43 47c0 1.70471191 1.54473877 3.1541748 4 4.04760742v-8.09521484c-2.45526123.89343262-4 2.34289551-4 4.04760742z" fill="#f9b950"/><path d="m44 52c-.55224609 0-1 .44775391-1 1 0 .6953125-.92822266 1.48779297-2.42529297 2.06933594-1.52978516.60009766-3.50927734.93066406-5.57470703.93066406s-4.04492188-.33056641-5.578125-.93212891c-1.49365234-.58007812-2.421875-1.37255859-2.421875-2.06787109 0-.55224609-.44775391-1-1-1s-1 .44775391-1 1v6c0 2.85058594 4.29882812 5 10 5s10-2.14941406 10-5v-6c0-.55224609-.44775391-1-1-1z" fill="#e57828"/><path d="m44 46c-.55224609 0-1 .44775391-1 1 0 .6953125-.92822266 1.48779297-2.42529297 2.06933594-1.52978516.60009766-3.50927734.93066406-5.57470703.93066406s-4.04492188-.33056641-5.578125-.93212891c-1.49365234-.58007812-2.421875-1.37255859-2.421875-2.06787109 0-.55224609-.44775391-1-1-1s-1 .44775391-1 1v6c0 2.85058594 4.29882812 5 10 5s10-2.14941406 10-5v-6c0-.55224609-.44775391-1-1-1z" fill="#ef8e2e"/><path d="m44 40c-.55224609 0-1 .44775391-1 1 0 .6953125-.92822266 1.48779297-2.42529297 2.06933594-1.52978516.60009766-3.50927734.93066406-5.57470703.93066406s-4.04492188-.33056641-5.578125-.93212891c-1.49365234-.58007812-2.421875-1.37255859-2.421875-2.06787109 0-.55224609-.44775391-1-1-1s-1 .44775391-1 1v6c0 2.85058594 4.29882812 5 10 5s10-2.14941406 10-5v-6c0-.55224609-.44775391-1-1-1z" fill="#f9a93e"/><ellipse cx="35" cy="41" fill="#ffcd5f" rx="10" ry="5"/></g></svg>