<svg id="Layer_1" enable-background="new 0 0 512 512" height="512" viewBox="0 0 512 512" width="512" xmlns="http://www.w3.org/2000/svg"><g><g id="XMLID_9_"><path d="m67.68 251.55c-2.12 89.42 58.43 165.75 141.56 186.97l-35.58 11.61 39.649 35.61c-114.349-21.1-197.659-124.64-190.539-243.68l-18.77-3.96 22.26-24.79 35.609-39.65 11.611 35.57v.01l15.27 46.76z" fill="#ab695d"/><path d="m251.549 444.32c89.411 2.12 165.741-58.43 186.971-141.55l11.61 35.57 35.61-39.65c-21.1 114.35-124.64 197.66-243.68 190.54l-3.96 18.77-24.79-22.26-39.649-35.61 35.58-11.61 46.759-15.26z" fill="#9be69d"/><path d="m444.32 260.45c2.12-89.42-58.43-165.75-141.56-186.97l35.58-11.61-39.65-35.61c114.35 21.1 197.66 124.64 190.54 243.68l18.77 3.96-22.26 24.79-35.61 39.65-11.61-35.57v-.01l-15.27-46.76z" fill="#fe646f"/><path d="m260.45 67.68c-89.41-2.12-165.74 58.43-186.97 141.55l-11.611-35.57-35.609 39.65c21.1-114.35 124.64-197.66 243.68-190.54l3.96-18.77 24.79 22.26 39.649 35.61-35.58 11.61-46.759 15.26z" fill="#62dbfb"/><path d="m256 112.59c79.199 0 143.4 64.21 143.4 143.41s-64.201 143.41-143.4 143.41c-79.2 0-143.4-64.21-143.4-143.41s64.2-143.41 143.4-143.41z" fill="#fee45a"/></g></g><g><g><path d="m73.482 213.238c-.326 0-.659-.041-.991-.125-2.142-.546-3.433-2.725-2.887-4.865 10.585-41.46 35.214-78.725 69.354-104.928 34.652-26.598 77.838-40.673 121.594-39.638 2.21.052 3.957 1.885 3.906 4.094-.054 2.208-1.901 3.928-4.095 3.904-86.372-2.034-161.661 54.926-183.008 138.546-.46 1.809-2.087 3.012-3.873 3.012z" fill="#231f20"/></g><g><path d="m26.266 217.312c-.24 0-.484-.021-.73-.067-2.172-.401-3.607-2.487-3.207-4.659 21.701-117.639 128.268-200.977 247.845-193.813 2.205.131 3.887 2.026 3.755 4.231s-2.037 3.889-4.231 3.754c-115.57-6.904-218.531 73.606-239.502 187.278-.356 1.928-2.038 3.276-3.93 3.276z" fill="#231f20"/></g><g><path d="m444.32 264.458c-.032 0-.064 0-.097-.001-2.21-.053-3.956-1.885-3.905-4.094 2.049-86.405-54.924-161.661-138.546-183.007-2.141-.546-3.433-2.724-2.888-4.865.548-2.14 2.725-3.435 4.867-2.886 41.459 10.583 78.724 35.213 104.928 69.354 26.598 34.653 40.674 77.835 39.638 121.594-.051 2.176-1.832 3.905-3.997 3.905z" fill="#231f20"/></g><g><path d="m489.236 273.936c-.08 0-.16-.002-.241-.007-2.205-.131-3.887-2.026-3.755-4.231 6.906-115.568-73.605-218.532-187.277-239.503-2.173-.401-3.608-2.487-3.208-4.659.401-2.173 2.492-3.61 4.659-3.208 117.638 21.702 200.959 128.253 193.813 247.847-.127 2.123-1.891 3.761-3.991 3.761z" fill="#231f20"/></g><g><path d="m255.961 448.372c-1.505 0-3.01-.018-4.515-.053-2.21-.052-3.956-1.885-3.903-4.094.052-2.209 1.897-3.946 4.092-3.904 86.394 2.056 161.662-54.925 183.009-138.547.547-2.14 2.721-3.435 4.865-2.886 2.141.546 3.433 2.725 2.887 4.865-10.585 41.461-35.215 78.725-69.354 104.929-33.461 25.681-74.876 39.69-117.081 39.69z" fill="#231f20"/></g><g><path d="m256.109 493.654c-4.742 0-9.495-.141-14.283-.427-2.205-.131-3.887-2.026-3.755-4.231s2.029-3.888 4.231-3.754c115.582 6.905 218.531-73.605 239.502-187.278.4-2.173 2.491-3.612 4.659-3.208 2.173.401 3.608 2.487 3.208 4.659-20.833 112.928-119.87 194.239-233.562 194.239z" fill="#231f20"/></g><g><path d="m209.241 442.52c-.327 0-.66-.041-.991-.125-41.461-10.583-78.726-35.213-104.93-69.354-26.598-34.653-40.675-77.835-39.639-121.594.053-2.208 1.92-3.928 4.095-3.904 2.209.053 3.956 1.885 3.904 4.094-2.048 86.405 54.925 161.661 138.547 183.007 2.14.546 3.433 2.724 2.887 4.865-.462 1.807-2.089 3.011-3.873 3.011z" fill="#231f20"/></g><g><path d="m213.316 489.74c-.241 0-.485-.021-.73-.067-117.639-21.703-200.959-128.254-193.814-247.848.132-2.205 2.051-3.881 4.231-3.754 2.205.131 3.887 2.026 3.755 4.231-6.907 115.568 73.606 218.532 187.278 239.503 2.173.401 3.608 2.487 3.208 4.659-.354 1.928-2.035 3.276-3.928 3.276z" fill="#231f20"/></g><g><path d="m256 403.405c-81.279 0-147.404-66.126-147.404-147.406 0-81.279 66.125-147.404 147.404-147.404s147.404 66.125 147.404 147.404c0 81.28-66.125 147.406-147.404 147.406zm0-286.81c-76.868 0-139.404 62.537-139.404 139.404 0 76.869 62.536 139.406 139.404 139.406 76.867 0 139.404-62.538 139.404-139.406s-62.537-139.404-139.404-139.404z" fill="#231f20"/></g><g><g><g><path d="m256 259.999c-31.582 0-57.275-20.408-57.275-45.493s25.693-45.493 57.275-45.493 57.275 20.408 57.275 45.493c0 2.209-1.791 4-4 4s-4-1.791-4-4c0-20.673-22.105-37.493-49.275-37.493-27.171 0-49.275 16.819-49.275 37.493s22.104 37.493 49.275 37.493c2.209 0 4 1.791 4 4s-1.791 4-4 4z" fill="#231f20"/></g><g><path d="m256 342.988c-31.582 0-57.275-20.408-57.275-45.494 0-2.209 1.791-4 4-4s4 1.791 4 4c0 20.674 22.104 37.494 49.275 37.494 27.17 0 49.275-16.82 49.275-37.494 0-20.675-22.105-37.495-49.275-37.495-2.209 0-4-1.791-4-4s1.791-4 4-4c31.582 0 57.275 20.409 57.275 45.495s-25.693 45.494-57.275 45.494z" fill="#231f20"/></g></g><g><path d="m268.273 178.128c-2.209 0-4-1.791-4-4v-33.39c0-2.209 1.791-4 4-4s4 1.791 4 4v33.39c0 2.209-1.791 4-4 4z" fill="#231f20"/></g><g><path d="m243.723 178.128c-2.209 0-4-1.791-4-4v-33.39c0-2.209 1.791-4 4-4s4 1.791 4 4v33.39c0 2.209-1.791 4-4 4z" fill="#231f20"/></g><g><path d="m268.273 375.26c-2.209 0-4-1.791-4-4v-33.388c0-2.209 1.791-4 4-4s4 1.791 4 4v33.388c0 2.209-1.791 4-4 4z" fill="#231f20"/></g><g><path d="m243.723 375.26c-2.209 0-4-1.791-4-4v-33.388c0-2.209 1.791-4 4-4s4 1.791 4 4v33.388c0 2.209-1.791 4-4 4z" fill="#231f20"/></g></g><g><path d="m256 92.744c-.973 0-1.928-.355-2.673-1.024-1.063-.955-1.536-2.405-1.241-3.803l4.451-21.065c.458-2.161 2.582-3.543 4.741-3.086 2.161.457 3.543 2.579 3.087 4.741l-3.02 14.286 69.167-22.573-54.13-48.614-2.534 11.988c-.457 2.161-2.576 3.545-4.74 3.086-2.161-.457-3.543-2.579-3.086-4.741l3.966-18.766c.295-1.398 1.313-2.532 2.672-2.976s2.851-.129 3.914.827l64.438 57.872c1.063.955 1.536 2.404 1.241 3.803-.295 1.398-1.314 2.533-2.673 2.976l-82.34 26.872c-.406.132-.824.197-1.24.197z" fill="#231f20"/></g><g><path d="m450.129 342.338c-.275 0-.552-.028-.826-.086-1.398-.295-2.533-1.314-2.977-2.672l-26.875-82.337c-.442-1.359-.127-2.851.828-3.914.954-1.063 2.4-1.534 3.803-1.241l21.067 4.45c2.161.457 3.543 2.579 3.087 4.74-.457 2.161-2.574 3.546-4.741 3.087l-14.288-3.018 22.575 69.165 48.612-54.129-11.988-2.533c-2.161-.457-3.543-2.579-3.088-4.74.458-2.161 2.574-3.546 4.742-3.087l18.767 3.964c1.397.295 2.532 1.314 2.976 2.673.443 1.358.128 2.85-.827 3.914l-57.872 64.438c-.766.853-1.852 1.326-2.975 1.326z" fill="#231f20"/></g><g><path d="m238.098 512c-.973 0-1.928-.355-2.673-1.024l-64.438-57.873c-1.063-.955-1.535-2.404-1.24-3.803.297-1.398 1.314-2.533 2.672-2.976l82.341-26.872c1.358-.443 2.851-.128 3.914.827s1.536 2.405 1.24 3.803l-4.452 21.065c-.456 2.162-2.58 3.545-4.74 3.086-2.161-.457-3.543-2.579-3.086-4.741l3.018-14.286-69.166 22.572 54.131 48.615 2.533-11.989c.458-2.161 2.578-3.543 4.741-3.086 2.161.457 3.542 2.58 3.086 4.741l-3.967 18.766c-.295 1.398-1.314 2.532-2.673 2.976-.407.135-.825.199-1.241.199z" fill="#231f20"/></g><g><path d="m88.745 259.999c-.274 0-.552-.028-.827-.086l-21.068-4.45c-2.16-.457-3.542-2.579-3.086-4.74.458-2.161 2.572-3.547 4.741-3.087l14.288 3.018-22.576-69.165-48.61 54.129 11.986 2.532c2.161.457 3.542 2.579 3.087 4.74-.457 2.162-2.58 3.546-4.741 3.087l-18.764-3.964c-1.397-.295-2.532-1.314-2.976-2.673-.443-1.358-.128-2.85.827-3.914l57.869-64.438c.954-1.063 2.405-1.537 3.802-1.241 1.398.295 2.533 1.314 2.977 2.672l26.874 82.337c.443 1.359.128 2.851-.827 3.914-.768.856-1.854 1.329-2.976 1.329z" fill="#231f20"/></g></g></svg>