<svg id="Layer_1" height="512" viewBox="0 0 256 256" width="512" xmlns="http://www.w3.org/2000/svg"><g><path d="m161.316 53.108 8.725-51.54-42.041 4.084-42.041-4.084 8.726 51.54c-28.005 24.919-47.486 76.085-47.486 108.833 0 44.626 36.176 80.801 80.802 80.801 44.625 0 80.801-36.176 80.801-80.801-.001-32.748-19.481-83.914-47.486-108.833z" fill="#63bce7"/><g><path d="m161.316 53.108 8.725-51.54-15.25 1.482-8.475 50.058c28.005 24.919 47.486 76.085 47.486 108.833 0 42.096-32.194 76.657-73.301 80.442 2.471.228 4.97.359 7.5.359 44.625 0 80.801-36.176 80.801-80.802 0-32.747-19.481-83.913-47.486-108.832z" fill="#63e2e7"/></g><g><path d="m62.198 161.94c0-32.747 19.481-83.913 47.486-108.833l-8.475-50.057-15.25-1.482 8.726 51.54c-28.006 24.919-47.487 76.085-47.487 108.832 0 44.626 36.176 80.802 80.802 80.802 2.53 0 5.029-.132 7.5-.359-41.107-3.786-73.302-38.347-73.302-80.443z" fill="#6377e7"/></g><path d="m165.344 61.411h-74.688c-4.067 0-7.363-3.297-7.363-7.363v-3.32c0-4.067 3.297-7.363 7.363-7.363h74.688c4.067 0 7.363 3.297 7.363 7.363v3.32c0 4.066-3.296 7.363-7.363 7.363z" fill="#f8af23"/><g><path d="m98.293 54.047v-3.32c0-4.066 3.297-7.363 7.363-7.363h-15c-4.067 0-7.363 3.297-7.363 7.363v3.32c0 4.067 3.297 7.363 7.363 7.363h15c-4.067.001-7.363-3.296-7.363-7.363z" fill="#f87023"/></g><g><path d="m157.707 54.047v-3.32c0-4.066-3.297-7.363-7.363-7.363h15c4.067 0 7.363 3.297 7.363 7.363v3.32c0 4.067-3.297 7.363-7.363 7.363h-15c4.067.001 7.363-3.296 7.363-7.363z" fill="#f8d323"/></g><circle cx="128" cy="150.555" fill="#f8af23" r="52.517"/><path d="m44.649 102.455v-40.482h14.361l-28.721-28.721-28.721 28.721h14.361v40.482z" fill="#cecece"/><g><path d="m16.568 61.973 21.221-21.221-7.5-7.5-28.721 28.721h14.361v40.482h15v-40.482z" fill="#afafaf"/></g><path d="m240.071 102.455v-40.482h14.361l-28.721-28.721-28.721 28.721h14.361v40.482z" fill="#cecece"/><g><path d="m225.711 33.252-7.5 7.5 21.221 21.221h-14.361v40.482h15v-40.482h14.361z" fill="#e2e2e2"/></g><g fill="#3f3679"><path d="m20.747 252.932h-19.179c-.828 0-1.5.672-1.5 1.5s.672 1.5 1.5 1.5h19.179c.828 0 1.5-.672 1.5-1.5s-.672-1.5-1.5-1.5z"/><path d="m254.432 252.932h-19.179c-.828 0-1.5.672-1.5 1.5s.672 1.5 1.5 1.5h19.179c.828 0 1.5-.672 1.5-1.5s-.672-1.5-1.5-1.5z"/><path d="m224.39 252.932h-192.78c-.828 0-1.5.672-1.5 1.5s.672 1.5 1.5 1.5h192.78c.828 0 1.5-.672 1.5-1.5s-.672-1.5-1.5-1.5z"/><path d="m1.568 244.242h252.863c.828 0 1.5-.672 1.5-1.5s-.672-1.5-1.5-1.5h-104.466c34.747-9.637 60.337-41.527 60.337-79.302 0-27.663-14.684-72.83-39.287-101.089 1.949-1.627 3.193-4.073 3.193-6.805v-3.319c0-4.888-3.976-8.864-8.863-8.864h-.603l6.779-40.045c.078-.46-.063-.931-.381-1.272s-.775-.52-1.243-.471l-41.897 4.071-41.896-4.07c-.474-.049-.926.13-1.243.471-.318.342-.459.813-.381 1.272l6.779 40.045h-.603c-4.888 0-8.863 3.977-8.863 8.864v3.319c0 2.732 1.244 5.178 3.193 6.806-24.608 28.261-39.288 73.376-39.288 101.087 0 37.774 25.589 69.665 60.337 79.302h-104.467c-.828 0-1.5.672-1.5 1.5s.672 1.5 1.5 1.5zm86.198-240.991 40.089 3.895c.098.01.193.01.291 0l40.089-3.895-6.535 38.612h-67.399zm-2.973 47.477c0-3.233 2.63-5.864 5.863-5.864h74.688c3.233 0 5.863 2.631 5.863 5.864v3.319c0 3.233-2.63 5.864-5.863 5.864h-74.688c-3.233 0-5.863-2.631-5.863-5.864zm-36.095 111.212c0-27.306 14.558-71.876 38.941-99.569.943.343 1.957.54 3.017.54h74.688c1.062 0 2.076-.197 3.021-.542 24.377 27.694 38.937 72.314 38.937 99.571 0 43.728-35.574 79.302-79.302 79.302s-79.302-35.574-79.302-79.302z"/><path d="m128 96.538c-29.785 0-54.017 24.231-54.017 54.017s24.232 54.016 54.017 54.016 54.017-24.231 54.017-54.017-24.232-54.016-54.017-54.016zm0 105.033c-28.131 0-51.017-22.886-51.017-51.017s22.886-51.016 51.017-51.016 51.017 22.886 51.017 51.017-22.886 51.016-51.017 51.016z"/><path d="m133.19 123.507c6.328 0 11.477 5.148 11.477 11.477 0 .828.672 1.5 1.5 1.5s1.5-.672 1.5-1.5c0-7.982-6.494-14.477-14.477-14.477h-3.69v-3.69c0-.828-.672-1.5-1.5-1.5s-1.5.672-1.5 1.5v3.69h-3.69c-7.982 0-14.477 6.494-14.477 14.477s6.494 14.477 14.477 14.477h3.69v28.144h-3.69c-6.328 0-11.477-5.148-11.477-11.477 0-.828-.672-1.5-1.5-1.5s-1.5.672-1.5 1.5c0 7.982 6.494 14.477 14.477 14.477h3.69v3.69c0 .828.672 1.5 1.5 1.5s1.5-.672 1.5-1.5v-3.69h3.69c7.982 0 14.477-6.494 14.477-14.477v-5.19c0-7.982-6.494-14.477-14.477-14.477h-3.69v-22.953h3.69zm0 25.953c6.328 0 11.477 5.148 11.477 11.477v5.19c0 6.328-5.148 11.477-11.477 11.477h-3.69v-28.144zm-6.69-3h-3.69c-6.328 0-11.477-5.148-11.477-11.477s5.148-11.477 11.477-11.477h3.69z"/><path d="m1.568 63.473h12.86v38.982c0 .828.672 1.5 1.5 1.5h28.721c.828 0 1.5-.672 1.5-1.5v-38.982h12.86c.606 0 1.153-.365 1.386-.926s.104-1.206-.325-1.635l-28.72-28.721c-.586-.586-1.535-.586-2.121 0l-28.721 28.721c-.429.429-.558 1.074-.325 1.635s.779.926 1.385.926zm28.721-28.1 25.1 25.1h-10.74c-.828 0-1.5.672-1.5 1.5v38.982h-25.72v-38.982c0-.828-.672-1.5-1.5-1.5h-10.74z"/><path d="m196.99 63.473h12.86v38.982c0 .828.672 1.5 1.5 1.5h28.721c.828 0 1.5-.672 1.5-1.5v-38.982h12.86c.606 0 1.153-.365 1.386-.926s.104-1.206-.325-1.635l-28.721-28.721c-.586-.586-1.535-.586-2.121 0l-28.72 28.721c-.429.429-.558 1.074-.325 1.635s.779.926 1.385.926zm28.721-28.1 25.1 25.1h-10.739c-.828 0-1.5.672-1.5 1.5v38.982h-25.721v-38.982c0-.828-.672-1.5-1.5-1.5h-10.739z"/></g></g></svg>