<svg id="Layer_1" viewBox="0 0 512 512" xmlns="http://www.w3.org/2000/svg" data-name="Layer 1"><g fill-rule="evenodd"><path d="m19.003 11h8.37c4.408 0 8.003 3.595 8.003 8.003v457.622h457.621c4.408 0 8.003 3.595 8.003 8.003v8.37c0 4.408-3.595 8.003-8.003 8.003h-473.994c-4.408 0-8.003-3.595-8.003-8.003v-473.995c0-4.408 3.595-8.003 8.003-8.003z" fill="#7986bf"/><path d="m78.511 421.602c-1.359 3.609-5.387 5.433-8.996 4.074s-5.433-5.387-4.074-8.996l66.238-175.877c1.855-4.927 8.241-6.051 11.702-2.239l56.834 58.438 14.232-55.135c1.59-6.234 10.009-7.08 12.933-1.531l32.504 61.824 49.84-223.89c1.349-6.111 9.397-7.396 12.687-2.27l32.417 50.21 107.788-91.699-7.358.751c-3.836.393-7.264-2.399-7.656-6.234-.393-3.836 2.399-7.264 6.234-7.656l29.656-3.029c4.88-.499 8.709 4.092 7.465 8.75l-7.776 28.7c-.996 3.73-4.829 5.946-8.558 4.949s-5.946-4.829-4.949-8.558l1.898-7.006-113.358 96.438c-3.131 3.126-8.404 2.601-10.822-1.164l-27.68-42.873-50.266 225.799c-1.074 6.528-9.938 8.076-13.071 2.125l-32.945-62.664-12.725 49.299c-1.084 5.423-7.893 7.557-11.847 3.492l-57.983-59.619-62.364 165.59z" fill="#2a93fc"/><path d="m102.215 457.863c-2.914 2.522-7.322 2.203-9.844-.711s-2.203-7.322.711-9.844l114.998-99.768c3.032-2.623 7.726-2.134 10.144 1.066l55.303 73.281 23.716-72.135c1.874-5.764 9.63-6.488 12.648-1.413l17.876 25.256 15.188-81.62c1.167-6.369 9.589-7.774 12.851-2.324l28.489 47.535 14.88-25.835c2.322-4.041 7.886-4.679 11.074-1.367l59.606 61.901-.86-6.477c-.498-3.82 2.195-7.322 6.016-7.82s7.322 2.195 7.82 6.016l3.654 27.53c.615 4.716-3.555 8.602-8.161 7.769l-27.801-4.501c-3.805-.604-6.401-4.179-5.797-7.984s4.179-6.401 7.984-5.797l7.312 1.184-53.4-55.456-16.002 27.783c-2.456 4.808-9.359 5.15-12.199.402l-25.115-41.906-14.832 79.711c-1.091 5.956-8.959 7.844-12.551 2.762l-19.72-27.861-23.519 71.535c-1.624 5.4-8.792 6.801-12.269 2.194l-58.847-77.976-109.354 94.871z" fill="#f23353"/><path d="m215.812 117.026c0 58.428 47.366 105.795 105.795 105.795 19.729 0 38.196-5.402 54.004-14.805 7.224-4.297 16.148-3.181 22.091 2.762l18.895 18.895 17.657-17.657-18.895-18.895c-5.943-5.943-7.058-14.867-2.762-22.091 9.404-15.808 14.805-34.275 14.805-54.004 0-58.429-47.366-105.795-105.795-105.795s-105.795 47.366-105.795 105.795z" fill="#fdb0a0"/><path d="m423.902 222.368 10.352-10.352-18.895-18.895c-5.943-5.943-7.059-14.867-2.762-22.091 9.404-15.808 14.805-34.275 14.805-54.004 0-58.429-47.366-105.795-105.795-105.795-42.581 0-79.281 25.16-96.06 61.422-3.605 10.653-5.56 22.066-5.56 33.936 0 82.596 84.558 133.599 156.826 88.017 7.224-4.297 16.148-3.182 22.091 2.762l24.998 24.998z" fill="#ffcec0"/></g><circle cx="321.606" cy="107.986" fill="#fdb0a0" r="74.84" transform="matrix(.994 -.109 .109 .994 -9.863 35.737)"/><circle cx="321.606" cy="117.025" fill="#f3f3ff" r="74.84" transform="matrix(.707 -.707 .707 .707 11.447 261.685)"/><path d="m462.205 289.63-61.614-61.614c-4.252-4.252-4.252-11.189 0-15.441l16.565-16.565c4.252-4.252 11.189-4.252 15.441 0l61.614 61.614c8.802 8.802 8.802 23.204 0 32.006s-23.204 8.803-32.006 0z" fill="#a34f41" fill-rule="evenodd"/><path d="m408.874 204.292 8.282-8.282.004-.004c4.252-4.248 11.187-4.247 15.438.003l61.614 61.614c7.371 7.371 8.568 18.669 3.593 27.317-8.648 4.975-19.945 3.778-27.316-3.593l-61.614-61.614c-4.252-4.253-4.252-11.189 0-15.441z" fill="#c86f5c" fill-rule="evenodd"/><path d="m286.393 183.075 23.331-104.804c1.349-6.111 9.397-7.396 12.687-2.27l32.417 50.21 37.972-32.304c1.611 4.963 2.72 10.153 3.262 15.51l-37.849 32.199c-3.131 3.126-8.404 2.601-10.822-1.164l-27.68-42.873-20.248 90.956c-4.559-1.411-8.931-3.247-13.071-5.459z" fill="#2a93fc" fill-rule="evenodd"/></svg>