<svg enable-background="new 0 0 512 512" height="512" viewBox="0 0 512 512" width="512" xmlns="http://www.w3.org/2000/svg"><g id="_x34_2_Strategy"><g><path d="m455.988 77.702v270.903c0 8.384-6.796 15.18-15.18 15.18h-369.617c-8.384 0-15.18-6.796-15.18-15.18v-270.903z" fill="#c17d61"/><path d="m81.31 328.366v-215.244c0-5.589 4.531-10.12 10.12-10.12h329.139c5.589 0 10.12 4.531 10.12 10.12v215.244c0 5.589-4.531 10.12-10.12 10.12h-329.139c-5.589 0-10.12-4.531-10.12-10.12z" fill="#f2f0f0"/><path d="m136.785 505.398 58.136-141.615h-54.151l-55.527 134.579c-2.451 6.61 2.439 13.638 9.488 13.638h32.565c4.232 0 8.018-2.634 9.489-6.602z" fill="#f2b816"/><path d="m426.756 498.362-55.527-134.578h-54.151l58.136 141.615c1.471 3.968 5.256 6.602 9.489 6.602h32.565c7.049-.001 11.939-7.029 9.488-13.639z" fill="#f2b816"/><path d="m194.927 363.795-58.138 141.627c-1.467 3.947-5.262 6.578-9.513 6.578h-14.977c4.2 0 7.995-2.631 9.462-6.578l58.139-141.627z" opacity=".08"/><path d="m417.26 512h-15.028c7.084 0 11.941-7.033 9.513-13.662l-55.507-134.544h14.977l55.558 134.544c2.428 6.629-2.48 13.662-9.513 13.662z" opacity=".08"/><path d="m483.695 59.978c0 9.788-7.935 17.723-17.723 17.723h-419.945c-9.788 0-17.723-7.935-17.723-17.723 0-9.788 7.935-17.723 17.723-17.723h419.945c9.788 0 17.723 7.935 17.723 17.723z" fill="#ffce29"/><path d="m483.697 59.998c0 9.766-7.944 17.71-17.71 17.71h-35.014c9.766 0 17.71-7.944 17.71-17.71 0-9.816-7.944-17.76-17.71-17.76h35.014c9.766-.001 17.71 7.944 17.71 17.76z" opacity=".08"/><path d="m287.451 31.452v28.546h-62.904v-28.546c.001-17.371 14.082-31.452 31.452-31.452 17.371 0 31.452 14.081 31.452 31.452z" fill="#ffce29"/><path d="m384.72 177.433c0-.004-.001-.006-.001-.01s.001-.006.001-.01c0-2.721-1.131-5.321-2.965-7.155l-25.836-25.833c-3.953-3.953-10.362-3.953-14.31 0-3.953 3.953-3.953 10.357 0 14.31l8.578 8.578h-35.933c-36.59 0-66.357 29.767-66.357 66.357 0 25.428-20.689 46.117-46.12 46.117h-64.378c-5.589 0-10.12 4.531-10.12 10.12s4.531 10.12 10.12 10.12h64.378c36.59 0 66.359-29.767 66.359-66.357 0-25.428 20.689-46.117 46.117-46.117h35.894l-8.568 8.568c-3.953 3.953-3.953 10.357 0 14.31 3.948 3.953 10.357 3.953 14.31 0l25.746-25.743c2.007-1.947 3.085-4.574 3.085-7.255z" fill="#f96464"/><g><g><path d="m395.18 292.847c1.198 1.199 1.883 2.825 1.883 4.538 0 1.712-.685 3.338-1.883 4.537-2.509 2.509-6.563 2.513-9.075 0l-8.219-8.218-8.262 8.218c-2.397 2.44-6.635 2.44-9.075 0-2.51-2.51-2.512-6.563 0-9.075l8.262-8.219-8.262-8.261c-2.51-2.51-2.512-6.563 0-9.075 2.44-2.44 6.678-2.44 9.075 0l8.262 8.219 8.219-8.219c2.44-2.44 6.678-2.44 9.075 0 2.509 2.51 2.512 6.563 0 9.075l-8.219 8.261z" fill="#6d6d6d"/></g></g><g><g><path d="m223.873 159.822c1.198 1.199 1.883 2.825 1.883 4.538s-.685 3.338-1.883 4.537c-2.509 2.509-6.563 2.513-9.075 0l-8.219-8.218-8.262 8.218c-2.397 2.44-6.635 2.44-9.075 0-2.51-2.51-2.512-6.563 0-9.075l8.262-8.219-8.262-8.261c-2.51-2.51-2.512-6.563 0-9.075 2.44-2.44 6.678-2.44 9.075 0l8.262 8.219 8.219-8.219c2.44-2.44 6.678-2.44 9.075 0 2.51 2.51 2.512 6.563 0 9.075l-8.219 8.261z" fill="#6d6d6d"/></g></g><g><path d="m139.761 244.264c-12.97 0-23.521-10.552-23.521-23.521 0-12.97 10.552-23.521 23.521-23.521 12.972 0 23.523 10.552 23.523 23.521s-10.552 23.521-23.523 23.521zm0-35.185c-6.431 0-11.663 5.234-11.663 11.663s5.232 11.663 11.663 11.663 11.666-5.234 11.666-11.663c-.001-6.429-5.235-11.663-11.666-11.663z" fill="#6d6d6d"/></g></g></g></svg>