<svg id="Layer_1" enable-background="new 0 0 133 133" height="512" viewBox="0 0 133 133" width="512" xmlns="http://www.w3.org/2000/svg" xmlns:xlink="http://www.w3.org/1999/xlink"><linearGradient id="lg1"><stop offset="0" stop-color="#e8effb"/><stop offset="1" stop-color="#adc1e7"/></linearGradient><linearGradient id="SVGID_1_" gradientUnits="userSpaceOnUse" x1="42.233" x2="66.982" xlink:href="#lg1" y1="48.534" y2="71.784"/><linearGradient id="SVGID_2_" gradientUnits="userSpaceOnUse" x1="59.482" x2="45.232" xlink:href="#lg1" y1="64.011" y2="49.761"/><linearGradient id="lg2"><stop offset="0" stop-color="#083f9e"/><stop offset="1" stop-color="#053477"/></linearGradient><linearGradient id="SVGID_3_" gradientTransform="matrix(1 0 .345 1 1702.908 0)" gradientUnits="userSpaceOnUse" x1="-1662.133" x2="-1633.901" xlink:href="#lg2" y1="92.25" y2="119.456"/><linearGradient id="SVGID_4_" gradientTransform="matrix(-1 0 -.345 1 -4346.873 0)" gradientUnits="userSpaceOnUse" x1="-4432.758" x2="-4404.525" xlink:href="#lg2" y1="92.25" y2="119.456"/><linearGradient id="lg3"><stop offset="0" stop-color="#f8a695"/><stop offset="1" stop-color="#fa8d77"/></linearGradient><linearGradient id="SVGID_5_" gradientUnits="userSpaceOnUse" x1="53.701" x2="74.257" xlink:href="#lg3" y1="48.834" y2="70.987"/><linearGradient id="SVGID_6_" gradientUnits="userSpaceOnUse" x1="48.939" x2="66.759" xlink:href="#lg3" y1="45.341" y2="62.513"/><linearGradient id="SVGID_7_" gradientUnits="userSpaceOnUse" x1="47.254" x2="79.404" xlink:href="#lg3" y1="59.208" y2="59.208"/><linearGradient id="SVGID_8_" gradientTransform="matrix(-.51 -.622 .774 -.634 791.051 -8015.283)" gradientUnits="userSpaceOnUse" x1="-7199.792" x2="-7195.934" xlink:href="#lg2" y1="-5642.514" y2="-5642.514"/><linearGradient id="SVGID_9_" gradientTransform="matrix(-.634 -.774 .774 -.634 695.569 -8131.889)" gradientUnits="userSpaceOnUse" x1="-5947.433" x2="-5931.592" xlink:href="#lg2" y1="-5668.552" y2="-5668.552"/><linearGradient id="SVGID_10_" gradientTransform="matrix(-.634 -.774 .774 -.634 695.569 -8131.889)" gradientUnits="userSpaceOnUse" x1="-5939.286" x2="-5934.345" xlink:href="#lg2" y1="-5617.167" y2="-5617.167"/><linearGradient id="SVGID_11_" gradientTransform="matrix(.634 .774 .774 -.634 2761.459 -5608.967)" gradientUnits="userSpaceOnUse" x1="2678.453" x2="2683.394" xlink:href="#lg2" y1="-5617.167" y2="-5617.167"/><linearGradient id="lg4"><stop offset="0" stop-color="#63b1ff"/><stop offset="1" stop-color="#4ea3ea"/></linearGradient><linearGradient id="SVGID_12_" gradientUnits="userSpaceOnUse" x1="26.265" x2="26.399" xlink:href="#lg4" y1="22.619" y2="55.214"/><linearGradient id="SVGID_13_" gradientTransform="matrix(1 -.004 .004 1 22.192 -2.606)" gradientUnits="userSpaceOnUse" x1="10.175" x2="12.137" xlink:href="#lg3" y1="32.997" y2="32.997"/><linearGradient id="SVGID_14_" gradientTransform="matrix(1 -.004 .004 1 22.192 -2.606)" gradientUnits="userSpaceOnUse" x1="10.175" x2="10.353" xlink:href="#lg3" y1="32.101" y2="32.101"/><linearGradient id="SVGID_15_" gradientTransform="matrix(1 -.004 .004 1 22.192 -2.606)" gradientUnits="userSpaceOnUse" x1="-4.263" x2="-2.303" xlink:href="#lg3" y1="32.993" y2="32.993"/><linearGradient id="lg5"><stop offset="0" stop-color="#ffd46a"/><stop offset="1" stop-color="#f4883b"/></linearGradient><linearGradient id="SVGID_16_" gradientTransform="matrix(1 -.004 .004 1 22.192 -2.606)" gradientUnits="userSpaceOnUse" x1="3.936" x2="3.936" xlink:href="#lg5" y1="51.473" y2="63.851"/><linearGradient id="lg6"><stop offset="0" stop-color="#f8a04a"/><stop offset="1" stop-color="#e44d0b"/></linearGradient><linearGradient id="SVGID_17_" gradientTransform="matrix(1 -.004 .004 1 22.192 -2.606)" gradientUnits="userSpaceOnUse" x1="12.505" x2="12.505" xlink:href="#lg6" y1="57.369" y2="55.929"/><linearGradient id="SVGID_18_" gradientTransform="matrix(1 -.004 .004 1 22.192 -2.606)" gradientUnits="userSpaceOnUse" x1="-4.63" x2="-4.63" xlink:href="#lg6" y1="57.188" y2="55.816"/><linearGradient id="SVGID_19_" gradientTransform="matrix(1 -.004 .004 1 22.192 -2.606)" gradientUnits="userSpaceOnUse" x1="4.056" x2="3.825" xlink:href="#lg2" y1="51.943" y2="62.984"/><linearGradient id="SVGID_20_" gradientTransform="matrix(1 -.004 .004 1 22.192 -2.606)" gradientUnits="userSpaceOnUse" x1="3.936" x2="3.936" xlink:href="#lg2" y1="45.561" y2="47.786"/><linearGradient id="SVGID_21_" gradientTransform="matrix(1 -.004 .004 1 22.192 -2.606)" gradientUnits="userSpaceOnUse" x1="3.936" x2="3.936" xlink:href="#lg3" y1="41.44" y2="44.402"/><linearGradient id="SVGID_22_" gradientTransform="matrix(1 -.004 .004 1 22.192 -2.606)" gradientUnits="userSpaceOnUse" x1="6.739" x2="6.739" xlink:href="#lg6" y1="40.915" y2="42.551"/><linearGradient id="SVGID_23_" gradientTransform="matrix(1 -.004 .004 1 22.192 -2.606)" gradientUnits="userSpaceOnUse" x1="1.133" x2="1.133" xlink:href="#lg6" y1="40.915" y2="42.551"/><linearGradient id="SVGID_24_" gradientTransform="matrix(1 -.004 .004 1 22.192 -2.606)" gradientUnits="userSpaceOnUse" x1="3.936" x2="3.936" xlink:href="#lg3" y1="30.657" y2="37.728"/><linearGradient id="lg7"><stop offset="0" stop-color="#213661"/><stop offset="1" stop-color="#081e4b"/></linearGradient><linearGradient id="SVGID_25_" gradientTransform="matrix(1 -.004 .004 1 22.192 -2.606)" gradientUnits="userSpaceOnUse" x1="-5.023" x2="12.73" xlink:href="#lg7" y1="27.793" y2="27.793"/><linearGradient id="SVGID_26_" gradientTransform="matrix(1 -.004 .004 1 22.192 -2.606)" gradientUnits="userSpaceOnUse" x1=".431" x2="1.76" xlink:href="#lg7" y1="32.758" y2="32.758"/><linearGradient id="SVGID_27_" gradientTransform="matrix(1 -.004 .004 1 22.192 -2.606)" gradientUnits="userSpaceOnUse" x1="6.113" x2="7.442" xlink:href="#lg7" y1="32.758" y2="32.758"/><linearGradient id="SVGID_28_" gradientUnits="userSpaceOnUse" x1="109.049" x2="109.183" xlink:href="#lg4" y1="60.24" y2="92.839"/><linearGradient id="SVGID_29_" gradientUnits="userSpaceOnUse" x1="116.636" x2="116.853" xlink:href="#lg3" y1="65.12" y2="65.12"/><linearGradient id="SVGID_30_" gradientUnits="userSpaceOnUse" x1="109.307" x2="108.453" xlink:href="#lg7" y1="70.716" y2="111.524"/><linearGradient id="SVGID_31_" gradientUnits="userSpaceOnUse" x1="109.031" x2="109.031" xlink:href="#lg5" y1="93.866" y2="116.267"/><linearGradient id="SVGID_32_" gradientUnits="userSpaceOnUse" x1="116.306" x2="116.306" xlink:href="#lg6" y1="118.042" y2="105.3"/><linearGradient id="SVGID_33_" gradientUnits="userSpaceOnUse" x1="101.756" x2="101.756" xlink:href="#lg6" y1="108.461" y2="99.672"/><linearGradient id="SVGID_34_" gradientUnits="userSpaceOnUse" x1="109.035" x2="109.035" xlink:href="#lg3" y1="74.311" y2="81.997"/><linearGradient id="SVGID_35_" gradientUnits="userSpaceOnUse" x1="116.636" x2="119.026" xlink:href="#lg3" y1="66.212" y2="66.212"/><linearGradient id="SVGID_36_" gradientUnits="userSpaceOnUse" x1="101.762" x2="99.553" xlink:href="#lg3" y1="66.206" y2="66.206"/><linearGradient id="SVGID_37_" gradientUnits="userSpaceOnUse" x1="109.035" x2="109.035" xlink:href="#lg3" y1="66.339" y2="72.873"/><linearGradient id="SVGID_38_" gradientUnits="userSpaceOnUse" x1="104.763" x2="106.382" xlink:href="#lg7" y1="65.92" y2="65.92"/><linearGradient id="SVGID_39_" gradientUnits="userSpaceOnUse" x1="111.686" x2="113.305" xlink:href="#lg7" y1="65.92" y2="65.92"/><g><g><path d="m127.5741959 83.0451508c-5.3499756 12.3500977-13.6199951 20.5898438-23.3399658 25.9199219-13.3400879 7.3203125-29.4100342 9.1899414-44.5000038 8.7099609-5.2299805-.1699219-10.5100098-.9101563-15.6400146-2.2797852-5.9000244-1.5600586-11.5999756-3.9599609-16.7999268-7.2900391-2.880127-1.840332-5.6101074-3.9599609-8.1401367-6.3901367-1.869873-1.7797852-3.6198721-3.7299805-5.2399893-5.8500977-10.959961-14.3500976-14.3898927-35.6596717-8.8598634-53.6499061 1.4699707-4.7797852 3.5499268-9.2797852 6.119873-13.3798809.5300293-.8500977 1.0900879-1.6899414 1.6600342-2.5102539h.0100098c.0100098-.0297852.0300293-.0600586.0599365-.0898438.6501465-.9301758 1.3300781-1.8398438 2.0500488-2.7202148 6.8900138-8.6298828 16.1099845-14.8696289 26.1199942-17.2998052 10.1300049-2.4599609 20.8499756-1 30.3499794 3.6899419 5.7900391 2.8500977 11.1201172 6.8901367 15.6000977 11.9702148 1.6398926 1.8701172 3.1799316 3.8701172 4.7199707 5.8701172 2.7600098 3.5795898 5.5100098 7.16992 8.8000488 9.9697247.7698975.6699219 1.5799561 1.2900391 2.4299316 1.8598633.4199219.2802734.8300781.5400391 1.2600098.7900391.1899414.1098633.3800049.2202148.5700684.3300781.1098633.050293.2199707.1098633.329834.1801758.710083.3798828 1.4300537.7299805 2.170166 1.0698242 5.6799316 2.5698242 11.8999023 3.9301758 16.5499268 8.3999023l.0899658.090332c7.8600998 7.6396485 8.2199631 22.029789 3.6300049 32.6098672z" fill="url(#SVGID_1_)"/><path d="m123.854866 50.3481522c-13.75 15.0302734-28 29.590332-43.9400635 42.2402344-11.0799561 8.7900391-23.089962 16.6499023-35.8199425 22.8100586-9.1700439-2.4301758-17.8699951-6.8798828-24.9400635-13.6801758 2.8400879-5.3701172 5.7200928-10.7202148 8.6201172-16.0600586 13.4799805-24.7797852 27.5499268-49.2397461 42.1899376-73.3496094.4799805-.800293.9699707-1.6000977 1.4599609-2.4003906 5.7900391 2.8500977 11.1201172 6.8901367 15.6000977 11.9702148 4.5799561 5.2099609 8.3898926 11.4697285 13.5200195 15.8398457.7700195.6699219 1.5799561 1.2900391 2.4299316 1.8598633.5999756.4003906 1.1999512.7700195 1.8300781 1.1201172.1098633.0498047.2199707.1103516.3299561.1801758.7099609.3798828 1.4300537.7299805 2.1700439 1.0698242 5.6799318 2.5703105 11.8999025 3.9301738 16.5499269 8.3999004z" fill="url(#SVGID_2_)"/></g><g><g><g><g><path d="m104.9346008 127.9649963h-11.8333282l-15.25-44.2242813h11.8333282z" fill="url(#SVGID_3_)"/><path d="m21.7258987 127.9649963h11.8333321l15.25-44.2242813h-11.8333321z" fill="url(#SVGID_4_)"/></g><path d="m111.0420685 59.2109261c0 1.7486877-.095787 3.4755135-.2770844 5.1815147-2.5268555 23.4347458-22.0487823 41.7947006-45.9952774 42.5089569-.4797363.0104141-.9595947.021347-1.4394569.021347-1.7591019 0-3.4863167-.0963135-5.1921883-.2774811-23.4454193-2.5373993-41.7945671-22.0593262-42.4982872-45.9948845-.0106726-.4799919-.0213442-.9599838-.0213442-1.4394531 0-1.7591057.0960503-3.4864502.2772188-5.1924515 2.5376577-23.445158 22.0487823-41.7941742 45.9954071-42.498024.4797325-.0109329.9594612-.0213442 1.4391937-.0213442 1.7486916 0 3.4864464.0957899 5.1817818.2769585 23.4454117 2.5379181 41.8051071 22.0489101 42.5088272 45.9954071.010666.4799891.0212098.9594622.0212098 1.4394542z" fill="url(#SVGID_5_)"/><circle cx="63.329" cy="59.208" opacity=".1" r="40.449"/><circle cx="63.329" cy="59.208" fill="#fff" r="38.636"/><circle cx="63.329" cy="59.208" opacity=".05" r="33.797"/><circle cx="63.329" cy="59.208" fill="url(#SVGID_6_)" r="31.623"/><circle cx="63.329" cy="59.208" fill="#fff" r="22.768"/><circle cx="63.329" cy="59.208" fill="url(#SVGID_7_)" r="16.075"/><circle cx="63.329" cy="59.208" fill="#fff" r="7.075"/></g></g></g><g><path d="m112.8448334 19.8418903-41.8801346 34.5847454 1.823143 2.2264748 41.8801346-34.5847454z" fill="url(#SVGID_8_)"/><path d="m73.9273148 45.5801659 8.1182251 9.9141998c.7494812.915287.2108231 2.2899208-.9663315 2.455555l-12.1926651 1.7165833c-1.1315308.1551971-2.0202637-.9301529-1.6448593-2.0087471l4.0876312-11.614666c.3946457-1.1212655 1.8485184-1.3782121 2.5979996-.462925z" fill="url(#SVGID_9_)"/><path d="m114.3446884 14.0860672 1.7122803 4.984726-8.8205261 7.2226734-1.7122803-4.984726z" fill="url(#SVGID_10_)"/><path d="m120.6060486 21.7326088-4.5490799-2.6618156-8.8205261 7.2226734 4.5490722 2.6618156z" fill="url(#SVGID_11_)"/></g><circle cx="26.332" cy="38.916" fill="url(#SVGID_12_)" r="16.298"/><g><g><g><g><g><path d="m34.4647713 30.3370323c.0044403 1.0789433-.8715363 1.9657135-1.9541092 1.9701691l-.0073395-1.7840385.1780548-.0007324-.0123253-2.129528c.0071106-.0036812.0142403-.0037098.0177994-.0000744.5450821.0511398 1.0234108.323391 1.3455696.7280884.2684441.3299731.4304581.7567175.4323502 1.2161158z" fill="url(#SVGID_13_)"/><g><path d="m32.6813774 30.5224304-.1780548.0007324-.0088081-2.1403236c.0605316-.0002499.1175385.0031681.1745377.0100632z" fill="url(#SVGID_14_)"/><path d="m18.0641212 30.4042397c.0044365 1.0784569.8854809 1.9570465 1.9687233 1.9525871l-.0161362-3.9213104c-1.0832442.0044574-1.9570445.8854808-1.9525871 1.9687233z" fill="url(#SVGID_15_)"/></g><g><g><path d="m38.1845589 44.3321228.0235481 5.7228775c-.5577965.5927544-1.1631737 1.1467743-1.8032227 1.6493797-.3565331.2773361-.7217712.5416641-1.10429.7932243-.2449608.160511-.494278.3166199-.7522774.4599304-.2020378.1214066-.4041519.2299767-.6105537.3385658-.2106972.1130219-.4214325.2172089-.6364975.3172073-1.638731.7781677-3.4380283 1.2855453-5.3291798 1.4656677l.0000534.0130463c-.1723366.0135422-.3446465.0270882-.5170174.0322151-.0042953.0042267-.0086098.0042458-.0129147.0000534-.0042973.0042267-.0129242.0042648-.0215683.0000916l-.0042877.0000153c-.0904732.0089989-.1809635.0135803-.2714443.0139542-.2283611.0139847-.4567318.0191345-.6894608.020092-.1421928.0005836-.2844124.0011711-.4266491-.0024529-.1034241.0004272-.2025509-.0035858-.306036-.0117874-.1336098-.0036583-.2715244-.0117188-.4051781-.0197945-.1896267-.0078468-.3750095-.0199203-.5603848-.0364151l-.0000706-.0172539c-1.884016-.1820526-3.670269-.6917191-5.3110867-1.4692268-.2159004-.1026421-.4318333-.2136993-.6391411-.3250046-.2159328-.1110573-.4275894-.2309723-.639246-.3506775-.2549095-.1542435-.5098343-.3124886-.7561607-.4838142-.3716259-.23983-.7347069-.5055771-1.0849075-.7800064-.6571922-.518734-1.2758188-1.0935974-1.847208-1.7075882l-.0227337-5.5246582c-.0095768-2.3272781 1.8701859-4.2267494 4.2015953-4.2363434l15.289999-.0629196c2.3314097-.0095939 4.2267421 1.874344 4.2363208 4.2016221z" fill="url(#SVGID_16_)"/><g><path d="m35.281601 47.8821831.0189934 4.6154213c-.2449608.160511-.494278.3166199-.7522774.4599304l-.020874-5.0722466c-.0007973-.1940117.1537056-.3541489.3476105-.35495l.0474243-.0001945c.1982192-.0008163.3583221.1580315.3591232.3520394z" fill="url(#SVGID_17_)"/><path d="m18.1478271 48.1077728.0198269 4.818058c-.2549095-.1542435-.5098343-.3124886-.7561607-.4838142l-.0178223-4.3311386c-.0007973-.1937981.1579952-.3539581.3519001-.3547554l.0474224-.0001945c.1939316-.0007973.3540364.1580467.3548336.3518447z" fill="url(#SVGID_18_)"/></g><path d="m27.972086 55.0789757.0000534.0130463c-.1723366.0135422-.3446465.0270882-.5170174.0322151-.0042953.0042267-.0086098.0042458-.0129147.0000534-.0042973.0042267-.0129242.0042648-.0215683.0000916l-.0042877.0000153c-.0904732.0089989-.1809635.0135803-.2714443.0139542-.2283611.0139847-.4567318.0191345-.6894608.020092-.1421928.0005836-.2844124.0011711-.4266491-.0024529-.1034241.0004272-.2025509-.0035858-.306036-.0117874-.1336098-.0036583-.2715244-.0117188-.4051781-.0197945-.1896267-.0078468-.3750095-.0199203-.5603848-.0364151l-.0000706-.0172539.8512745-9.9154396-.0000191-.0044212.0740757-.8491631 1.27561-.005249.0810966.8571548z" fill="url(#SVGID_19_)"/><path d="m30.0517311 42.217556-3.4089584 3.3217926c-.1749115.169239-.4508743.1703758-.6271725.0025826l-3.4433556-3.2935982z" fill="url(#SVGID_20_)"/><path d="m29.5293121 40.1523552-3.2165527 2.1357231-3.2339916-2.1091766.9575863-3.1460228 4.5095138-.0185547z" fill="url(#SVGID_21_)"/><g><path d="m29.2267685 39.1869812 2.6835079.9555779-1.0741272 3.7267456c-.100523.348774-.4953136.5180359-.8172474.3503838l-3.7061367-1.9300156z" fill="url(#SVGID_22_)"/><path d="m23.3733578 39.2110672-2.6755829.9776306 1.1047611 3.7177811c.1033897.3479347.4995594.5139427.8201027.343647l3.6901264-1.960453z" fill="url(#SVGID_23_)"/></g><path d="m32.6725616 28.5418701.013092 3.1812782c.0145607 3.5388489-2.845953 6.42799-6.3898582 6.4425735-3.5438747.0145836-6.4280701-2.8509178-6.4426327-6.3897667l-.0130901-3.1812782c-.0145626-3.5388508 2.8459511-6.42799 6.3898258-6.4425735 1.7694855-.0072803 3.3752956.7065296 4.5466499 1.8586884.6300049.6247234 1.1281509 1.3775578 1.4551449 2.2194138.282364.7192573.4375191 1.4981555.4408684 2.3116645z" fill="url(#SVGID_24_)"/></g></g><path d="m34.0395622 29.1243649-.0071411-.0034485c-.3221588-.4046974-.8004875-.6769485-1.3455696-.7280884l-.0178452-.0107059.0000458.0107803.0123253 2.129528-.7834492.0032234-.1069946-2.6384506c-1.2186527-.1730442-1.3343735-3.1995697-1.3343735-3.1995697-.4386845 1.4964485-5.3003979 2.3118992-8.0473289 2.6560898-1.0567665.132412-1.8362923 1.0484619-1.8030052 2.1129704l.0227356.7270451-.7834511.0032253-.0064774-1.573988s-.0643024-.0496407-.1644192-.1452141c-.718544-.6666775-4.3515911-2.3386002-.9794559-6.5892258 3.5870857-4.5215702 12.8776932-.2521763 12.8776932-.2521763 5.905035-.1430053 2.466711 7.498005 2.466711 7.498005z" fill="url(#SVGID_25_)"/></g><g><g><path d="m24.086319 30.1463623c.0021324.5181217-.2927647.9383984-.6605492.9399109-.3638725.0014992-.6661301-.4163208-.6682625-.9344425-.0021305-.5181217.2966595-.9426632.660532-.9441605.3677845-.0015125.6661473.4205704.6682797.9386921z" fill="url(#SVGID_26_)"/><path d="m29.7680397 30.122982c.0021324.5181217-.2927647.9383984-.6605492.9399109-.3638725.0014973-.6661282-.4163208-.6682606-.9344425s.2966576-.9426632.6605301-.9441605c.3677846-.0015125.6661473.4205704.6682797.9386921z" fill="url(#SVGID_27_)"/></g><path d="m24.1229572 33.6953735c.1503105 1.0602036 1.0612736 1.874382 2.1621532 1.869854 1.1008778-.0045319 2.0051537-.8261795 2.1466885-1.8875847z" fill="#fff"/></g></g></g></g></g><g><path d="m125.4163132 76.5397949c0 4.3901367-1.75 8.3901367-4.5699463 11.3100586-1.1800537 1.2299805-2.5599365 2.2797852-4.0799561 3.0800781-.3000488.1699219-.6101074.3198242-.9200439.449707-2.0500488.9399414-4.3299561 1.4599609-6.7301025 1.4599609-2.4699707 0-4.7999268-.5498047-6.8999023-1.5400391-.3100586-.1298828-.6199951-.2900391-.9200439-.4599609-1.5198975-.8300781-2.9000244-1.8999023-4.0799561-3.159668-2.7199707-2.9101563-4.4000244-6.8300781-4.4000244-11.1401367 0-4.8999023 2.1600342-9.2900391 5.5799561-12.2700195.9300537-.8203163 1.9500732-1.5200233 3.0400391-2.1103554h.0100098c.0900879-.0498047.1600342-.0898438.25-.1298828 2.2199707-1.1499023 4.75-1.7900391 7.4199219-1.7900391 4.2401123 0 8.1000977 1.6103516 11 4.2802773 3.2600095 2.9697267 5.3000486 7.2597657 5.3000486 12.0200196z" fill="url(#SVGID_28_)"/><g><g><g><path d="m116.8526077 66.4237061h-.2169495v-2.6078949c.0737534 0 .1431961.0044479.2126083.013134z" fill="url(#SVGID_29_)"/></g><g><g><path d="m98.4846725 78.7615128c3.7824173 3.7824173 17.3950272 3.5497818 21.3965759 0 2.4131851-2.1407394.2050781-14.4357071.2050781-14.4357071 0-6.4092674-3.8624191-12.193512-10.2716064-12.193512h-2.3499146c-6.4092636 0-9.6759491 4.3363304-8.9801331 11.6050186.0000001 0-2.2647627 12.7594376.0000001 15.0242005z" fill="url(#SVGID_30_)"/><path d="m120.8463669 83.279541v4.5703125c-1.1800537 1.2299805-2.5599365 2.2797852-4.0799561 3.0800781-.3000488.1699219-.6101074.3198242-.9200439.449707-2.0500488.9399414-4.3299561 1.4599609-6.7301025 1.4599609-2.4699707 0-4.7999268-.5498047-6.8999023-1.5400391-.3100586-.1298828-.6199951-.2900391-.9200439-.4599609-1.5198975-.8300781-2.9000244-1.8999023-4.0799561-3.159668v-4.4003905c0-1.6899414.6699219-3.199707 1.7099609-4.1396484.4399414-.4003906.9399414-.6904297 1.4899902-.8500977.3200684-.1000977.6600342-.1499023 1-.1499023h15.2299805c.380127 0 .7399902.0595703 1.0800781.1699219.5600586.1796875 1.0799561.5 1.5200195.9296875.9799805.9404296 1.5999756 2.4003906 1.5999756 4.040039z" fill="url(#SVGID_31_)"/><g><path d="m116.7664108 87.529541v3.4003906c-.3000488.1699219-.6101074.3198242-.9200439.449707v-3.8500976c0-.2099609.1700439-.3701172.3699951-.3701172h.1799316c.210083 0 .3701172.1601563.3701172.3701172z" fill="url(#SVGID_32_)"/><path d="m102.216362 87.529541v3.7700195c-.3100586-.1298828-.6199951-.2900391-.9200439-.4599609v-3.3100586c0-.2099609.1700439-.3701172.3699951-.3701172h.1800537c.2099609 0 .3699951.1601563.3699951.3701172z" fill="url(#SVGID_33_)"/></g><path d="m112.9640656 78.1432724h-.0052567c-.0420074 2.1365738-1.7796783 3.8532639-3.9268265 3.8532639-2.147171 0-3.8795929-1.7166901-3.9268265-3.8532639v-.0053787l1.1811981-3.8271179h5.4965134z" fill="url(#SVGID_34_)"/><path d="m119.0264893 66.206749c0 1.3146515-1.0717621 2.3907318-2.390831 2.3907318v-2.1737747h.2169495l-.0043411-2.5947609c.0086899-.0044479.0173721-.0044479.0216904 0 .6638947.0650444 1.2453384.3991661 1.6358414.8938789.3254317.4033966.5206908.9241714.5206908 1.4839249z" fill="url(#SVGID_35_)"/><path d="m99.042984 66.2064056c0 1.3140564 1.0690918 2.3889771 2.3889771 2.3889771v-4.7779503c-1.3198853 0-2.3889771 1.069088-2.3889771 2.3889732z" fill="url(#SVGID_36_)"/><path d="m116.8541412 64.0108948v3.8742828c0 4.3151779-3.5015945 7.8167419-7.8221588 7.8167419-4.3153381 0-7.8169327-3.501564-7.8169327-7.8167419v-3.8742828c0-.7192802.0997467-1.4226685.2834778-2.0842743 1.4804382.8451424 4.3205948.8295059 7.3024673-.1889191.7087021-.2414703 1.3806915-.5198517 1.9949112-.8346367.5039902.703392 1.2967072 1.3647385 2.2784195 1.8476791 1.3439407.6616058 2.7298584.8348885 3.7430954.5565071.0262452.2309609.0367203.4673043.0367203.7036439z" fill="url(#SVGID_37_)"/></g></g></g><g><g><path d="m106.3819504 65.9223938c0 .6313095-.3614197 1.1419144-.8095474 1.1419144-.443367 0-.8095474-.5106049-.8095474-1.1419144s.3661804-1.1470871.8095474-1.1470871c.4481277 0 .8095474.5157776.8095474 1.1470871z" fill="url(#SVGID_38_)"/><path d="m113.3048935 65.9223938c0 .6313095-.3614197 1.1419144-.8095474 1.1419144-.443367 0-.8095551-.5106049-.8095551-1.1419144s.366188-1.1470871.8095551-1.1470871c.4481277 0 .8095474.5157776.8095474 1.1470871z" fill="url(#SVGID_39_)"/></g><path d="m106.4087982 70.2468262c.1778336 1.2925491 1.283699 2.2891388 2.6250763 2.2891388 1.3413696 0 2.4472961-.9965897 2.6250687-2.2891388z" fill="#fff"/></g></g></g></g></svg>