<svg id="Layer_1" viewBox="0 0 512 512" xmlns="http://www.w3.org/2000/svg" data-name="Layer 1"><path d="m101.825 361.648h-86.825c-3.866 0-7 3.134-7 7v128.352c0 3.866 3.134 7 7 7h86.825c3.866 0 7-3.134 7-7v-128.352c0-3.866-3.134-7-7-7zm-7 128.352h-72.825v-114.352h72.825zm138.725-187.085h-86.825c-3.866 0-7 3.134-7 7v187.085c0 3.866 3.134 7 7 7h86.825c3.866 0 7-3.134 7-7v-187.085c0-3.866-3.134-7-7-7zm-7 187.085h-72.825v-173.085h72.825zm138.725-261.579h-86.825c-3.866 0-7 3.134-7 7v261.579c0 3.866 3.134 7 7 7h86.825c3.866 0 7-3.134 7-7v-261.579c0-3.866-3.134-7-7-7zm-7 261.579h-72.825v-247.579h72.825zm138.725-330.12h-86.796c-3.866 0-7 3.134-7 7v330.12c0 3.866 3.134 7 7 7h86.796c3.866 0 7-3.134 7-7v-330.12c0-3.866-3.134-7-7-7zm-7 330.12h-72.796v-316.12h72.796zm-471.481-313.125c.156.082.315.157.477.227 9.511 4.666 21.103.9 26.021-8.545l18.142-34.789 8.546-6.179-4.214 55.471s0 .009 0 .013l-3.847 50.411-44.998 51.027c-3.853 4.378-5.772 10.019-5.403 15.886.37 5.872 2.985 11.229 7.363 15.081 4.168 3.671 9.353 5.475 14.519 5.475 6.083 0 12.142-2.503 16.478-7.404l39.112-44.384c13.962-15.806 16.083-22.406 17.561-30.031l3.738-19.684 37.215 2.849 1.155 49.377c.121 5.847 2.528 11.304 6.776 15.366 4.122 3.941 9.476 6.092 15.131 6.092.179 0 .359-.002.539-.006 12.081-.291 21.706-10.362 21.456-22.468l-1.445-62.083c-.35-14.568-11.46-26.513-27.018-29.049l-31.727-5.174 1.535-20.084 6.738 5.331c5.142 4.087 11.104 6.188 17.308 6.187 2.618 0 5.279-.374 7.938-1.131l39.05-11.003c10.123-2.88 16.022-13.435 13.161-23.495-1.362-4.887-4.56-8.957-9.003-11.459-4.456-2.51-9.608-3.136-14.525-1.759l-33.475 9.459-31.484-34.217c-5.342-6.469-13.24-11.026-22.57-12.318-1.769-.246-3.457-.498-5.08-.74-13.631-2.031-24.397-3.636-39.144 4.763-12.579 7.156-31.073 21.913-34.721 28.929l-19.577 37.566c-2.434 4.633-2.909 9.946-1.337 14.962 1.568 5.002 4.98 9.096 9.607 11.527zm76.008 59.623c-.96 4.954-1.789 9.232-14.31 23.406l-39.109 44.38c-2.905 3.284-7.952 3.593-11.25.688-1.569-1.381-2.507-3.318-2.642-5.453-.135-2.138.554-4.183 1.935-5.751l46.544-52.781c1.007-1.141 1.614-2.58 1.729-4.097l1.979-25.932c5.191 4.296 11.546 6.888 18.372 7.406l.193.015-3.441 18.121zm67.963-95.452 37.599-10.625c1.297-.363 2.669-.192 3.864.481 1.183.666 2.031 1.739 2.398 3.056.747 2.625-.864 5.479-3.5 6.229l-39.05 11.003c-4.584 1.304-8.984.424-12.733-2.555l-14.15-11.195 1.306-17.094 17.21 18.704c1.788 1.942 4.515 2.715 7.055 1.996zm-139.837 15.831 19.575-37.564c1.854-3.234 16.56-16.039 29.241-23.252 0 0 .002-.001.004-.002 10.542-6.006 17.508-4.968 30.153-3.083 1.666.248 3.399.506 5.218.76 5.474.759 10.128 3.331 13.313 6.976 3.171 3.628 4.887 8.316 4.507 13.337l-5.018 65.65c-.277 3.624 2.266 6.857 5.853 7.442l38.07 6.208c7.446 1.214 15.057 6.498 15.274 15.562l1.445 62.06c.091 4.396-3.407 8.059-7.797 8.165-2.098.054-4.114-.734-5.657-2.208-1.54-1.472-2.411-3.438-2.455-5.556l-1.304-55.729c-.084-3.595-2.878-6.541-6.464-6.816l-57.775-4.422c-5.01-.38-9.586-2.709-12.887-6.559-3.292-3.84-4.891-8.705-4.501-13.711l5.357-70.525c.207-2.717-1.183-5.307-3.561-6.638-1.066-.597-2.244-.892-3.418-.892-1.445 0-2.884.447-4.102 1.327l-22.11 15.987c-.881.637-1.602 1.471-2.105 2.436l-18.909 36.259c-.686 1.316-1.855 2.29-3.293 2.743-1.437.453-2.956.325-4.273-.361-.081-.042-.163-.083-.246-.122-1.205-.709-2.095-1.831-2.52-3.187-.45-1.437-.318-2.951.382-4.284zm86.343-81.756c18.505 0 33.56-15.055 33.56-33.56s-15.055-33.561-33.56-33.561-33.561 15.055-33.561 33.561 15.055 33.56 33.561 33.56zm0-53.121c10.786 0 19.56 8.775 19.56 19.561s-8.774 19.56-19.56 19.56-19.561-8.775-19.561-19.56 8.775-19.561 19.561-19.561zm358.098 55.906 11.436 11.435c1.831 1.83 4.522 2.502 6.995 1.745 2.475-.756 4.331-2.816 4.826-5.356l13.521-69.392c.445-2.286-.275-4.643-1.922-6.29-1.647-1.646-4.002-2.365-6.291-1.919l-69.392 13.549c-2.541.496-4.6 2.353-5.354 4.829-.755 2.476-.082 5.166 1.75 6.995l11.453 11.433-35.79 35.767-30.91-30.885c-2.734-2.732-7.165-2.731-9.897.002l-141.901 141.901c-2.55 2.55-2.746 6.621-.451 9.403 1.376 1.669 3.378 2.547 5.405 2.547 1.353 0 2.716-.391 3.912-1.198l137.117-92.552 31.776 31.776c2.734 2.734 7.166 2.734 9.898 0l63.818-63.792zm-99.676 18.034c-2.37-2.37-6.088-2.728-8.866-.852l-81.541 55.04 85.459-85.459 30.908 30.884c2.733 2.731 7.163 2.731 9.896 0l45.694-45.666c1.314-1.313 2.052-3.095 2.052-4.953s-.74-3.639-2.055-4.952l-7.095-7.083 46.271-9.035-9.017 46.276-7.08-7.08c-2.733-2.733-7.164-2.734-9.898 0l-63.818 63.792-30.909-30.909z"/><path d="m22 375.648h72.825v114.352h-72.825z" fill="#fe646f"/><path d="m108.996 61.121c10.786 0 19.56-8.775 19.56-19.56s-8.774-19.561-19.56-19.561-19.561 8.775-19.561 19.561 8.775 19.56 19.561 19.56z" fill="#f6dccd"/><path d="m163.802 151.189 39.05-11.003c2.636-.75 4.246-3.605 3.5-6.229-.367-1.317-1.215-2.39-2.398-3.056-1.195-.673-2.567-.844-3.864-.481l-37.599 10.625c-2.541.719-5.267-.054-7.055-1.996l-17.21-18.704-1.306 17.094 14.15 11.195c3.749 2.979 8.149 3.86 12.733 2.555z" fill="#60b7ff"/><path d="m367.418 95.94 30.909 30.909 63.818-63.792c2.734-2.733 7.165-2.732 9.898 0l7.08 7.08 9.017-46.276-46.271 9.035 7.095 7.083c1.315 1.313 2.054 3.094 2.055 4.952s-.738 3.64-2.052 4.953l-45.694 45.666c-2.733 2.731-7.163 2.732-9.896 0l-30.908-30.884-85.459 85.459 81.541-55.04c2.778-1.875 6.497-1.518 8.866.852z" fill="#6cf5c2"/><path d="m79.403 210.956-1.979 25.932c-.116 1.517-.723 2.956-1.729 4.097l-46.544 52.781c-1.381 1.569-2.069 3.613-1.935 5.751.134 2.136 1.072 4.073 2.642 5.453 3.298 2.905 8.345 2.597 11.25-.688l39.109-44.38c12.521-14.174 13.35-18.452 14.31-23.406l3.441-18.121-.193-.015c-6.826-.518-13.18-3.111-18.372-7.406z" fill="#7a6f7a"/><path d="m24.791 164.348c.083.039.165.079.246.122 1.317.686 2.836.814 4.273.361 1.438-.453 2.607-1.427 3.293-2.743l18.909-36.259c.503-.964 1.224-1.798 2.105-2.436l22.11-15.987c1.218-.881 2.657-1.327 4.102-1.327 1.174 0 2.353.295 3.418.892 2.378 1.331 3.768 3.921 3.561 6.638l-5.357 70.525c-.39 5.006 1.209 9.87 4.501 13.711 3.3 3.849 7.876 6.178 12.887 6.559l57.775 4.422c3.585.274 6.38 3.221 6.464 6.816l1.304 55.729c.044 2.118.916 4.084 2.455 5.556 1.542 1.475 3.559 2.262 5.657 2.208 4.39-.106 7.888-3.768 7.797-8.165l-1.445-62.06c-.218-9.064-7.829-14.349-15.274-15.562l-38.07-6.208c-3.587-.585-6.13-3.818-5.853-7.442l5.018-65.65c.381-5.021-1.336-9.709-4.507-13.336-3.186-3.645-7.839-6.218-13.313-6.976-1.819-.253-3.553-.511-5.218-.76-12.646-1.885-19.611-2.923-30.153 3.083-.001 0-.003.001-.004.002-12.681 7.213-27.386 20.018-29.241 23.252l-19.575 37.564c-.7 1.333-.832 2.848-.382 4.284.425 1.356 1.314 2.478 2.52 3.187z" fill="#8ac9fe"/><path d="m417.204 173.88h72.796v316.12h-72.796z" fill="#8ac9fe"/><path d="m285.45 242.421h72.825v247.579h-72.825z" fill="#ffe177"/><path d="m153.725 316.915h72.825v173.085h-72.825z" fill="#6cf5c2"/><path d="m203.55 316.915h23v173.085h-23z" fill="#00e499"/><path d="m71.824 375.648h23v114.352h-23z" fill="#fd4755"/><path d="m467 173.88h23v316.12h-23z" fill="#60b7ff"/><path d="m335.275 242.421h23v247.579h-23z" fill="#ffd064"/><path d="m120.229 172.095-37.4-6.099-1.378 18.138c-.39 5.006 1.209 9.87 4.501 13.711 3.3 3.849 7.876 6.178 12.887 6.559l57.775 4.422c3.585.274 6.38 3.221 6.464 6.816l1.304 55.729c.044 2.118.916 4.084 2.455 5.556 1.542 1.475 3.559 2.262 5.657 2.208 4.39-.106 7.888-3.768 7.797-8.165l-1.445-62.06c-.218-9.064-7.829-14.349-15.274-15.562l-38.07-6.208c-3.587-.585-6.13-3.818-5.853-7.442l.581-7.603z" fill="#837683"/></svg>