<svg clip-rule="evenodd" fill-rule="evenodd" height="850" image-rendering="optimizeQuality" shape-rendering="geometricPrecision" text-rendering="geometricPrecision" viewBox="0 0 850 850" width="850" xmlns="http://www.w3.org/2000/svg" xmlns:xodm="http://www.corel.com/coreldraw/odm/2003"><g id="Layer_x0020_1"><circle cx="425" cy="425" fill="#7f493f" r="425"/><g id="_196212040"><g><g><g id="_196211344"><path d="m231.1 639.95c-3.31 0-6-2.69-6-6v-425.36c0-3.31 2.69-6 6-6 3.32 0 6 2.69 6 6v425.36c0 3.31-2.68 6-6 6z" fill="#fff"/></g><g id="_196210312"><path d="m272.13 265.87c-1.76 0-3.5-.77-4.69-2.25l-36.53-45.67-32.85 37.69c-2.18 2.5-5.97 2.76-8.47.59-2.49-2.18-2.75-5.97-.58-8.47l37.57-43.11c1.17-1.34 2.9-2.09 4.65-2.06 1.78.04 3.45.86 4.56 2.25l41.02 51.28c2.07 2.59 1.65 6.36-.94 8.43-1.1.89-2.42 1.32-3.74 1.32z" fill="#fff"/></g></g><g><g id="_196211728"><path d="m656.46 639.95h-425.36c-3.31 0-6-2.69-6-6s2.69-6 6-6h425.36c3.32 0 6 2.69 6 6s-2.68 6-6 6z" fill="#fff"/></g><g id="_196211440"><path d="m605.19 680.97c-1.76 0-3.51-.77-4.69-2.25-2.07-2.59-1.65-6.36.94-8.43l45.67-36.54-37.7-32.85c-2.5-2.17-2.76-5.96-.58-8.46s5.96-2.76 8.46-.58l43.12 37.56c1.34 1.17 2.09 2.87 2.05 4.65-.03 1.78-.86 3.45-2.25 4.56l-51.28 41.03c-1.1.88-2.43 1.31-3.74 1.31z" fill="#fff"/></g></g><g id="_196211800"><path d="m350.35 639.95h-65.84c-3.31 0-6-2.69-6-6v-173.38c0-3.31 2.69-6 6-6h65.84c3.32 0 6 2.69 6 6v173.38c0 3.31-2.68 6-6 6zm-59.84-12h53.84v-161.38h-53.84z" fill="#fff"/></g><g id="_196211704"><path d="m454.6 639.95h-65.84c-3.31 0-6-2.69-6-6v-213.98c0-3.31 2.69-6 6-6h65.84c3.31 0 6 2.69 6 6v213.98c0 3.31-2.69 6-6 6zm-59.84-12h53.84v-201.98h-53.84z" fill="#fff"/></g><g id="_196211632"><path d="m558.84 639.95h-65.84c-3.31 0-6-2.69-6-6v-264.09c0-3.31 2.69-5.99 6-5.99h65.84c3.31 0 6 2.68 6 5.99v264.09c0 3.31-2.68 6-6 6zm-59.84-12h53.84v-252.09h-53.84z" fill="#fff"/></g><g id="_196212136"><path d="m285.62 431.46c-2.08 0-4.09-1.08-5.2-3-1.66-2.87-.68-6.54 2.19-8.2l256.51-148.09c2.87-1.66 6.54-.67 8.19 2.2 1.66 2.87.67 6.54-2.2 8.19l-256.5 148.09c-.95.55-1.98.81-2.99.81z" fill="#fff"/></g><g id="_196212016"><path d="m525.32 313.79c-.98 0-1.97-.24-2.89-.74-2.9-1.6-3.96-5.25-2.36-8.15l11.99-21.73-24.81-.48c-3.31-.07-5.95-2.8-5.88-6.12.06-3.31 2.81-5.92 6.11-5.88l34.75.68c2.1.04 4.03 1.18 5.08 3 1.05 1.81 1.07 4.05.06 5.89l-16.79 30.43c-1.09 1.98-3.15 3.1-5.26 3.1z" fill="#fff"/></g><g><g id="_196212256"><path d="m408.27 262.48c-1.59 0-3.12-.63-4.25-1.76l-14.42-14.42c-2.34-2.35-2.34-6.14 0-8.49 2.34-2.34 6.14-2.34 8.49 0l10.18 10.19 43.27-43.29c2.35-2.34 6.15-2.34 8.49 0 2.34 2.35 2.34 6.15 0 8.49l-47.52 47.52c-1.13 1.13-2.65 1.76-4.24 1.76z" fill="#fff"/></g><g id="_196212376"><path d="m424.81 296.41c-35.11 0-63.69-28.57-63.69-63.69s28.58-63.69 63.69-63.69c35.13 0 63.7 28.57 63.7 63.69s-28.58 63.69-63.7 63.69zm0-115.38c-28.5 0-51.69 23.19-51.69 51.69s23.19 51.69 51.69 51.69c28.51 0 51.7-23.19 51.7-51.69s-23.19-51.69-51.7-51.69z" fill="#fff"/></g></g></g></g></g></svg>