<svg id="Layer_1" enable-background="new 0 0 66 66" viewBox="0 0 66 66" xmlns="http://www.w3.org/2000/svg"><g><g><path d="m2.79 45.63h12.3v17.42h-12.3z" fill="#fa4968"/><path d="m15.08 63.8h-12.29c-.41 0-.75-.34-.75-.75v-17.42c0-.41.34-.75.75-.75h12.3c.41 0 .75.34.75.75v17.42c-.01.42-.34.75-.76.75zm-11.54-1.5h10.8v-15.92h-10.8z" fill="#682f2a"/></g><g><path d="m19.17 38.07h12.3v24.98h-12.3z" fill="#525f70"/><path d="m31.47 63.8h-12.3c-.41 0-.75-.34-.75-.75v-24.98c0-.41.34-.75.75-.75h12.3c.41 0 .75.34.75.75v24.98c0 .42-.33.75-.75.75zm-11.55-1.5h10.8v-23.48h-10.8z" fill="#682f2a"/></g><g><path d="m35.56 30.85h12.3v32.2h-12.3z" fill="#6e9583"/><path d="m47.86 63.8h-12.3c-.41 0-.75-.34-.75-.75v-32.2c0-.41.34-.75.75-.75h12.3c.41 0 .75.34.75.75v32.2c0 .42-.34.75-.75.75zm-11.55-1.5h10.8v-30.7h-10.8z" fill="#682f2a"/></g><g><path d="m51.95 23.86h12.3v39.2h-12.3z" fill="#559aff"/><path d="m64.25 63.8h-12.3c-.41 0-.75-.34-.75-.75v-39.2c0-.41.34-.75.75-.75h12.3c.41 0 .75.34.75.75v39.2c0 .42-.34.75-.75.75zm-11.55-1.5h10.8v-37.7h-10.8z" fill="#682f2a"/></g><g><ellipse cx="13.83" cy="18.43" fill="#abb734" rx="12.08" ry="12.08" transform="matrix(.23 -.973 .973 .23 -7.285 27.657)"/><path d="m13.83 31.26c-7.07 0-12.83-5.75-12.83-12.83s5.76-12.83 12.83-12.83c7.08 0 12.83 5.76 12.83 12.83s-5.75 12.83-12.83 12.83zm0-24.16c-6.25 0-11.33 5.08-11.33 11.33s5.08 11.33 11.33 11.33 11.33-5.08 11.33-11.33-5.08-11.33-11.33-11.33z" fill="#682f2a"/></g><g><path d="m11.49 24.33c-.49 0-.95-.19-1.29-.54l-3.45-3.45c-.71-.72-.71-1.87 0-2.59.72-.71 1.87-.71 2.59 0l2.16 2.16 6.84-6.84c.72-.71 1.87-.71 2.59 0 .71.71.71 1.87 0 2.59l-8.14 8.14c-.35.34-.82.53-1.3.53z" fill="#fff"/><path d="m11.49 25.08c-.69 0-1.34-.27-1.82-.76l-3.45-3.45c-.49-.49-.76-1.14-.76-1.82 0-.69.27-1.34.76-1.82.97-.98 2.68-.98 3.65 0l1.63 1.63 6.31-6.31c1.01-1.01 2.64-1.01 3.65 0 .49.49.76 1.13.76 1.82s-.27 1.34-.76 1.82l-8.14 8.14c-.49.48-1.14.75-1.83.75zm-3.45-7.11c-.29 0-.56.11-.76.32s-.32.48-.32.76.11.56.32.76l3.45 3.45c.41.41 1.12.41 1.53 0l8.14-8.14c.2-.2.32-.48.32-.76s-.11-.56-.32-.76c-.42-.42-1.11-.42-1.53 0l-6.84 6.84c-.29.29-.77.29-1.06 0l-2.17-2.16c-.21-.2-.48-.31-.76-.31z" fill="#682f2a"/></g><g><path d="m46.99 16.95 6.75-3.88 2.33 4.05 3.01-11.16-11.16-3.01 2.33 4.04-6.75 3.88z" fill="#a7cec8"/><path d="m56.07 17.87c-.27 0-.52-.14-.65-.38l-1.95-3.4-6.1 3.51c-.36.21-.82.08-1.02-.28l-3.49-6.07c-.1-.17-.13-.38-.07-.57.05-.19.18-.36.35-.46l6.1-3.51-1.95-3.4c-.15-.26-.13-.59.06-.83.18-.24.5-.35.79-.27l11.16 3.01c.19.05.36.18.46.35s.13.38.07.57l-3.01 11.16c-.08.29-.33.51-.63.55-.06.02-.09.02-.12.02zm-11.54-6.72 2.74 4.77 6.1-3.51c.17-.1.38-.12.57-.07s.36.18.46.35l1.42 2.48 2.35-8.69-8.69-2.35 1.43 2.48c.09.18.12.39.06.58-.05.19-.18.36-.35.46z" fill="#682f2a"/></g><g><path d="m35.81 26.68 3.9-2.24 1.34 2.34 1.74-6.44-6.44-1.74 1.34 2.34-3.89 2.24z" fill="#fa4968"/><path d="m41.05 27.53c-.27 0-.52-.14-.65-.38l-.97-1.69-3.24 1.87c-.36.21-.82.08-1.02-.28l-2.02-3.51c-.21-.36-.08-.82.28-1.02l3.25-1.87-.97-1.69c-.15-.26-.13-.59.06-.83s.5-.35.79-.27l6.44 1.74c.4.11.64.52.53.92l-1.74 6.44c-.08.29-.33.51-.63.55-.05.02-.08.02-.11.02zm-6.23-4.08 1.27 2.21 3.24-1.87c.36-.21.82-.08 1.02.28l.44.77 1.07-3.97-3.97-1.07.44.77c.21.36.08.82-.28 1.02z" fill="#682f2a"/></g><g><path d="m30.07 11.97 3.81-2.37 1.42 2.29 1.53-6.49-6.5-1.53 1.42 2.29-3.81 2.37z" fill="#ffb95c"/><path d="m30.07 12.72c-.25 0-.5-.13-.64-.35l-2.13-3.44c-.1-.17-.14-.37-.09-.57.05-.19.17-.36.33-.47l3.18-1.97-1.02-1.65c-.16-.26-.15-.59.03-.83s.48-.36.78-.29l6.49 1.52c.4.09.65.5.56.9l-1.52 6.49c-.07.3-.31.52-.61.57s-.6-.09-.76-.35l-1.02-1.65-3.18 1.97c-.13.08-.27.12-.4.12zm-1.1-3.95 1.34 2.16 3.18-1.97c.35-.22.81-.11 1.03.24l.47.75.94-4-4-.94.47.75c.22.35.11.81-.24 1.03z" fill="#682f2a"/></g></g></svg>