<svg enable-background="new 0 0 492 492" height="512" viewBox="0 0 492 492" width="512" xmlns="http://www.w3.org/2000/svg"><g id="Layer_2"><path clip-rule="evenodd" d="m246.26.98c135.21 0 245.76 110.549 245.76 245.76 0 135.21-110.549 245.76-245.76 245.76-135.21 0-245.76-110.55-245.76-245.76 0-135.21 110.55-245.76 245.76-245.76z" fill="#3949ab" fill-rule="evenodd"/></g><g id="Layer_1"><g><g clip-rule="evenodd" fill="#fffffe" fill-rule="evenodd"><path d="m245.391 203.562c0-6.578-5.129-12.136-11.677-12.654-.002 0-.003 0-.005 0-.332-.027-.673-.041-1.012-.041-7 0-12.694 5.695-12.694 12.694 0 7 5.695 12.694 12.694 12.694 6.999.001 12.694-5.694 12.694-12.693z"/><path d="m243.07 289.556v-67.392h-24.366v42.068c0 2.815-1.717 5.236-4.375 6.168-2.651.93-5.497.114-7.251-2.078-5.527-6.909-13.763-10.871-22.598-10.871h-37.285c-15.951 0-28.927 12.977-28.927 28.927v71.204h95.136v-51.989h-10.257c-7.146 0-14.297-1.697-20.679-4.907-6.383-3.21-12.009-7.939-16.269-13.675-.973-1.31-.699-3.16.61-4.133 1.31-.972 3.16-.699 4.132.61 7.532 10.141 19.571 16.196 32.205 16.196h29.795c5.586.001 10.129-4.543 10.129-10.128z"/><path d="m246.332 190.909c3.202 3.45 4.966 7.943 4.966 12.653 0 4.909-1.912 9.379-5.029 12.706 1.516.125 2.709 1.393 2.709 2.941v10.215h93.41v-62.784h-105.484v18.801c3.596.832 6.876 2.719 9.428 5.468zm61.802-9.457h5.632c1.632 0 2.954 1.323 2.954 2.954s-1.322 2.954-2.954 2.954h-5.632c-1.631 0-2.954-1.322-2.954-2.954 0-1.631 1.323-2.954 2.954-2.954zm-21.305 0h5.633c1.632 0 2.954 1.323 2.954 2.954s-1.322 2.954-2.954 2.954h-5.633c-1.631 0-2.954-1.322-2.954-2.954.001-1.631 1.323-2.954 2.954-2.954zm-21.304 0h5.633c1.631 0 2.954 1.323 2.954 2.954s-1.322 2.954-2.954 2.954h-5.633c-1.631 0-2.954-1.322-2.954-2.954 0-1.631 1.323-2.954 2.954-2.954z"/><path d="m257.149 148.685h64.996v12.048h-64.996z"/><path d="m348.297 210.265 32.364 6.658v-37.781l-32.364 6.657z"/><path d="m124.881 190.098c4.778 0 9.166-2.609 11.451-6.811.455-.837 1.287-1.404 2.233-1.521s1.89.23 2.536.931c2.459 2.672 5.95 4.204 9.579 4.204 5.437 0 10.349-3.425 12.224-8.522.327-.888 1.059-1.566 1.969-1.823s1.889-.062 2.632.523c2.313 1.824 5.097 2.788 8.051 2.788 3.889 0 7.544-1.718 10.029-4.714.505-.609 1.233-.99 2.022-1.057.788-.068 1.571.184 2.172.699 2.352 2.013 5.355 3.121 8.456 3.121 1.043 0 2.078-.123 3.077-.365 5.857-1.418 9.946-6.623 9.946-12.658 0-7.18-5.842-13.021-13.023-13.021-.779 0-1.56.069-2.32.206-.884.159-1.791-.092-2.467-.683-.676-.59-1.047-1.456-1.007-2.353.002-.042.001-.083.001-.124 0-7.181-5.841-13.023-13.021-13.023-4.395 0-8.464 2.196-10.884 5.873-.795 1.209-2.349 1.664-3.671 1.074-1.665-.743-3.444-1.119-5.288-1.119-5.316 0-10.048 3.18-12.057 8.1-.354.867-1.098 1.515-2.005 1.746-.907.232-1.871.019-2.596-.573-2.309-1.882-5.227-2.919-8.217-2.919-7.181 0-13.023 5.841-13.023 13.021 0 .337.012.661.036.992.094 1.271-.638 2.458-1.815 2.946-4.886 2.025-8.043 6.751-8.043 12.039.002 7.182 5.843 13.023 13.023 13.023z"/><path d="m161.869 244.897h3.155c18.765 0 34.032-15.266 34.032-34.03v-27.062c-.273.012-.546.02-.82.02-3.569 0-7.049-1.01-10.042-2.883-3.451 3.099-7.927 4.834-12.639 4.834-3.072 0-6.019-.718-8.679-2.098-3.385 5.576-9.52 9.132-16.198 9.132-4.048 0-7.978-1.311-11.202-3.675-2.936 3.553-7.076 5.919-11.643 6.639v15.094c.002 18.763 15.269 34.029 34.036 34.029z"/><path d="m288.122 252.359c-8.992 13.777-22.149 23.474-39.144 28.87v6.18c10.224-3.038 19.338-7.587 27.117-13.54 6.684-5.115 12.395-11.266 16.974-18.281 5.651-8.657 8.159-16.442 9.143-20.256h-6.131c-1.093 3.724-3.415 10.065-7.959 17.027z"/></g></g></g></svg>