<svg clip-rule="evenodd" fill-rule="evenodd" height="512" image-rendering="optimizeQuality" shape-rendering="geometricPrecision" text-rendering="geometricPrecision" viewBox="0 0 2833 2833" width="512" xmlns="http://www.w3.org/2000/svg"><g id="Layer_x0020_1"><circle cx="1417" cy="1417" fill="#673b8d" r="1417"/><g fill="#fff"><path d="m1527 2125h-650c-121 0-219-98-219-219v-1124c0-121 98-219 219-219h650c121 0 219 98 219 219v1124c0 121-98 219-219 219zm-161-564c-3 0-7 0-10-2l-154-87-154 87c-7 4-15 3-22-1-6-5-9-13-8-21l35-173-130-120c-6-5-8-13-5-21 2-7 9-12 16-13l176-21 74-161c3-7 10-11 18-11 8 0 15 4 18 11l74 161 176 21c7 1 14 6 16 13 3 8 1 16-5 21l-130 120 35 173c1 8-2 16-8 21-4 2-8 3-12 3zm-384-317 106 98c6 5 8 12 7 19l-29 142 126-71c6-4 14-4 20 0l126 71-29-142c-1-7 1-14 6-19l107-98-144-17c-7 0-13-5-16-11l-60-131-60 131c-3 6-9 11-16 11zm545 461h-650c-11 0-20-9-20-20s9-20 20-20h650c11 0 20 9 20 20s-9 20-20 20zm0 149h-650c-11 0-20-9-20-20s9-20 20-20h650c11 0 20 9 20 20s-9 20-20 20zm0 148h-650c-11 0-20-9-20-20s9-20 20-20h650c11 0 20 9 20 20s-9 20-20 20zm-325-1068c-72 0-130-58-130-130s58-130 130-130 130 58 130 130-58 130-130 130z"/><path d="m1665 2270c-19 0-38-3-56-8l-364-97h282c143 0 259-116 259-259v-1124c0-33-7-65-18-93l245 65c117 31 186 151 155 268l-291 1086c-26 95-113 162-212 162z"/></g></g></svg>