<svg height="512" viewBox="0 0 64 64" width="512" xmlns="http://www.w3.org/2000/svg" xmlns:xlink="http://www.w3.org/1999/xlink"><linearGradient id="New_Gradient_Swatch_copy_2" gradientUnits="userSpaceOnUse" x1="11.522" x2="11.522" y1="65.709" y2="-5.851"><stop offset="0" stop-color="#6713d2"/><stop offset="1" stop-color="#cc208e"/></linearGradient><linearGradient id="New_Gradient_Swatch_copy_2-2" x1="52.478" x2="52.478" xlink:href="#New_Gradient_Swatch_copy_2" y1="65.709" y2="-5.851"/><linearGradient id="New_Gradient_Swatch_copy_2-3" gradientTransform="matrix(.866 .5 -.5 .866 24.838 5.285)" x1="2.555" x2="2.555" xlink:href="#New_Gradient_Swatch_copy_2" y1="65.709" y2="-5.851"/><linearGradient id="New_Gradient_Swatch_copy_2-4" gradientTransform="matrix(.766 .643 -.643 .766 36.001 8.766)" x1="5.955" x2="5.955" xlink:href="#New_Gradient_Swatch_copy_2" y1="65.709" y2="-5.851"/><linearGradient id="New_Gradient_Swatch_copy_2-5" gradientTransform="matrix(.643 .766 -.766 .643 48.099 12.971)" x1="10.145" x2="10.145" xlink:href="#New_Gradient_Swatch_copy_2" y1="65.709" y2="-5.851"/><linearGradient id="New_Gradient_Swatch_copy_2-6" gradientTransform="matrix(.5 .866 -.866 .5 60.717 17.736)" x1="15" x2="15" xlink:href="#New_Gradient_Swatch_copy_2" y1="65.709" y2="-5.851"/><linearGradient id="New_Gradient_Swatch_copy_2-7" gradientTransform="matrix(.866 .5 -.5 .866 15.728 -28.709)" x1="61.445" x2="61.445" xlink:href="#New_Gradient_Swatch_copy_2" y1="65.709" y2="-5.851"/><linearGradient id="New_Gradient_Swatch_copy_2-8" gradientTransform="matrix(.766 .643 -.643 .766 20.092 -34.93)" x1="58.045" x2="58.045" xlink:href="#New_Gradient_Swatch_copy_2" y1="65.709" y2="-5.851"/><linearGradient id="New_Gradient_Swatch_copy_2-9" gradientTransform="matrix(.643 .766 -.766 .643 23.808 -39.134)" x1="53.855" x2="53.855" xlink:href="#New_Gradient_Swatch_copy_2" y1="65.709" y2="-5.851"/><linearGradient id="New_Gradient_Swatch_copy_2-10" gradientTransform="matrix(.5 .866 -.866 .5 26.717 -41.16)" x1="49" x2="49" xlink:href="#New_Gradient_Swatch_copy_2" y1="65.709" y2="-5.851"/><linearGradient id="New_Gradient_Swatch_copy_2-11" x1="41" x2="41" xlink:href="#New_Gradient_Swatch_copy_2" y1="65.709" y2="-5.851"/><linearGradient id="New_Gradient_Swatch_copy_2-15" x1="23" x2="23" xlink:href="#New_Gradient_Swatch_copy_2" y1="65.709" y2="-5.851"/><g id="Web_Maintenance" data-name="Web Maintenance"><path d="m6.345 45.533-1.769.934a30.969 30.969 0 0 0 12.957 12.957l.934-1.768a28.965 28.965 0 0 1 -12.122-12.123z" fill="url(#New_Gradient_Swatch_copy_2)"/><path d="m57.655 18.467 1.769-.934a30.969 30.969 0 0 0 -12.957-12.957l-.934 1.768a28.965 28.965 0 0 1 12.122 12.123z" fill="url(#New_Gradient_Swatch_copy_2-2)"/><path d="m1.555 48h2v2h-2z" fill="url(#New_Gradient_Swatch_copy_2-3)" transform="matrix(.866 -.5 .5 .866 -24.154 7.84)"/><path d="m4.955 52.855h2v2h-2z" fill="url(#New_Gradient_Swatch_copy_2-4)" transform="matrix(.766 -.643 .643 .766 -33.216 16.419)"/><path d="m9.145 57.045h2v2h-2z" fill="url(#New_Gradient_Swatch_copy_2-5)" transform="matrix(.643 -.766 .766 .643 -40.847 28.517)"/><path d="m14 60.445h2v2h-2z" fill="url(#New_Gradient_Swatch_copy_2-6)" transform="matrix(.5 -.866 .866 .5 -45.714 43.718)"/><path d="m60.445 14h2v2h-2z" fill="url(#New_Gradient_Swatch_copy_2-7)" transform="matrix(.866 -.5 .5 .866 .73 32.726)"/><path d="m57.045 9.145h2v2h-2z" fill="url(#New_Gradient_Swatch_copy_2-8)" transform="matrix(.766 -.643 .643 .766 7.053 39.674)"/><path d="m52.855 4.955h2v2h-2z" fill="url(#New_Gradient_Swatch_copy_2-9)" transform="matrix(.643 -.766 .766 .643 14.684 43.39)"/><path d="m48 1.555h2v2h-2z" fill="url(#New_Gradient_Swatch_copy_2-10)" transform="matrix(.5 -.866 .866 .5 22.291 43.715)"/><g fill="url(#New_Gradient_Swatch_copy_2-11)"><path d="m22 59a1 1 0 0 0 1 1h36a1 1 0 0 0 1-1v-31h-38zm7-17a1 1 0 0 1 .8-.98l1.774-.355a9.99 9.99 0 0 1 .4-.971l-1-1.5a1 1 0 0 1 .125-1.262l2.83-2.832a1 1 0 0 1 1.262-.125l1.5 1a9.99 9.99 0 0 1 .971-.4l.358-1.775a1 1 0 0 1 .98-.8h4a1 1 0 0 1 .98.8l.355 1.774a9.99 9.99 0 0 1 .971.4l1.5-1a1 1 0 0 1 1.262.125l2.832 2.83a1 1 0 0 1 .125 1.262l-1 1.5a9.99 9.99 0 0 1 .4.971l1.774.355a1 1 0 0 1 .801.983v4a1 1 0 0 1 -.8.98l-1.774.355a9.99 9.99 0 0 1 -.4.971l1 1.5a1 1 0 0 1 -.125 1.262l-2.83 2.832a1 1 0 0 1 -1.262.125l-1.5-1a9.99 9.99 0 0 1 -.971.4l-.358 1.775a1 1 0 0 1 -.98.8h-4a1 1 0 0 1 -.98-.8l-.355-1.774a9.99 9.99 0 0 1 -.971-.4l-1.5 1a1 1 0 0 1 -1.262-.125l-2.832-2.83a1 1 0 0 1 -.125-1.262l1-1.5a9.99 9.99 0 0 1 -.4-.971l-1.775-.358a1 1 0 0 1 -.8-.98z"/><path d="m33.313 46.2a8 8 0 0 0 .7 1.689 1 1 0 0 1 -.041 1.041l-.874 1.31 1.67 1.67 1.31-.874a1 1 0 0 1 1.041-.041 8 8 0 0 0 1.689.7 1 1 0 0 1 .706.765l.306 1.54h2.36l.31-1.548a1 1 0 0 1 .706-.765 8 8 0 0 0 1.689-.7 1 1 0 0 1 1.041.041l1.31.874 1.67-1.67-.874-1.31a1 1 0 0 1 -.041-1.041 8 8 0 0 0 .7-1.689 1 1 0 0 1 .765-.706l1.544-.306v-2.36l-1.548-.31a1 1 0 0 1 -.765-.706 8 8 0 0 0 -.7-1.689 1 1 0 0 1 .041-1.041l.874-1.31-1.67-1.67-1.31.874a1 1 0 0 1 -1.041.041 8 8 0 0 0 -1.689-.7 1 1 0 0 1 -.706-.765l-.306-1.544h-2.36l-.31 1.548a1 1 0 0 1 -.706.765 8 8 0 0 0 -1.689.7 1 1 0 0 1 -1.041-.041l-1.31-.874-1.67 1.67.874 1.31a1 1 0 0 1 .041 1.041 8 8 0 0 0 -.7 1.689 1 1 0 0 1 -.765.706l-1.544.306v2.36l1.548.31a1 1 0 0 1 .765.71zm7.687-8.2a6 6 0 1 1 -6 6 6.006 6.006 0 0 1 6-6z"/><path d="m22 23v3h38v-3a1 1 0 0 0 -1-1h-36a1 1 0 0 0 -1 1zm10 0h2v2h-2zm-4 0h2v2h-2zm-4 0h2v2h-2z"/><circle cx="41" cy="44" r="4"/></g><path d="m42 5a1 1 0 0 0 -1-1h-36a1 1 0 0 0 -1 1v3h38zm-34 2h-2v-2h2zm4 0h-2v-2h2zm4 0h-2v-2h2z" fill="url(#New_Gradient_Swatch_copy_2-15)"/><path d="m20 23a3 3 0 0 1 3-3h19v-10h-38v31a1 1 0 0 0 1 1h15zm8-8h2v2h-2zm-4 0h2v2h-2zm-4 0h2v2h-2zm-4 24h-8v-2h8zm0-4h-8v-2h8zm0-4h-8v-2h8zm0-4h-8v-2h8zm0-4h-8v-2h8zm0-6v-2h2v2z" fill="url(#New_Gradient_Swatch_copy_2-15)"/></g></svg>