<svg id="Layer_1" enable-background="new 0 0 512 512" viewBox="0 0 512 512" xmlns="http://www.w3.org/2000/svg"><g id="_x30_21_E-Commerce"><g><g><g><g><g><g><g><g><g><path d="m473.791 33.872v444.24c0 16.479-13.4 29.88-29.88 29.88h-249.32c-16.52 0-29.92-13.4-29.92-29.92v-444.2c0-16.52 13.4-29.88 29.92-29.88h249.32c16.48 0 29.88 13.36 29.88 29.88z" fill="#a6e1fb"/></g></g></g></g><g><g><g><g><path d="m164.671 182.795h309.12v256.924h-309.12z" fill="#a6e1fb"/></g></g></g></g><g><g><g><g><path d="m473.791 72.245v-38.374c0-16.52-13.4-29.88-29.88-29.88h-249.32c-16.52 0-29.92 13.36-29.92 29.88v38.374z" fill="#d3d9d9"/></g></g></g></g><g><path d="m361.352 42.12h-84.238c-2.211 0-4-1.789-4-4s1.789-4 4-4h84.238c2.211 0 4 1.789 4 4s-1.789 4-4 4z" fill="#333"/></g><g><path d="m385.547 42.12h-6.234c-2.211 0-4-1.789-4-4s1.789-4 4-4h6.234c2.211 0 4 1.789 4 4s-1.789 4-4 4z" fill="#333"/></g><g><g><g><g><path d="m164.668 439.737v38.374c0 16.52 13.401 29.88 29.88 29.88l249.322.001c16.52 0 29.92-13.36 29.92-29.88v-38.374z" fill="#d3d9d9"/></g><g><g><g><g><path d="m224.85 507.999h-30.32c-16.479 0-29.88-13.359-29.88-29.88v-38.4h30.32v38.4c0 16.521 13.401 29.88 29.88 29.88z" fill="#e8eaea"/></g></g></g></g><g><g><g><g><path d="m473.79 439.719v38.4c0 16.521-13.4 29.88-29.92 29.88h-30.32c16.521 0 29.96-13.359 29.96-29.88v-38.4z" fill="#a8b2b4"/></g></g></g></g></g></g></g><g><g><g><g><path d="m224.89 3.999c-16.52 0-29.92 13.36-29.92 29.88v38.36h-30.28v-38.36c0-16.52 13.4-29.88 29.92-29.88h30.28z" fill="#e8eaea"/></g></g></g></g><g><g><g><g><path d="m473.79 33.879v38.36h-30.28v-38.36c0-16.52-13.4-29.88-29.88-29.88h30.28c16.48 0 29.88 13.36 29.88 29.88z" fill="#a8b2b4"/></g></g></g></g><g><g><path d="m342.429 473.864c0 12.8-10.4 23.2-23.2 23.2s-23.2-10.4-23.2-23.2c0-12.84 10.4-23.2 23.2-23.2s23.2 10.361 23.2 23.2z" fill="#333"/></g></g></g><g><g><g><g><g><path d="m189.336 143.164h51.959v13.652c0 7.159-2.915 13.682-7.62 18.359-4.706 4.705-11.172 7.621-18.359 7.621-14.346 0-25.979-11.633-25.979-25.979z" fill="#fc8a8a"/></g></g><g><g><path d="m449.129 143.164v13.652c0 7.159-2.915 13.682-7.62 18.359-4.705 4.705-11.171 7.621-18.359 7.621-14.346 0-25.979-11.633-25.979-25.979v-13.652z" fill="#fc8a8a"/></g></g><g><g><path d="m293.254 143.164h51.959v13.652c0 7.159-2.916 13.682-7.62 18.359-4.705 4.705-11.171 7.621-18.359 7.621-14.346 0-25.979-11.633-25.979-25.979z" fill="#fc8a8a"/></g></g><g><g><path d="m137.378 143.164h51.958v13.652c0 7.159-2.915 13.682-7.62 18.359-4.705 4.705-11.171 7.621-18.359 7.621-14.346 0-25.979-11.633-25.979-25.979z" fill="#fddd8d"/></g></g><g><g><path d="m345.212 143.164h51.959v13.652c0 7.159-2.916 13.682-7.62 18.359-4.705 4.705-11.171 7.621-18.359 7.621-14.346 0-25.979-11.633-25.979-25.979z" fill="#fddd8d"/></g></g><g><g><path d="m241.295 143.164h51.959v13.652c0 7.159-2.916 13.682-7.62 18.359-4.706 4.705-11.172 7.621-18.359 7.621-14.346 0-25.979-11.633-25.979-25.979z" fill="#fddd8d"/></g></g><g><g><path d="m501.088 143.164v13.652c0 7.159-2.915 13.682-7.62 18.359-4.706 4.705-11.172 7.621-18.359 7.621-14.346 0-25.979-11.633-25.979-25.979v-13.652z" fill="#fddd8d"/></g></g></g><g><g><g><path d="m208.714 72.245-19.381 70.921h-51.959l27.133-70.921z" fill="#fddd8d"/></g></g><g><g><path d="m252.92 72.245-11.628 70.921h-51.959l19.381-70.921z" fill="#fc8a8a"/></g></g><g><g><path d="m297.126 72.245-3.876 70.921h-51.958l11.628-70.921z" fill="#fddd8d"/></g></g><g><g><path d="m341.333 72.245 3.876 70.921h-51.959l3.876-70.921z" fill="#fc8a8a"/></g></g><g><g><path d="m385.539 72.245 11.628 70.921h-51.958l-3.876-70.921z" fill="#fddd8d"/></g></g><g><g><path d="m429.745 72.245 19.381 70.921h-51.959l-11.628-70.921z" fill="#fc8a8a"/></g></g><g><g><path d="m473.952 72.245 27.132 70.921h-51.958l-19.381-70.921z" fill="#fddd8d"/></g></g></g></g><g><g><g><g><path d="m221.611 182.03c-1.992.49-4.099.75-6.293.75-14.346 0-25.979-11.633-25.979-25.979v-13.652h12.557v13.652c-.001 12.182 8.399 22.429 19.715 25.229z" fill="#fcb0b0"/></g></g><g><g><path d="m429.445 182.03c-1.992.49-4.099.75-6.293.75-14.346 0-25.979-11.633-25.979-25.979v-13.652h12.557v13.652c-.001 12.182 8.399 22.429 19.715 25.229z" fill="#fcb0b0"/></g></g><g><g><path d="m325.528 182.03c-1.992.49-4.099.75-6.293.75-14.346 0-25.979-11.633-25.979-25.979v-13.652h12.557v13.652c-.001 12.182 8.399 22.429 19.715 25.229z" fill="#fcb0b0"/></g></g><g><g><path d="m169.652 182.03c-1.992.49-4.099.75-6.293.75-14.346 0-25.979-11.633-25.979-25.979v-13.652h12.557v13.652c-.001 12.182 8.399 22.429 19.715 25.229z" fill="#fee8b3"/></g></g><g><g><path d="m377.486 182.03c-1.992.49-4.099.75-6.293.75-14.346 0-25.979-11.633-25.979-25.979v-13.652h12.557v13.652c0 12.182 8.4 22.429 19.715 25.229z" fill="#fee8b3"/></g></g><g><g><path d="m273.569 182.03c-1.992.49-4.099.75-6.293.75-14.346 0-25.979-11.633-25.979-25.979v-13.652h12.557v13.652c0 12.182 8.399 22.429 19.715 25.229z" fill="#fee8b3"/></g></g><g><g><path d="m481.404 182.03c-1.992.49-4.099.75-6.293.75-14.346 0-25.979-11.633-25.979-25.979v-13.652h12.557v13.652c-.001 12.182 8.399 22.429 19.715 25.229z" fill="#fee8b3"/></g></g></g><g><g><g><path d="m176.758 72.25-26.822 70.929h-12.557l27.14-70.929z" fill="#fee8b3"/></g></g><g><g><path d="m220.958 72.25-19.063 70.9v.029h-12.557v-.029l19.381-70.9z" fill="#fcb0b0"/></g></g><g><g><path d="m265.159 72.25-11.305 70.929h-12.557l11.623-70.929z" fill="#fee8b3"/></g></g><g><g><path d="m309.359 72.25-3.547 70.929h-12.557l3.865-70.929z" fill="#fcb0b0"/></g></g><g><g><path d="m357.771 143.179h-12.557l-3.893-70.929h12.266z" fill="#fee8b3"/></g></g><g><g><path d="m409.729 143.179h-12.557l-11.623-70.929h12.239z" fill="#fcb0b0"/></g></g><g><g><path d="m461.688 143.179h-12.557l-19.381-70.929h12.239z" fill="#fee8b3"/></g></g></g></g><g><g><g><g><path d="m241.295 143.15v13.652c0 7.159-2.915 13.682-7.621 18.359-4.705 4.705-11.171 7.621-18.358 7.621-2.165 0-4.243-.26-6.264-.75 4.647-1.184 8.775-3.579 12.066-6.87 4.705-4.676 7.62-11.2 7.62-18.359v-13.652z" fill="#f96364"/></g></g><g><g><path d="m449.129 143.15v13.652c0 7.159-2.915 13.682-7.621 18.359-4.705 4.705-11.171 7.621-18.358 7.621-2.165 0-4.243-.26-6.264-.75 4.647-1.184 8.775-3.579 12.066-6.87 4.705-4.676 7.62-11.2 7.62-18.359v-13.652z" fill="#f96364"/></g></g><g><g><path d="m345.212 143.15v13.652c0 7.159-2.916 13.682-7.621 18.359-4.705 4.705-11.171 7.621-18.358 7.621-2.165 0-4.243-.26-6.264-.75 4.647-1.184 8.775-3.579 12.066-6.87 4.705-4.676 7.62-11.2 7.62-18.359v-13.652z" fill="#f96364"/></g></g><g><g><path d="m189.336 143.15v13.652c0 7.159-2.915 13.682-7.621 18.359-4.705 4.705-11.171 7.621-18.358 7.621-2.165 0-4.243-.26-6.264-.75 4.647-1.184 8.775-3.579 12.066-6.87 4.705-4.676 7.62-11.2 7.62-18.359v-13.652z" fill="#fdd267"/></g></g><g><g><path d="m397.171 143.15v13.652c0 7.159-2.916 13.682-7.621 18.359-4.705 4.705-11.171 7.621-18.358 7.621-2.165 0-4.243-.26-6.264-.75 4.647-1.184 8.775-3.579 12.066-6.87 4.705-4.676 7.62-11.2 7.62-18.359v-13.652z" fill="#fdd267"/></g></g><g><g><path d="m293.254 143.15v13.652c0 7.159-2.916 13.682-7.621 18.359-4.705 4.705-11.171 7.621-18.358 7.621-2.165 0-4.243-.26-6.264-.75 4.647-1.184 8.775-3.579 12.066-6.87 4.705-4.676 7.62-11.2 7.62-18.359v-13.652z" fill="#fdd267"/></g></g><g><g><path d="m501.088 143.15v13.652c0 7.159-2.915 13.682-7.621 18.359-4.705 4.705-11.171 7.621-18.358 7.621-2.165 0-4.243-.26-6.264-.75 4.647-1.184 8.775-3.579 12.066-6.87 4.705-4.676 7.62-11.2 7.62-18.359v-13.652z" fill="#fdd267"/></g></g></g><g><g><g><path d="m208.714 72.25-19.382 70.929h-12.557l19.699-70.929z" fill="#fdd267"/></g></g><g><g><path d="m252.92 72.25-11.623 70.9v.029h-12.557v-.029l11.941-70.9z" fill="#f96364"/></g></g><g><g><path d="m297.126 72.25-3.864 70.929h-12.557l4.183-70.929z" fill="#fdd267"/></g></g><g><g><path d="m345.209 143.179h-12.557l-3.575-70.929h12.266z" fill="#f96364"/></g></g><g><g><path d="m397.167 143.179h-12.557l-11.305-70.929h12.239z" fill="#fdd267"/></g></g><g><g><path d="m449.126 143.179h-12.557l-19.064-70.929h12.24z" fill="#f96364"/></g></g><g><g><path d="m501.084 143.179h-12.556l-26.822-70.929h12.239z" fill="#fdd267"/></g></g></g></g></g></g></g></g><g><g><g><path d="m249.818 420.223c0 10.785-8.731 19.516-19.515 19.516s-19.516-8.731-19.516-19.516c0-10.784 8.731-19.516 19.516-19.516s19.515 8.732 19.515 19.516z" fill="#a8b1b3"/></g><g><path d="m131.427 420.223c0 10.785-8.731 19.516-19.515 19.516-10.785 0-19.516-8.731-19.516-19.516 0-10.784 8.731-19.516 19.516-19.516s19.515 8.732 19.515 19.516z" fill="#a8b1b3"/></g></g><g><g><path d="m249.817 420.233c0 10.785-8.721 19.506-19.506 19.506-7.952 0-14.805-4.744-17.836-11.554 2.438 1.098 5.14 1.713 7.974 1.713 10.785 0 19.528-8.742 19.528-19.528 0-2.834-.615-5.535-1.714-7.974 6.809 3.032 11.554 9.885 11.554 17.837z" fill="#7c8b8d"/></g><g><path d="m131.425 420.233c0 10.785-8.72 19.506-19.506 19.506-7.952 0-14.805-4.744-17.837-11.554 2.438 1.098 5.14 1.713 7.974 1.713 10.785 0 19.528-8.742 19.528-19.528 0-2.834-.615-5.535-1.714-7.974 6.811 3.032 11.555 9.885 11.555 17.837z" fill="#7c8b8d"/></g></g><g><path d="m301.352 238.529-25.48 107.678c-1.274 5.338-6.019 9.094-11.488 9.094h-173.368c-6.283 0-11.928 2.526-16.036 6.634-1.428 1.428-2.636 3.01-3.646 4.789l23.855-142.714h194.675c7.6-.001 13.223 7.094 11.488 14.519z" fill="#fb8a8a"/></g><g><path d="m122.99 224.009-21.944 131.292h-10.039c-6.283 0-11.928 2.526-16.036 6.634-1.427 1.428-2.636 3.01-3.646 4.789l23.855-142.714z" fill="#fcb1b1"/></g><g><path d="m301.352 238.529-25.481 107.678c-1.274 5.338-6.019 9.094-11.488 9.094h-27.809c5.469 0 10.214-3.756 11.488-9.094l25.48-107.678c1.735-7.425-3.888-14.52-11.488-14.52h27.809c7.601 0 13.224 7.095 11.489 14.52z" fill="#f96363"/></g><path d="m505.038 143.039c0-.44-.04-.881-.2-1.32l-.08-.12-26.96-70.479v-37.24c0-18.68-15.2-33.88-33.88-33.88h-249.32c-18.72 0-33.92 15.2-33.92 33.88v37.2l-27.04 70.64c-.16.439-.2.88-.24 1.32v13.76c0 15.64 12 28.48 27.28 29.88v33.331h-60.769l5.611-33.578c1.145-6.852-.773-13.82-5.262-19.121s-11.047-8.344-17.996-8.344h-35.555c-2.211 0-4 1.789-4 4s1.789 4 4 4h35.555c4.59 0 8.926 2.008 11.891 5.512 2.969 3.504 4.234 8.109 3.477 12.633l-30.14 180.34c-2.014 3.749-3.173 8.014-3.173 12.547 0 14.72 12 26.72 26.721 26.72h3.237c-3.647 4.145-5.88 9.562-5.88 15.502 0 12.965 10.551 23.516 23.516 23.516s23.516-10.551 23.516-23.516c0-5.94-2.232-11.357-5.88-15.502h31.131v73.36c0 18.68 15.2 33.92 33.92 33.92h249.32c18.68 0 33.88-15.2 33.88-33.88v-291.44c7-.64 13.48-3.64 18.48-8.68 5.68-5.64 8.8-13.16 8.8-21.2v-13.64c0-.04 0-.081-.04-.121zm-9.76-3.88h-43.08l-.721-2.64-16.479-60.28h36.2zm-146.08 8h43.96v9.641c0 5.88-2.28 11.4-6.44 15.561-4.16 4.159-9.68 6.439-15.52 6.439-12.12 0-22-9.88-22-22zm-.2-8-3.4-62.319-.04-.601h36.601l10.279 62.92zm41.239-62.92h36.44l.72 2.641 16.48 60.279h-43.32zm10.921 70.92h43.96v9.641c0 5.88-2.28 11.4-6.44 15.561-4.16 4.159-9.68 6.439-15.52 6.439-12.12 0-22-9.88-22-22zm-232.481-113.28c0-14.28 11.601-25.88 25.92-25.88h249.32c14.28 0 25.88 11.6 25.88 25.88v34.359h-301.12zm172.521 113.28v9.641c0 5.88-2.28 11.4-6.44 15.561-4.16 4.159-9.68 6.439-15.521 6.439-12.119 0-22-9.88-22-22v-9.641zm-43.721-8 .04-.6 3.4-62.32h36.64l3.4 62.32.04.6zm-102.92 0 15.601-57.039 1.6-5.881h36.44l-10.32 62.92zm42.721 8v9.641c0 5.88-2.28 11.4-6.44 15.561-4.16 4.159-9.68 6.439-15.521 6.439-12.119 0-22-9.88-22-22v-9.641zm8 0h43.959v9.641c0 5.88-2.279 11.4-6.439 15.561-4.16 4.159-9.68 6.439-15.52 6.439-12.12 0-22-9.88-22-22zm.72-8 10.319-62.92h36.601l-.04.601-3.4 62.319zm-78.72-62.92h36.199l-15.6 57.041-1.6 5.879h-43.08zm-25.881 80.56v-9.641h43.92v9.641c0 5.88-2.279 11.4-6.439 15.561-4.16 4.159-9.68 6.439-15.52 6.439-12.121 0-21.961-9.88-21.961-22zm-42.822 71.211h191.289c2.391 0 4.617 1.074 6.105 2.953 1.492 1.883 2.035 4.309 1.488 6.656l-25.477 107.655c-.848 3.547-3.969 6.023-7.598 6.023h-173.367c-4.898 0-9.589 1.309-13.676 3.754l2.074-12.408zm114.123 207.709h-44.021v-31h43.988c-3.647 4.145-5.88 9.562-5.88 15.502.001 5.949 2.253 11.358 5.913 15.498zm-100.787.018c-8.555 0-15.516-6.961-15.516-15.516 0-8.508 6.89-15.428 15.381-15.502h.27c8.491.074 15.381 6.994 15.381 15.502-.001 8.555-6.962 15.516-15.516 15.516zm48.766-39.018h-69.64c-10.32 0-18.721-8.4-18.721-18.72 0-3.702 1.114-7.13 2.977-10.032.149-.236.303-.471.461-.697 3.392-4.798 8.966-7.951 15.283-7.951.034 0 .063-.019.096-.02h69.544zm309.12 81.401c0 14.279-11.6 25.88-25.88 25.88h-249.32c-14.319 0-25.92-11.64-25.92-25.92v-34.36h301.12zm-255.011-57.899c0-8.508 6.89-15.428 15.381-15.502h.15c.014 0 .025-.008.04-.008 8.528.03 15.46 6.975 15.46 15.51 0 8.495-6.869 15.402-15.342 15.498h-.348c-8.472-.096-15.341-7.003-15.341-15.498zm255.011 15.498h-221.893c3.66-4.141 5.912-9.549 5.912-15.498 0-12.965-10.551-23.516-23.516-23.516-.091 0-.18.013-.27.014h-61.354v-37.42h95.706c7.348 0 13.672-5.004 15.379-12.172l25.48-107.676c.004-.004.004-.008.004-.012 1.109-4.738.008-9.641-3.012-13.449-3.016-3.801-7.523-5.98-12.371-5.98h-121.187v-33.691c5.96-1.08 11.48-3.92 15.84-8.319 1.92-1.88 3.521-4 4.841-6.28 5.159 9 14.84 15.08 25.959 15.08 8 0 15.521-3.12 21.16-8.8 1.92-1.88 3.521-4 4.84-6.28 5.16 9 14.841 15.08 25.961 15.08 8 0 15.52-3.12 21.159-8.8 1.921-1.88 3.521-4 4.841-6.28 5.159 9 14.84 15.08 25.959 15.08 8 0 15.521-3.12 21.16-8.8 1.92-1.88 3.521-4 4.84-6.28 5.16 9 14.841 15.08 25.961 15.08 8 0 15.52-3.12 21.16-8.8 1.92-1.88 3.52-4 4.84-6.28 5.16 9 14.84 15.08 25.96 15.08 8 0 15.52-3.12 21.159-8.8 1.92-1.88 3.521-4 4.801-6.28 4.359 7.52 11.84 12.96 20.68 14.561zm27.281-278.92c0 5.88-2.28 11.4-6.44 15.561-4.16 4.159-9.68 6.439-15.52 6.439-12.12 0-22-9.88-22-22v-9.641h43.96z" fill="#333"/></g><g><g><path d="m39.536 357.85h-28.613c-2.211 0-4-1.789-4-4s1.789-4 4-4h28.613c2.211 0 4 1.789 4 4s-1.789 4-4 4z" fill="#333"/></g><g><path d="m48.645 335.784h-37.723c-2.211 0-4-1.789-4-4s1.789-4 4-4h37.723c2.211 0 4 1.789 4 4s-1.789 4-4 4z" fill="#333"/></g><g><path d="m57.727 313.717h-46.805c-2.211 0-4-1.789-4-4s1.789-4 4-4h46.805c2.211 0 4 1.789 4 4s-1.789 4-4 4z" fill="#333"/></g><g><path d="m66.809 291.651h-55.887c-2.211 0-4-1.789-4-4s1.789-4 4-4h55.887c2.211 0 4 1.789 4 4s-1.789 4-4 4z" fill="#333"/></g></g></g></g></svg>