<svg id="Layer_1" enable-background="new 0 0 512 512" viewBox="0 0 512 512" xmlns="http://www.w3.org/2000/svg" xmlns:xlink="http://www.w3.org/1999/xlink"><linearGradient id="SVGID_1_" gradientUnits="userSpaceOnUse" x1="255.999" x2="255.999" y1="15" y2="496.962"><stop offset="0" stop-color="#a03a8d"/><stop offset="1" stop-color="#1f3c8d"/></linearGradient><path d="m254.43 311.08c-.1 0-.2.01-.3.01-3.18 0-5.83-2.5-5.99-5.71-.16-3.31 2.39-6.12 5.7-6.28 66.22-3.21 114.33-35.89 150.51-102.51l-8.62 2.86c-3.15 1.04-6.54-.66-7.59-3.8-1.04-3.14.66-6.54 3.8-7.59l22.61-7.51c1.51-.5 3.16-.38 4.58.33s2.5 1.96 3 3.47l7.51 22.61c1.04 3.14-.66 6.54-3.8 7.59-.63.21-1.27.31-1.89.31-2.51 0-4.86-1.59-5.69-4.11l-3.01-9.06c-38.35 71.08-89.74 105.94-160.82 109.39zm242.57-276.58v324 18.45c0 6.33-5.15 11.48-11.48 11.48h-12.93c-.96 2.85-2.12 5.66-3.47 8.37l9.15 9.15c4.48 4.48 4.48 11.76 0 16.24l-13.05 13.05c-4.48 4.48-11.76 4.48-16.24 0l-9.15-9.15c-2.71 1.35-5.52 2.52-8.37 3.47v12.93c0 6.33-5.15 11.48-11.48 11.48h-18.45c-6.33 0-11.48-5.15-11.48-11.48v-12.93c-2.86-.96-5.67-2.12-8.37-3.47l-9.15 9.15c-4.48 4.48-11.76 4.48-16.24 0l-13.05-13.04c-4.48-4.48-4.48-11.76 0-16.24l9.15-9.15c-1.35-2.7-2.51-5.51-3.47-8.37h-12.92c-6.33 0-11.48-5.15-11.48-11.48v-3.22h-35.46c.19 1.46.3 2.94.3 4.45v24.69l17.28-.42c7.85-.18 15.01 2.61 20.64 8.11s8.61 12.57 8.61 20.44v24.36c0 14.37-8.3 31.48-24.16 36.38-12.02 3.71-23.58 5.23-34.63 5.23-18.9 0-36.31-4.42-52-9.84-.73 2.49-3.03 4.32-5.76 4.32h-38.35c-3.31 0-6-2.69-6-6v-82.35c0-3.31 2.69-6 6-6h38.35c2.83 0 5.2 1.96 5.83 4.6 9.32-.64 15.6-2.88 18.67-6.7 4.01-4.99 2.77-13.33 1.1-21.26h-73.98l2.19 8.17c1.25 4.66.6 9.54-1.82 13.74-2.43 4.2-6.33 7.2-10.99 8.45-1.55.42-3.13.62-4.7.62-3.14 0-6.25-.83-9.05-2.44-2.81-1.62-5.07-3.92-6.64-6.65-12.01-7.84-46.21-16.52-54.04-14.58l-6.39 1.71 16.97 27.09c4.34 6.93 2.82 15.62-3.54 20.21-2.6 1.87-5.6 2.77-8.58 2.77-4.57 0-9.08-2.12-11.95-6.1l-26.26-36.44c-4.33-.18-8.56-1.32-12.42-3.41-6.59-3.57-11.26-9.41-13.15-16.47l-4.7-17.55c-3.88-14.47 5.26-29.53 20.36-33.58l2.11-.57v-284.22c0-10.75 8.75-19.5 19.5-19.5h419.64c10.75 0 19.5 8.75 19.5 19.5zm-446.64 0v58.86h434.64v-58.86c0-4.13-3.36-7.5-7.5-7.5h-419.64c-4.13 0-7.5 3.36-7.5 7.5zm-10.91 341.84c3.77 2.04 8.19 2.53 12.46 1.39l25.19-6.75-6.06-22.63-7.06-24.06-24.62 6.6c-8.71 2.33-14.04 10.8-11.88 18.88l4.7 17.55c1.03 3.84 3.61 7.04 7.27 9.02zm27.96 9.66-8.01 2.15 22.76 31.56c.86 1.19 2.59 1.47 3.78.61 1.33-.96 1.19-2.83.39-4.1zm15.2-40.82 6.34 23.66c11.92.09 31.94 5.25 46.15 11.08l-24.88-92.85c-9.51 12.2-24.58 26.95-34.94 33.11l7.29 24.86c.01.05.03.09.04.14zm78.95 39.82-31.28-116.73c-.73-2.73-3.21-4.54-5.92-4.54-.52 0-1.05.07-1.58.21-1.57.42-2.88 1.44-3.71 2.86-.82 1.42-1.04 3.07-.62 4.64l31.28 116.73c.42 1.57 1.44 2.88 2.86 3.71 1.43.82 3.07 1.04 4.64.62s2.88-1.44 3.71-2.86c.82-1.42 1.04-3.07.62-4.64zm7.55-49.87c2.68-4.65 3.4-10.06 2.01-15.24-2.33-8.68-10.03-14.51-18.57-14.87l9.92 37.03c2.72-1.71 4.99-4.06 6.64-6.92zm44.23 73.96h-26.35v70.35h26.35zm70.16 5.92c-1.63.05-3.18-.58-4.34-1.7-1.16-1.13-1.81-2.68-1.81-4.29v-30.83c0-12.04-9.79-21.83-21.83-21.83-.57 0-.95.05-1.18.09-.46 1.99.79 7.72 1.64 11.59 2.38 10.85 5.34 24.35-2.8 34.47-5.38 6.69-14.53 10.38-27.85 11.2v60.78c24.8 8.96 51.97 15.33 82.85 5.79 9.83-3.04 15.7-15.05 15.7-24.91v-24.37c0-4.7-1.63-8.57-4.99-11.85s-7.28-4.84-11.97-4.71zm52.5-67.99h12.93c.96-2.86 2.12-5.67 3.47-8.37l-9.15-9.15c-2.17-2.17-3.36-5.05-3.36-8.12s1.19-5.95 3.36-8.12l13.05-13.05c4.48-4.48 11.76-4.48 16.24 0l9.15 9.15c2.7-1.35 5.51-2.51 8.37-3.47v-12.93c0-6.33 5.15-11.48 11.48-11.48h18.45c6.33 0 11.48 5.15 11.48 11.48v12.93c2.86.96 5.67 2.12 8.37 3.47l9.15-9.15c4.48-4.48 11.76-4.48 16.24 0l13.05 13.05c2.17 2.16 3.36 5.05 3.36 8.12s-1.19 5.96-3.36 8.12l-9.15 9.15c1.35 2.7 2.51 5.51 3.47 8.37h12.4v-241.66h-434.64v210.16l16.08-4.31c7.59-2.18 33.07-26.85 39.9-39.61-.36-3.73.42-7.47 2.34-10.79 2.43-4.2 6.33-7.2 10.99-8.45s9.55-.6 13.75 1.82c4.2 2.43 7.2 6.33 8.45 10.99l7.48 27.92c15.06-1.11 29.3 8.58 33.35 23.69 2.22 8.28 1.08 16.92-3.21 24.35-3.27 5.66-8.07 10.08-13.83 12.85l2.08 7.75h74.82c-.66-5.07-.37-9.49 2.44-12.99 2.34-2.92 5.88-4.39 10.52-4.39 12.68 0 23.75 7.02 29.54 17.38h39.44v-3.23c.01-6.33 5.16-11.48 11.5-11.48zm149 12h-12.79c-4.97 0-9.36-3.17-10.91-7.9-.83-2.52-1.86-5.01-3.06-7.38-2.25-4.44-1.4-9.79 2.12-13.31l9.05-9.05-12.31-12.31-9.05 9.05c-3.52 3.52-8.87 4.37-13.31 2.13-2.37-1.2-4.86-2.23-7.38-3.06-4.72-1.55-7.9-5.94-7.9-10.91v-12.79h-17.41v12.79c0 4.97-3.17 9.36-7.9 10.91-2.52.83-5.01 1.86-7.38 3.06-4.44 2.25-9.79 1.39-13.31-2.12l-9.05-9.05-12.31 12.31 9.05 9.05c3.52 3.52 4.37 8.87 2.13 13.3-1.2 2.38-2.23 4.86-3.06 7.38-1.55 4.72-5.94 7.9-10.91 7.9h-12.79v17.42h12.79c4.97 0 9.36 3.17 10.91 7.9.83 2.52 1.86 5 3.06 7.38 2.25 4.44 1.4 9.79-2.12 13.31l-9.05 9.05 12.31 12.31 9.05-9.05c3.52-3.52 8.87-4.37 13.31-2.12 2.37 1.2 4.86 2.23 7.38 3.06 4.72 1.55 7.9 5.94 7.9 10.91v12.79h17.41v-12.79c0-4.97 3.17-9.35 7.9-10.91 2.52-.83 5-1.86 7.38-3.06 4.44-2.25 9.79-1.4 13.31 2.12l9.05 9.05 12.31-12.31-9.05-9.05c-3.52-3.52-4.37-8.87-2.12-13.31 1.2-2.38 2.23-4.86 3.06-7.38 1.55-4.72 5.94-7.9 10.91-7.9h12.78zm-334.94-197.83c.75 2.32.03 4.86-1.83 6.44l-13.79 11.67 4.3 17.54c.58 2.37-.33 4.85-2.3 6.28s-4.61 1.53-6.69.25l-15.36-9.51-15.36 9.51c-.97.6-2.07.9-3.16.9-1.24 0-2.48-.38-3.53-1.15-1.97-1.43-2.88-3.92-2.3-6.28l4.3-17.54-13.79-11.67c-1.86-1.57-2.58-4.12-1.83-6.44s2.83-3.95 5.26-4.13l18.01-1.33 6.83-16.72c.92-2.26 3.12-3.73 5.55-3.73s4.63 1.47 5.55 3.73l6.83 16.72 18.02 1.33c2.46.18 4.54 1.81 5.29 4.13zm-20.79 6.76-7.08-.52c-2.27-.17-4.25-1.61-5.11-3.71l-2.68-6.57-2.68 6.57c-.86 2.11-2.84 3.55-5.11 3.71l-7.08.52 5.42 4.58c1.74 1.47 2.49 3.8 1.95 6.01l-1.69 6.89 6.03-3.74c.97-.6 2.06-.9 3.16-.9s2.19.3 3.16.9l6.03 3.74-1.69-6.89c-.54-2.21.21-4.54 1.95-6.01zm106.71-6.76c.75 2.32.03 4.86-1.83 6.44l-13.79 11.67 4.3 17.54c.58 2.37-.33 4.85-2.3 6.28-1.05.76-2.29 1.15-3.53 1.15-1.09 0-2.19-.3-3.16-.9l-15.36-9.51-15.36 9.51c-2.07 1.29-4.71 1.19-6.69-.25s-2.88-3.92-2.3-6.28l4.3-17.54-13.79-11.67c-1.86-1.57-2.58-4.12-1.83-6.44s2.83-3.95 5.26-4.13l18.01-1.33 6.83-16.72c.92-2.26 3.12-3.73 5.55-3.73s4.63 1.47 5.55 3.73l6.83 16.72 18.01 1.33c2.47.18 4.55 1.81 5.3 4.13zm-20.79 6.76-7.08-.52c-2.27-.17-4.25-1.61-5.11-3.71l-2.68-6.57-2.68 6.57c-.86 2.11-2.84 3.55-5.11 3.71l-7.08.52 5.42 4.58c1.74 1.47 2.49 3.8 1.95 6.01l-1.69 6.89 6.03-3.74c1.94-1.2 4.38-1.2 6.32 0l6.03 3.74-1.69-6.89c-.54-2.21.21-4.54 1.95-6.01zm36.04-6.76c.75-2.32 2.83-3.95 5.26-4.13l35.87-2.65 13.6-33.29c.92-2.26 3.12-3.73 5.55-3.73s4.63 1.47 5.55 3.73l13.6 33.29 35.87 2.65c2.43.18 4.51 1.81 5.26 4.13s.03 4.86-1.83 6.44l-27.46 23.23 8.56 34.93c.58 2.37-.33 4.85-2.3 6.28-1.05.76-2.29 1.15-3.53 1.15-1.09 0-2.19-.3-3.16-.9l-30.57-18.94-30.57 18.94c-2.07 1.29-4.71 1.19-6.69-.25s-2.88-3.92-2.3-6.28l8.56-34.93-27.46-23.23c-1.84-1.58-2.56-4.12-1.81-6.44zm20.79 6.76 19.09 16.14c1.74 1.47 2.49 3.8 1.95 6.01l-5.95 24.28 21.25-13.16c.97-.6 2.06-.9 3.16-.9s2.19.3 3.16.9l21.25 13.16-5.95-24.28c-.54-2.21.21-4.54 1.95-6.01l19.09-16.14-24.93-1.84c-2.27-.17-4.25-1.61-5.11-3.71l-9.46-23.14-9.46 23.14c-.86 2.11-2.84 3.55-5.11 3.71zm177.6 199.78c0 21.43-17.43 38.86-38.86 38.86s-38.86-17.43-38.86-38.86 17.43-38.86 38.86-38.86c21.42 0 38.86 17.43 38.86 38.86zm-12 0c0-14.81-12.05-26.86-26.86-26.86s-26.86 12.05-26.86 26.86 12.05 26.86 26.86 26.86 26.86-12.05 26.86-26.86zm-226.96-62.22-15.39 4.12c-3.2.86-5.1 4.15-4.24 7.35.72 2.68 3.14 4.45 5.79 4.45.51 0 1.04-.07 1.56-.21l15.39-4.12c3.2-.86 5.1-4.15 4.24-7.35s-4.15-5.09-7.35-4.24zm3.11 27.56-15.39-4.12c-3.2-.85-6.49 1.04-7.35 4.24s1.04 6.49 4.24 7.35l15.39 4.12c.52.14 1.04.21 1.56.21 2.65 0 5.07-1.77 5.79-4.45.86-3.2-1.04-6.49-4.24-7.35zm-11.09-41.38c2.34-2.34 2.34-6.14 0-8.49s-6.14-2.34-8.49 0l-11.27 11.27c-2.34 2.34-2.34 6.14 0 8.49 1.17 1.17 2.71 1.76 4.24 1.76 1.54 0 3.07-.59 4.24-1.76zm94.17-230.49c0-10.42 8.48-18.9 18.9-18.9h130.56c10.42 0 18.9 8.48 18.9 18.9s-8.48 18.9-18.9 18.9h-130.56c-10.42.01-18.9-8.47-18.9-18.9zm12 0c0 3.81 3.1 6.9 6.9 6.9h130.56c3.81 0 6.9-3.1 6.9-6.9s-3.1-6.9-6.9-6.9h-130.56c-3.81 0-6.9 3.1-6.9 6.9zm-225.75 0c0-9.79 7.96-17.75 17.75-17.75s17.75 7.96 17.75 17.75-7.96 17.75-17.75 17.75-17.75-7.96-17.75-17.75zm12 0c0 3.17 2.58 5.75 5.75 5.75s5.75-2.58 5.75-5.75-2.58-5.75-5.75-5.75-5.75 2.58-5.75 5.75zm34.23 0c0-9.79 7.96-17.75 17.75-17.75s17.75 7.96 17.75 17.75-7.96 17.75-17.75 17.75c-9.78.01-17.75-7.96-17.75-17.75zm12 0c0 3.17 2.58 5.75 5.75 5.75s5.75-2.58 5.75-5.75-2.58-5.75-5.75-5.75-5.75 2.58-5.75 5.75zm34.23 0c0-9.79 7.96-17.75 17.75-17.75s17.75 7.96 17.75 17.75-7.96 17.75-17.75 17.75c-9.78.01-17.75-7.96-17.75-17.75zm12 0c0 3.17 2.58 5.75 5.75 5.75s5.75-2.58 5.75-5.75-2.58-5.75-5.75-5.75-5.75 2.58-5.75 5.75z" fill="url(#SVGID_1_)"/></svg>