<svg viewBox="0 0 64 64" xmlns="http://www.w3.org/2000/svg"><path d="m42 18h8a6 6 0 0 1 6 6v4a0 0 0 0 1 0 0h-20a0 0 0 0 1 0 0v-4a6 6 0 0 1 6-6z" fill="#005b8a"/><path d="m56 28.5h-20a.5.5 0 0 1 -.5-.5v-4a6.508 6.508 0 0 1 6.5-6.5h8a6.508 6.508 0 0 1 6.5 6.5v4a.5.5 0 0 1 -.5.5zm-19.5-1h19v-3.5a5.506 5.506 0 0 0 -5.5-5.5h-8a5.506 5.506 0 0 0 -5.5 5.5z" fill="#212a41"/><path d="m52 18h-7a6 6 0 0 0 -6 6v4h19v-4a6 6 0 0 0 -6-6z" fill="#d32e5e"/><path d="m58 28.5h-19a.5.5 0 0 1 -.5-.5v-4a6.508 6.508 0 0 1 6.5-6.5h7a6.508 6.508 0 0 1 6.5 6.5v4a.5.5 0 0 1 -.5.5zm-18.5-1h18v-3.5a5.506 5.506 0 0 0 -5.5-5.5h-7a5.506 5.506 0 0 0 -5.5 5.5z" fill="#212a41"/><rect fill="#e0c8a4" height="12" rx="4" width="10" x="43" y="6"/><path d="m49 18.5h-2a4.505 4.505 0 0 1 -4.5-4.5v-4a4.505 4.505 0 0 1 4.5-4.5h2a4.505 4.505 0 0 1 4.5 4.5v4a4.505 4.505 0 0 1 -4.5 4.5zm-2-12a3.5 3.5 0 0 0 -3.5 3.5v4a3.5 3.5 0 0 0 3.5 3.5h2a3.5 3.5 0 0 0 3.5-3.5v-4a3.5 3.5 0 0 0 -3.5-3.5z" fill="#212a41"/><path d="m45.027 18.922a4 4 0 0 0 6.946 0l.513-.9c-.161-.01-.322-.022-.486-.022h-7c-.164 0-.325.012-.486.025z" fill="#e0c8a4"/><path d="m48.5 21.438a4.451 4.451 0 0 1 -3.907-2.268l-.513-.9a.5.5 0 0 1 -.009-.481.5.5 0 0 1 .4-.265c.173-.014.347-.026.525-.026h7c.178 0 .352.012.525.026a.5.5 0 0 1 .4.265.5.5 0 0 1 -.009.481l-.514.9a4.449 4.449 0 0 1 -3.898 2.268zm-3.139-2.938.1.174a3.5 3.5 0 0 0 6.076 0l.1-.174z" fill="#212a41"/><path d="m54 8v2h-12v-2a4 4 0 0 1 4-4h4a4 4 0 0 1 4 4z" fill="#f9ac2f"/><path d="m54 10.5h-12a.5.5 0 0 1 -.5-.5v-2a4.505 4.505 0 0 1 4.5-4.5h4a4.505 4.505 0 0 1 4.5 4.5v2a.5.5 0 0 1 -.5.5zm-11.5-1h11v-1.5a3.5 3.5 0 0 0 -3.5-3.5h-4a3.5 3.5 0 0 0 -3.5 3.5z" fill="#212a41"/><path d="m42 10h3a0 0 0 0 1 0 0v2a1 1 0 0 1 -1 1h-2a0 0 0 0 1 0 0v-3a0 0 0 0 1 0 0z" fill="#f9ac2f"/><path d="m44 13.5h-2a.5.5 0 0 1 -.5-.5v-3a.5.5 0 0 1 .5-.5h3a.5.5 0 0 1 .5.5v2a1.5 1.5 0 0 1 -1.5 1.5zm-1.5-1h1.5a.5.5 0 0 0 .5-.5v-1.5h-2z" fill="#212a41"/><path d="m56 26.5a.5.5 0 0 1 -.5-.5v-2a3.486 3.486 0 0 0 -2.2-3.252.5.5 0 0 1 .371-.929 4.481 4.481 0 0 1 2.829 4.181v2a.5.5 0 0 1 -.5.5z" fill="#b51040"/><path d="m4 28h46v4h-46z" fill="#c2c2c2"/><path d="m50 32.5h-46a.5.5 0 0 1 -.5-.5v-4a.5.5 0 0 1 .5-.5h46a.5.5 0 0 1 .5.5v4a.5.5 0 0 1 -.5.5zm-45.5-1h45v-3h-45z" fill="#212a41"/><path d="m46.4 39.2-14.4 10.8h-10l-14.4-10.8a4 4 0 0 1 -1.6-3.2v-4h42v4a4 4 0 0 1 -1.6 3.2z" fill="#c2c2c2"/><path d="m32 50.5h-10a.5.5 0 0 1 -.3-.1l-14.4-10.8a4.521 4.521 0 0 1 -1.8-3.6v-4a.5.5 0 0 1 .5-.5h42a.5.5 0 0 1 .5.5v4a4.521 4.521 0 0 1 -1.8 3.6l-14.4 10.8a.5.5 0 0 1 -.3.1zm-9.833-1h9.666l14.267-10.7a3.517 3.517 0 0 0 1.4-2.8v-3.5h-41v3.5a3.517 3.517 0 0 0 1.4 2.8z" fill="#212a41"/><path d="m22 50h10v10h-10z" fill="#c2c2c2"/><path d="m32 60.5h-10a.5.5 0 0 1 -.5-.5v-10a.5.5 0 0 1 .5-.5h10a.5.5 0 0 1 .5.5v10a.5.5 0 0 1 -.5.5zm-9.5-1h9v-9h-9z" fill="#212a41"/><path d="m14 28h46v4h-46z" fill="#e0e0e0"/><path d="m60 32.5h-46a.5.5 0 0 1 -.5-.5v-4a.5.5 0 0 1 .5-.5h46a.5.5 0 0 1 .5.5v4a.5.5 0 0 1 -.5.5zm-45.5-1h45v-3h-45z" fill="#212a41"/><path d="m56.4 39.2-14.4 10.8h-10l-14.4-10.8a4 4 0 0 1 -1.6-3.2v-4h42v4a4 4 0 0 1 -1.6 3.2z" fill="#e0e0e0"/><path d="m42 50.5h-10a.5.5 0 0 1 -.3-.1l-14.4-10.8a4.521 4.521 0 0 1 -1.8-3.6v-4a.5.5 0 0 1 .5-.5h42a.5.5 0 0 1 .5.5v4a4.521 4.521 0 0 1 -1.8 3.6l-14.4 10.8a.5.5 0 0 1 -.3.1zm-9.833-1h9.666l14.267-10.7a3.517 3.517 0 0 0 1.4-2.8v-3.5h-41v3.5a3.517 3.517 0 0 0 1.4 2.8z" fill="#212a41"/><path d="m32.667 48.5a.5.5 0 0 1 -.3-.1l-13.867-10.4a2.511 2.511 0 0 1 -1-2v-2a.5.5 0 0 1 1 0v2a1.511 1.511 0 0 0 .6 1.2l13.867 10.4a.5.5 0 0 1 -.3.9z" fill="#fefefe"/><path d="m22.667 48.5a.5.5 0 0 1 -.3-.1l-13.867-10.4a2.511 2.511 0 0 1 -1-2v-2a.5.5 0 0 1 1 0v2a1.511 1.511 0 0 0 .6 1.2l13.867 10.4a.5.5 0 0 1 -.3.9z" fill="#e0e0e0"/><path d="m41.333 48.5a.5.5 0 0 1 -.3-.9l13.867-10.4a1.511 1.511 0 0 0 .6-1.2v-2a.5.5 0 0 1 1 0v2a2.511 2.511 0 0 1 -1 2l-13.867 10.4a.5.5 0 0 1 -.3.1z" fill="#c2c2c2"/><path d="m32 50h10v10h-10z" fill="#e0e0e0"/><path d="m42 60.5h-10a.5.5 0 0 1 -.5-.5v-10a.5.5 0 0 1 .5-.5h10a.5.5 0 0 1 .5.5v10a.5.5 0 0 1 -.5.5zm-9.5-1h9v-9h-9z" fill="#212a41"/><path d="m14 18h8a6 6 0 0 1 6 6v4a0 0 0 0 1 0 0h-20a0 0 0 0 1 0 0v-4a6 6 0 0 1 6-6z" fill="#a0b570"/><path d="m28 28.5h-20a.5.5 0 0 1 -.5-.5v-4a6.508 6.508 0 0 1 6.5-6.5h8a6.508 6.508 0 0 1 6.5 6.5v4a.5.5 0 0 1 -.5.5zm-19.5-1h19v-3.5a5.506 5.506 0 0 0 -5.5-5.5h-8a5.506 5.506 0 0 0 -5.5 5.5z" fill="#212a41"/><path d="m24 18h-7a6 6 0 0 0 -6 6v4h19v-4a6 6 0 0 0 -6-6z" fill="#bed38e"/><path d="m30 28.5h-19a.5.5 0 0 1 -.5-.5v-4a6.508 6.508 0 0 1 6.5-6.5h7a6.508 6.508 0 0 1 6.5 6.5v4a.5.5 0 0 1 -.5.5zm-18.5-1h18v-3.5a5.506 5.506 0 0 0 -5.5-5.5h-7a5.506 5.506 0 0 0 -5.5 5.5z" fill="#212a41"/><path d="m13 26.5a.5.5 0 0 1 -.5-.5v-2a4.481 4.481 0 0 1 2.834-4.181.5.5 0 0 1 .371.929 3.486 3.486 0 0 0 -2.205 3.252v2a.5.5 0 0 1 -.5.5z" fill="#dcf1ac"/><rect fill="#e0c8a4" height="12" rx="4" width="10" x="15" y="6"/><path d="m21 18.5h-2a4.505 4.505 0 0 1 -4.5-4.5v-4a4.505 4.505 0 0 1 4.5-4.5h2a4.505 4.505 0 0 1 4.5 4.5v4a4.505 4.505 0 0 1 -4.5 4.5zm-2-12a3.5 3.5 0 0 0 -3.5 3.5v4a3.5 3.5 0 0 0 3.5 3.5h2a3.5 3.5 0 0 0 3.5-3.5v-4a3.5 3.5 0 0 0 -3.5-3.5z" fill="#212a41"/><path d="m17.027 18.922a4 4 0 0 0 6.946 0l.513-.9c-.161-.01-.322-.022-.486-.022h-7c-.164 0-.325.012-.486.025z" fill="#e0c8a4"/><path d="m20.5 21.438a4.451 4.451 0 0 1 -3.907-2.268l-.513-.9a.5.5 0 0 1 -.009-.481.5.5 0 0 1 .4-.265c.173-.014.347-.026.525-.026h7c.178 0 .352.012.525.026a.5.5 0 0 1 .4.265.5.5 0 0 1 -.009.481l-.514.9a4.449 4.449 0 0 1 -3.898 2.268zm-3.139-2.938.1.174a3.5 3.5 0 0 0 6.076 0l.1-.174z" fill="#212a41"/><path d="m28 18h8a6 6 0 0 1 6 6v4a0 0 0 0 1 0 0h-20a0 0 0 0 1 0 0v-4a6 6 0 0 1 6-6z" fill="#005b8a"/><path d="m42 28.5h-20a.5.5 0 0 1 -.5-.5v-4a6.508 6.508 0 0 1 6.5-6.5h8a6.508 6.508 0 0 1 6.5 6.5v4a.5.5 0 0 1 -.5.5zm-19.5-1h19v-3.5a5.506 5.506 0 0 0 -5.5-5.5h-8a5.506 5.506 0 0 0 -5.5 5.5z" fill="#212a41"/><path d="m38 18h-7a6 6 0 0 0 -6 6v4h19v-4a6 6 0 0 0 -6-6z" fill="#0079a8"/><path d="m44 28.5h-19a.5.5 0 0 1 -.5-.5v-4a6.508 6.508 0 0 1 6.5-6.5h7a6.508 6.508 0 0 1 6.5 6.5v4a.5.5 0 0 1 -.5.5zm-18.5-1h18v-3.5a5.506 5.506 0 0 0 -5.5-5.5h-7a5.506 5.506 0 0 0 -5.5 5.5z" fill="#212a41"/><rect fill="#e0c8a4" height="12" rx="4" width="10" x="29" y="6"/><path d="m35 18.5h-2a4.505 4.505 0 0 1 -4.5-4.5v-4a4.505 4.505 0 0 1 4.5-4.5h2a4.505 4.505 0 0 1 4.5 4.5v4a4.505 4.505 0 0 1 -4.5 4.5zm-2-12a3.5 3.5 0 0 0 -3.5 3.5v4a3.5 3.5 0 0 0 3.5 3.5h2a3.5 3.5 0 0 0 3.5-3.5v-4a3.5 3.5 0 0 0 -3.5-3.5z" fill="#212a41"/><path d="m31.027 18.922a4 4 0 0 0 6.946 0l.513-.9c-.161-.01-.322-.022-.486-.022h-7c-.164 0-.325.012-.486.025z" fill="#e0c8a4"/><path d="m34.5 21.438a4.451 4.451 0 0 1 -3.907-2.268l-.513-.9a.5.5 0 0 1 -.009-.481.5.5 0 0 1 .4-.265c.173-.014.347-.026.525-.026h7c.178 0 .352.012.525.026a.5.5 0 0 1 .4.265.5.5 0 0 1 -.009.481l-.514.9a4.449 4.449 0 0 1 -3.898 2.268zm-3.139-2.938.1.174a3.5 3.5 0 0 0 6.076 0l.1-.174z" fill="#212a41"/><path d="m40 8v2h-12v-2a4 4 0 0 1 4-4h4a4 4 0 0 1 4 4z" fill="#f9ac2f"/><path d="m40 10.5h-12a.5.5 0 0 1 -.5-.5v-2a4.505 4.505 0 0 1 4.5-4.5h4a4.505 4.505 0 0 1 4.5 4.5v2a.5.5 0 0 1 -.5.5zm-11.5-1h11v-1.5a3.5 3.5 0 0 0 -3.5-3.5h-4a3.5 3.5 0 0 0 -3.5 3.5z" fill="#212a41"/><path d="m28 10h3a0 0 0 0 1 0 0v2a1 1 0 0 1 -1 1h-2a0 0 0 0 1 0 0v-3a0 0 0 0 1 0 0z" fill="#f9ac2f"/><path d="m30 13.5h-2a.5.5 0 0 1 -.5-.5v-3a.5.5 0 0 1 .5-.5h3a.5.5 0 0 1 .5.5v2a1.5 1.5 0 0 1 -1.5 1.5zm-1.5-1h1.5a.5.5 0 0 0 .5-.5v-1.5h-2z" fill="#212a41"/><path d="m42 26.5a.5.5 0 0 1 -.5-.5v-2a3.486 3.486 0 0 0 -2.2-3.252.5.5 0 0 1 .371-.929 4.481 4.481 0 0 1 2.829 4.181v2a.5.5 0 0 1 -.5.5z" fill="#005b8a"/><path d="m26.99 26.5a.5.5 0 0 1 -.5-.5v-2a4.483 4.483 0 0 1 2.834-4.181.5.5 0 1 1 .371.929 3.486 3.486 0 0 0 -2.205 3.252v2a.5.5 0 0 1 -.5.5z" fill="#1e97c6"/><path d="m26 8v2h-12v-2a4 4 0 0 1 4-4h4a4 4 0 0 1 4 4z" fill="#f9ac2f"/><path d="m26 10.5h-12a.5.5 0 0 1 -.5-.5v-2a4.505 4.505 0 0 1 4.5-4.5h4a4.505 4.505 0 0 1 4.5 4.5v2a.5.5 0 0 1 -.5.5zm-11.5-1h11v-1.5a3.5 3.5 0 0 0 -3.5-3.5h-4a3.5 3.5 0 0 0 -3.5 3.5z" fill="#212a41"/><path d="m14 10h3a0 0 0 0 1 0 0v2a1 1 0 0 1 -1 1h-2a0 0 0 0 1 0 0v-3a0 0 0 0 1 0 0z" fill="#f9ac2f"/><path d="m16 13.5h-2a.5.5 0 0 1 -.5-.5v-3a.5.5 0 0 1 .5-.5h3a.5.5 0 0 1 .5.5v2a1.5 1.5 0 0 1 -1.5 1.5zm-1.5-1h1.5a.5.5 0 0 0 .5-.5v-1.5h-2z" fill="#212a41"/><circle cx="47" cy="52" fill="#db8e11" r="8"/><path d="m47 60.5a8.5 8.5 0 1 1 8.5-8.5 8.51 8.51 0 0 1 -8.5 8.5zm0-16a7.5 7.5 0 1 0 7.5 7.5 7.508 7.508 0 0 0 -7.5-7.5z" fill="#212a41"/><circle cx="50" cy="52" fill="#f9ac2f" r="8"/><path d="m50 60.5a8.5 8.5 0 1 1 8.5-8.5 8.51 8.51 0 0 1 -8.5 8.5zm0-16a7.5 7.5 0 1 0 7.5 7.5 7.508 7.508 0 0 0 -7.5-7.5z" fill="#212a41"/><path d="m50 58.5a.5.5 0 0 1 0-1 5.506 5.506 0 0 0 5.5-5.5.5.5 0 0 1 1 0 6.508 6.508 0 0 1 -6.5 6.5z" fill="#db8e11"/><path d="m44 52.5a.5.5 0 0 1 -.5-.5 6.508 6.508 0 0 1 6.5-6.5.5.5 0 0 1 0 1 5.506 5.506 0 0 0 -5.5 5.5.5.5 0 0 1 -.5.5z" fill="#ffca4d"/><g fill="#212a41"><path d="m50.5 55.5h-2.5a.5.5 0 0 1 0-1h2.5a1 1 0 0 0 0-2h-1a2 2 0 0 1 0-4h2.5a.5.5 0 0 1 0 1h-2.5a1 1 0 0 0 0 2h1a2 2 0 0 1 0 4z"/><path d="m50 49.5a.5.5 0 0 1 -.5-.5v-2a.5.5 0 0 1 1 0v2a.5.5 0 0 1 -.5.5z"/><path d="m50 57.5a.5.5 0 0 1 -.5-.5v-2a.5.5 0 0 1 1 0v2a.5.5 0 0 1 -.5.5z"/></g><path d="m34 58.5a.5.5 0 0 1 -.5-.5v-6a.5.5 0 0 1 1 0v6a.5.5 0 0 1 -.5.5z" fill="#fefefe"/><path d="m24 58.5a.5.5 0 0 1 -.5-.5v-6a.5.5 0 0 1 1 0v6a.5.5 0 0 1 -.5.5z" fill="#e0e0e0"/><path d="m30 58.5a.5.5 0 0 1 -.5-.5v-6a.5.5 0 0 1 1 0v6a.5.5 0 0 1 -.5.5z" fill="#a4a4a4"/></svg>