<svg enable-background="new 0 0 512 512" viewBox="0 0 512 512" xmlns="http://www.w3.org/2000/svg"><g id="_x32_5_Calling"><g fill="#ecedef"><path d="m445.873 448.869c-30.2 15.054-69.543 9.051-93.741-14.315-16.346-15.793-25.49-37.589-40.821-54.305-28.722-31.308-79.425-39.62-116.644-19.21-44.071 24.248-70.986 87.952-125.049 90.046-30.2 1.201-59.292-23.366-63.171-53.288-3.879-30.015 17.917-61.139 47.471-67.696 43.496-9.904 54.76-30.413 12.653-74.253-21.538-22.198-35.98-47-13.207-76.932 20.8-26.882 66.504-36.85 105.562-12.93 64.668 39.772 9.823 35.921 61.786-37.865 48.981-70.225 103.826-20.774 138.163-16.901 32.139 3.787 63.817-16.347 95.772-11.083 49.486 8.18 68.867 69.975 32.693 104.916-23.181 22.442-60.215 23.735-85.983 42.945-20.931 15.643-17.735 35.407 2.494 42.668 128.604 46.171 90.741 133.694 42.022 158.203z"/><path d="m107.217 54.89c-26.179.43-36.876 29.645-4.233 53.755 35.676 26.351 62.16 6.736 61.848-11.89-.281-16.737-25.264-42.396-57.615-41.865z"/></g><g><g><path d="m201.398 269.323c-6.671 4.524-13.342 9.049-20.012 13.573-23.452-34.521-38.13-75.497-40.849-119.738 8.044-.498 16.089-.996 24.133-1.495 12.804-.468 23.687 11.192 26.624 25.27 3.382 16.597 8.895 32.413 16.242 47.15 6.199 12.552 4.292 27.789-6.138 35.24z" fill="#f4feff"/></g><g><path d="m364.958 387.579c0 .001 0 .001 0 0-.045 26.047-39.426 46.351-82.318 30.916-80.404-28.902-144.118-92.616-173.02-173.019-15.437-42.89 4.871-82.275 30.916-82.318 7.414 120.648 103.774 217.007 224.422 224.421z" fill="#ff6067"/></g><g><path d="m366.453 363.446c-.498 8.044-.996 16.089-1.495 24.133-44.241-2.719-85.217-17.398-119.738-40.849 4.524-6.671 9.049-13.342 13.573-20.012 7.452-10.432 22.69-12.337 35.24-6.138 14.738 7.347 30.554 12.86 47.15 16.242 14.078 2.939 25.738 13.819 25.27 26.624z" fill="#f4feff"/></g><g><path d="m257.613 203.01c0 11.699 2.678 22.773 7.454 32.643 2.032 4.199-19.459 35.641-19.459 35.641s33.985-14.912 38.343-11.19c13.112 11.201 30.128 17.965 48.721 17.965 41.446 0 75.058-33.612 75.058-75.058s-33.612-75.058-75.058-75.058-75.059 33.611-75.059 75.057z" fill="#f4feff"/></g><g><circle cx="334.349" cy="203.01" fill="#fcdc49" r="45.372"/></g><path d="m369.133 387.897c.002-.021.014-.037.015-.058l1.495-24.134c0-.036.003-.069.003-.105.525-14.326-11.506-27.317-28.628-30.89-15.988-3.258-31.5-8.602-46.127-15.893-15.073-7.441-32.106-4.307-40.571 7.546l-11.15 16.442c-22.045-15.566-41.295-34.816-56.861-56.861l16.442-11.15c.029-.016.059-.036.085-.056 11.769-8.408 14.906-25.445 7.455-40.528-7.287-14.614-12.631-30.13-15.889-46.134-3.567-17.102-16.689-29.054-30.992-28.605l-24.134 1.495c-.02.001-.036.013-.056.015-10.936.13-21.104 6.096-28.661 16.861-12.827 18.282-15.083 45.507-5.891 71.051 29.503 82.066 93.487 146.049 175.552 175.549 23.616 8.501 51.412 7.888 71.048-5.891 10.769-7.551 16.734-17.719 16.865-28.654zm-106.925-58.74c5.901-8.264 18.784-10.343 29.953-4.819 15.266 7.609 31.48 13.191 48.163 16.591 12.854 2.685 22.275 12.273 21.938 22.314l-1.226 19.792c-39.702-3.15-76.786-15.864-109.912-37.533zm-97.385-163.302c10.116-.397 19.679 9.067 22.36 21.915 3.399 16.706 8.985 32.916 16.588 48.173 5.517 11.159 3.462 24.019-4.773 29.939l-16.385 11.111c-21.991-33.617-34.435-70.81-37.533-109.912zm119.237 248.691c-79.699-28.648-141.843-90.792-170.494-170.491-9.9-27.514-3.98-50.785 4.865-63.39 5.058-7.212 11.418-11.7 18.22-12.952 9.397 119.12 104.694 214.359 223.751 223.751-1.252 6.802-5.743 13.162-12.952 18.22-12.601 8.842-35.866 14.766-63.39 4.862z"/><path d="m247.292 275.136c13.562-5.95 30.244-11.923 34.401-11.447 14.25 11.985 32.329 18.577 50.979 18.577 43.701 0 79.253-35.555 79.253-79.256s-35.552-79.253-79.253-79.253-79.256 35.552-79.256 79.253c0 11.805 2.531 23.154 7.523 33.742-.915 4.239-10.267 19.695-18.797 32.175-1.056 1.544-.961 3.603.236 5.045s3.206 1.915 4.914 1.164zm21.551-41.312c-4.668-9.648-7.035-20.013-7.035-30.815 0-39.072 31.788-70.861 70.864-70.861 39.072 0 70.861 31.788 70.861 70.861 0 39.076-31.788 70.864-70.861 70.864-16.856 0-33.191-6.025-45.996-16.965-.679-.577-1.796-1.531-5.065-1.531-4.006 0-11.251 1.433-24.888 6.743 14.69-22.982 12.995-26.489 12.12-28.296z"/><path d="m334.347 252.579c27.333 0 49.569-22.236 49.569-49.569s-22.236-49.569-49.569-49.569c-27.33 0-49.566 22.236-49.566 49.569s22.236 49.569 49.566 49.569zm0-90.746c22.705 0 41.177 18.472 41.177 41.177s-18.472 41.177-41.177 41.177-41.174-18.472-41.174-41.177 18.47-41.177 41.174-41.177z"/><path d="m334.347 219.525c-3.396 0-6.156-2.763-6.156-6.16 0-2.318-1.878-4.196-4.196-4.196s-4.196 1.878-4.196 4.196c0 6.556 4.384 12.047 10.352 13.861v3.398c0 2.318 1.878 4.196 4.196 4.196s4.196-1.878 4.196-4.196v-3.398c5.971-1.814 10.356-7.305 10.356-13.862 0-8.025-6.527-14.552-14.552-14.552-3.396 0-6.156-2.764-6.156-6.16s2.76-6.156 6.156-6.156 6.16 2.76 6.16 6.156c0 2.318 1.878 4.196 4.196 4.196s4.196-1.878 4.196-4.196c0-6.554-4.385-12.044-10.356-13.858v-3.398c0-2.318-1.878-4.196-4.196-4.196s-4.196 1.878-4.196 4.196v3.398c-5.968 1.814-10.352 7.305-10.352 13.858 0 8.025 6.527 14.552 14.549 14.552 3.396 0 6.16 2.763 6.16 6.16s-2.765 6.161-6.161 6.161z"/><path d="m318.251 89.405c-2.013 1.147-2.718 3.708-1.574 5.724l7.281 12.808c1.136 1.992 3.684 2.726 5.724 1.574 2.013-1.147 2.718-3.708 1.574-5.724l-7.281-12.808c-1.151-2.017-3.714-2.715-5.724-1.574z"/><path d="m355.439 87.048-3.908 14.204c-.616 2.236.698 4.547 2.931 5.16 2.265.616 4.552-.718 5.16-2.931l3.908-14.204c.616-2.236-.698-4.547-2.931-5.16-2.239-.61-4.547.698-5.16 2.931z"/><path d="m388.558 108.746-12.805 7.281c-2.013 1.147-2.718 3.708-1.574 5.724 1.144 2.012 3.702 2.716 5.724 1.574l12.805-7.281c2.013-1.147 2.718-3.708 1.574-5.724-1.148-2.02-3.714-2.715-5.724-1.574z"/></g></g><g id="Layer_1"/></svg>