<svg clip-rule="evenodd" fill-rule="evenodd" height="128" image-rendering="optimizeQuality" shape-rendering="geometricPrecision" text-rendering="geometricPrecision" viewBox="0 0 22383 22383" width="128" xmlns="http://www.w3.org/2000/svg" xmlns:xlink="http://www.w3.org/1999/xlink"><clipPath id="id0"><path d="m11191 0c6181 0 11192 5010 11192 11191s-5011 11192-11192 11192-11191-5011-11191-11192 5010-11191 11191-11191z"/></clipPath><g id="Layer_x0020_1"><path d="m11191 0c6181 0 11192 5010 11192 11191s-5011 11192-11192 11192-11191-5011-11191-11192 5010-11191 11191-11191z" fill="#00dcab"/><g clip-path="url(#id0)"><g id="_375135632"><g><path d="m-2106 5296h17807v15630h-17807z" fill="#fff"/><path d="m-760 2603h15114c741 0 1347 606 1347 1347v1346h-17807v-1346c0-741 606-1347 1346-1347z" fill="#1c3b5c"/><rect fill="#e1e3e8" height="789" rx="620" ry="395" width="8770" x="-478" y="3555"/><g><circle cx="10416" cy="3950" fill="#ff576b" r="492"/><circle cx="12166" cy="3950" fill="#ffc42e" r="492"/><circle cx="13916" cy="3950" fill="#53b4ed" r="492"/></g></g><path d="m-1203 6030h16000v5508h-16000z" fill="#55ace0"/><path d="m-1203 13156h8396v656h-8396z" fill="#53b4ed"/><path d="m-1203 14467h14254v350h-14254zm0 2623h7741v350h-7741zm0-874h14254v350h-14254zm0-874h14254v349h-14254z" fill="#afb0b5"/><g><g><path d="m10698 18282 1419 837-618-2421-1371-2849-1450-2367c-370-771 623-1393 1145-653l1693 1895 1505 2070c348-999 1470-1145 2201-568 347-837 1408-898 1992-292 1391-515 1902 1011 2388 2569 346 1111 1273 5225 1273 5225l1834 2481c-1033 1714-2388 3211-3981 4409l-2453-4420-5036-2771-2112-2199-595-2485c534-769 1500-19 2166 1539z" fill="#ffc578"/><path d="m12117 19119-618-2421-1371-2849-1450-2367c-89-185-99-362-56-513l1743 2667 1347 3011z" fill="#f7b360"/></g><path d="m16093 26241 6627-4308 667 1025c-1217 2517-3094 4653-5406 6187z" fill="#154e5e"/><path d="m16028 25195 5705-3709 497 765-5705 3709z" fill="#fff"/></g><path d="m7418 8315 281-157 907 1615-281 158zm3943 789-198-253-1460 1142 199 254zm-1742-435-314-71-252 1111 314 71zm-3300 3267-113-302 1735-651 113 301zm535-1715 103-305 1080 363-103 305z" fill="#fff"/><g><circle cx="16544" cy="9306" fill="#eaa43a" r="2664"/><circle cx="16544" cy="9306" fill="#ffc42e" r="2178"/><path d="m16532 11047v-328c-164-21-297-57-400-110-102-53-190-139-265-257s-118-261-130-432l328-63c26 177 71 307 135 390 92 117 203 182 332 196v-1031c-135-35-273-92-413-171-105-58-185-139-242-242-56-104-84-221-84-352 0-233 83-422 247-567 110-97 275-157 492-178v-157h194v157c189 18 340 74 451 168 143 120 228 284 258 492l-336 52c-19-130-60-230-121-299s-145-115-252-137v945c165 42 273 75 327 98 102 45 185 100 249 164s113 141 148 230c34 88 52 185 52 288 0 227-72 416-217 568-144 152-330 233-559 244v332zm0-2873c-127 19-228 70-301 154-73 82-110 180-110 293 0 112 31 206 94 281 62 75 167 133 317 171zm194 2269c127-16 232-71 316-166 82-95 124-212 124-352 0-119-29-214-88-287-59-72-177-131-352-176z" fill="#eaa43a"/><path d="m16456 10957v-328c-163-21-296-57-399-110-102-53-191-139-265-256-75-119-118-262-130-433l328-63c25 177 70 307 135 390 92 117 203 182 331 196v-1031c-135-35-272-92-413-171-104-58-184-138-241-242-56-103-84-220-84-352 0-233 82-422 247-567 110-97 274-156 491-178v-157h194v157c190 18 341 74 452 168 142 120 228 284 257 492l-335 52c-20-130-60-230-122-299-61-69-145-115-252-137v945c165 42 274 75 328 98 102 45 184 100 248 165 65 64 114 140 149 229 34 88 52 185 52 288 0 227-73 416-217 568s-331 233-560 244v332zm0-2873c-126 19-227 70-300 154-73 82-110 180-110 293 0 112 31 206 93 281 62 76 168 133 317 171zm194 2269c128-16 233-71 316-166s125-212 125-352c0-119-29-214-89-287-59-72-176-131-352-176z" fill="#ed7d27"/></g><g><circle cx="18924" cy="5692" fill="#eaa43a" r="1078"/><circle cx="18924" cy="5692" fill="#ffc42e" r="881"/><path d="m18919 6397v-133c-66-9-120-23-161-45-42-21-78-56-108-104-30-47-47-105-52-174l132-26c11 72 29 124 55 158 37 47 82 73 134 79v-417c-55-14-110-37-167-69-42-24-75-56-98-98s-34-89-34-143c0-94 34-170 100-229 45-39 111-63 199-72v-64h79v64c76 7 137 30 182 68 58 48 93 115 104 199l-135 21c-8-52-25-93-49-121-25-28-59-46-102-56v383c66 17 110 30 132 40 41 18 75 40 101 66s46 57 60 93 21 75 21 117c0 91-30 168-88 230-58 61-134 94-226 98v135zm0-1163c-51 8-92 28-121 62-30 34-45 73-45 119 0 45 13 83 38 114 25 30 68 53 128 69zm79 918c51-6 94-29 127-67 34-39 51-86 51-142 0-49-12-87-36-117-24-29-71-53-142-71z" fill="#eaa43a"/><path d="m18889 6360v-133c-67-8-120-23-162-44-41-22-77-56-107-104-31-48-48-106-53-175l133-25c10 71 28 124 55 157 37 48 82 74 134 80v-417c-55-14-111-38-167-70-43-23-75-56-98-97-23-42-34-90-34-143 0-94 33-171 100-229 44-40 111-64 199-73v-63h78v63c77 8 138 31 183 69 57 48 92 114 104 199l-136 21c-8-53-24-93-49-121s-59-47-102-56v383c67 17 111 30 132 39 42 18 75 41 101 67s46 57 60 93c14 35 21 74 21 116 0 92-29 169-87 230-59 62-134 94-227 99v134zm0-1162c-52 7-92 28-122 62-30 33-44 73-44 119 0 45 12 83 37 113 25 31 68 54 129 69zm78 918c52-7 94-29 128-68 33-38 50-85 50-142 0-48-12-87-35-116-24-29-72-53-143-71z" fill="#ed7d27"/></g><g><circle cx="14313" cy="3475" fill="#eaa43a" r="1575"/><circle cx="14313" cy="3475" fill="#ffc42e" r="1288"/><path d="m14306 4504v-194c-97-12-176-34-236-65-61-31-113-82-157-151-44-70-70-155-77-256l194-37c15 104 42 181 80 230 54 69 120 108 196 116v-609c-80-21-161-55-244-101-62-35-110-83-143-144-34-61-50-130-50-208 0-138 49-249 146-335 65-57 162-93 291-106v-92h115v92c112 11 201 45 266 100 85 71 135 168 153 291l-199 31c-11-77-35-136-72-177-36-41-85-68-148-81v559c97 25 161 44 193 58 60 26 109 59 147 97s67 83 88 135c20 53 30 110 30 171 0 134-42 246-127 336-86 90-196 137-331 144v196zm0-1699c-75 12-135 42-178 91s-65 107-65 174c0 66 18 122 55 166 37 45 100 78 188 101zm115 1342c75-9 137-42 186-98s74-126 74-208c0-71-17-127-52-170s-105-77-208-104z" fill="#eaa43a"/><path d="m14261 4451v-194c-96-12-175-34-236-65-60-31-113-82-157-152-44-69-69-154-77-255l194-38c16 105 42 182 80 231 55 69 120 108 196 116v-610c-80-20-161-54-244-101-62-34-109-82-143-143-33-61-50-130-50-208 0-138 49-250 147-335 65-58 162-93 290-106v-92h115v92c112 11 201 44 267 100 84 71 135 168 152 291l-198 31c-12-77-36-136-72-177s-86-68-149-81v558c97 25 162 45 193 59 61 26 110 58 148 97 38 38 67 83 87 135 21 53 31 110 31 171 0 134-43 246-128 336-85 89-196 137-331 144v196zm0-1699c-75 12-134 42-177 91-44 49-65 107-65 174 0 66 18 121 55 166 36 44 99 78 187 101zm115 1342c75-9 138-42 187-98s73-126 73-208c0-71-17-127-52-170s-104-77-208-104z" fill="#ed7d27"/></g><g fill="#fff"><path d="m16496 4460h279v1803h-279z"/><path d="m17990 3021h279v1180h-279z"/><path d="m13124 585h279v1098h-279z"/></g></g></g><path d="m11191 0c6181 0 11192 5010 11192 11191s-5011 11192-11192 11192-11191-5011-11191-11192 5010-11191 11191-11191z" fill="none"/></g></svg>