<svg id="Layer_1" height="512" viewBox="0 0 256 256" width="512" xmlns="http://www.w3.org/2000/svg"><path d="m238.17 115.5c0 30.43-12.33 57.97-32.27 77.9-8.18 8.18-17.64 15.08-28.06 20.37-1.64.84-3.31 1.64-5 2.39v-57.83c0-2.76-2.24-5-5-5h-10c-2.76 0-5 2.24-5 5v64.53c-1.65.38-3.32.72-5 1.03-1.6.29-3.21.54-4.84.76-1.65.23-3.32.41-5 .56v-36.54c0-2.76-2.23-5-5-5h-10c-2.76 0-5 2.24-5 5v36.54c-1.68-.15-3.35-.33-5-.56-1.63-.22-3.24-.47-4.84-.76-1.68-.31-3.35-.65-5-1.03v-48.19c0-2.76-2.24-5-5-5h-10c-2.76 0-5 2.24-5 5v41.49c-1.69-.75-3.36-1.55-5-2.39-10.42-5.29-19.88-12.19-28.06-20.37-19.94-19.93-32.27-47.47-32.27-77.9s12.33-57.97 32.27-77.9c19.93-19.94 47.47-32.27 77.9-32.27s57.97 12.33 77.9 32.27c19.94 19.93 32.27 47.47 32.27 77.9z" fill="#efefef"/><path d="m163.19 115.25c.13 8.25-2.67 16.72-9.11 23.85-6.45 7.1-15.74 11.57-26.08 11.57s-19.64-4.47-26.08-11.57c-5.64-6.25-9.09-14.52-9.09-23.6 0-19.42 15.75-35.17 35.17-35.17 11.43 0 20.87 5.14 27.08 12.75 1.1 1.34 2.09 2.76 2.98 4.24 2.34 3.92 3.94 8.27 4.68 12.78.28 1.7.43 3.42.45 5.15z" fill="#7d7b79"/><path d="m218.8 95.01-55.61 20.24c-.02-1.73-.17-3.45-.45-5.15-.74-4.51-2.34-8.86-4.68-12.78-.89-1.48-1.88-2.9-2.98-4.24l55.65-20.26c6.23-2.25 12.95 1.05 15.13 7.06 2.23 6.1-.9 12.9-7.06 15.13z" fill="#afafaf"/><g fill="#afafaf"><path d="m98.16 164.67h-10c-5.51 0-10 4.49-10 10v39.1c1.64.84 3.31 1.64 5 2.39v-41.49c0-2.76 2.24-5 5-5h10c2.76 0 5 2.24 5 5v48.19c1.65.38 3.32.72 5 1.03v-49.22c0-5.51-4.49-10-10-10z"/><path d="m167.84 148.33h-10c-5.51 0-10 4.49-10 10v65.56c1.68-.31 3.35-.65 5-1.03v-64.53c0-2.76 2.24-5 5-5h10c2.76 0 5 2.24 5 5v57.83c1.69-.75 3.36-1.55 5-2.39v-55.44c0-5.51-4.49-10-10-10z"/><path d="m133 178.67h-10c-5.51 0-10 4.49-10 10v35.98c1.65.23 3.32.41 5 .56v-36.54c0-2.76 2.24-5 5-5h10c2.77 0 5 2.24 5 5v36.54c1.68-.15 3.35-.33 5-.56v-35.98c0-5.51-4.49-10-10-10z"/></g><g><path d="m172.35 70.059c-3.501-1.157-7.117-2.168-9.147-10.913-1.87 8.055-4.865 9.498-9.147 10.913 6.984 2.308 8.037 6.129 9.147 10.913 1.913-8.248 5.078-9.569 9.147-10.913z" fill="#f0c020"/></g><g><path d="m45.797 218.636c-3.501-1.157-7.117-2.168-9.147-10.913-1.87 8.055-4.865 9.498-9.147 10.913 6.984 2.308 8.037 6.129 9.147 10.913 1.914-8.248 5.079-9.569 9.147-10.913z" fill="#f0c020"/></g><g><path d="m228.497 218.636c-3.501-1.157-7.117-2.168-9.147-10.913-1.87 8.055-4.865 9.498-9.147 10.913 6.984 2.308 8.037 6.129 9.147 10.913 1.913-8.248 5.078-9.569 9.147-10.913z" fill="#f0c020"/></g><path d="m238.17 115.5c0 30.43-12.33 57.97-32.27 77.9l-14.82-14.82c-3.57-3.57-3.97-9.28-.81-13.22 10.95-13.66 17.5-31 17.5-49.86 0-5.44-.55-10.76-1.59-15.9-.34-1.65-.72-3.28-1.16-4.89l12.08-4.4c3.53-1.28 5.35-5.19 4.06-8.72-1.28-3.53-5.18-5.35-8.72-4.07l-12.08 4.4c-.71-1.53-1.46-3.03-2.27-4.5-3.66-6.76-8.29-12.93-13.69-18.32l21.5-21.5c19.94 19.93 32.27 47.47 32.27 77.9z" fill="#fc5d3d"/><path d="m218.8 95.01-12.62 4.59c-.34-1.65-.72-3.28-1.16-4.89l12.08-4.4c3.53-1.28 5.35-5.19 4.06-8.72-1.28-3.53-5.18-5.35-8.72-4.07l-12.08 4.4c-.71-1.53-1.46-3.03-2.27-4.5l12.64-4.6c6.23-2.25 12.95 1.05 15.13 7.06 2.23 6.1-.9 12.9-7.06 15.13z" fill="#b34f33"/><path d="m50.1 37.6c-19.94 19.93-32.27 47.47-32.27 77.9s12.33 57.97 32.27 77.9l14.82-14.82c3.57-3.57 3.97-9.28.81-13.22-10.95-13.66-17.5-31-17.5-49.86 0-22.02 8.93-41.97 23.37-56.4z" fill="#13bf6d"/><path d="m205.9 37.6-21.5 21.5c-14.43-14.44-34.38-23.37-56.4-23.37s-41.97 8.93-56.4 23.37l-21.5-21.5c19.93-19.94 47.47-32.27 77.9-32.27s57.97 12.33 77.9 32.27z" fill="#f0c020"/><circle cx="127.999" cy="106.1" fill="#feb69f" r="13.823"/><path d="m154.08 139.095c-6.441 7.104-15.739 11.572-26.081 11.572s-19.64-4.468-26.081-11.572c3.459-11.112 13.828-19.171 26.081-19.171 12.171-.001 22.615 8.01 26.081 19.171z" fill="#72c2e9"/><path d="m217.1 90.31-12.08 4.4-42.28 15.39c-.74-4.51-2.34-8.86-4.68-12.78l42.3-15.4 12.08-4.4c3.54-1.28 7.44.54 8.72 4.07 1.29 3.53-.53 7.44-4.06 8.72z" fill="#72c2e9"/><path d="m199.5 243.33c0 1.75-.71 3.33-1.86 4.48-1.14 1.15-2.72 1.86-4.47 1.86h-130.34c-3.49 0-6.33-2.84-6.33-6.34 0-1.75.71-3.33 1.86-4.47 1.14-1.15 2.72-1.86 4.47-1.86h130.34c3.49 0 6.33 2.84 6.33 6.33z" fill="#7d7b79"/><path d="m103.16 174.67v62.33h-20v-62.33c0-2.76 2.24-5 5-5h10c2.76 0 5 2.24 5 5z" fill="#13bf6d"/><path d="m172.84 158.333v78.667h-20v-78.667c0-2.76 2.24-5 5-5h10c2.76 0 5 2.24 5 5z" fill="#fc5d3d"/><path d="m138 188.67v48.33h-20v-48.33c0-2.76 2.24-5 5-5h10c2.77 0 5 2.24 5 5z" fill="#f0c020"/><path d="m203.39 175.732c-1.101-.834-1.315-2.403-.48-3.503 1.042-1.374 2.06-2.794 3.022-4.222.773-1.145 2.326-1.446 3.471-.673s1.446 2.327.674 3.471c-1.015 1.503-2.086 2.999-3.185 4.446-.834 1.1-2.404 1.315-3.502.481zm8.593-12.683c-1.219-.65-1.679-2.165-1.029-3.383 7.207-13.503 11.016-28.786 11.016-44.196 0-25.09-9.77-48.684-27.508-66.433-.976-.977-.976-2.56.001-3.536.977-.975 2.56-.976 3.536.001 18.682 18.693 28.971 43.542 28.971 69.967 0 16.229-4.013 32.326-11.604 46.551-.65 1.219-2.165 1.679-3.383 1.029z" fill="#ffcbc3"/><path d="m49.3 175.5c-13.037-17.039-20.27-37.989-20.27-60.03 0-26.792 10.66-51.641 28.97-69.97h.01c.94-.94 2.59-.94 3.53 0 .97.98.97 2.56 0 3.54-17.74 17.75-27.51 41.34-27.51 66.43 0 20.81 6.659 40.52 19.25 56.99.829 1.1.619 2.67-.471 3.51-1.116.838-2.666.619-3.509-.47z" fill="#76ffbb"/><path d="m194.462 49.037c-3.115-3.117-6.479-6.041-9.999-8.691-1.103-.83-1.324-2.397-.493-3.5.83-1.103 2.396-1.326 3.501-.494 3.705 2.79 7.248 5.869 10.528 9.151.976.977.976 2.56-.001 3.536-.978.976-2.559.976-3.536-.002zm-134.692.733c-.64 0-1.279-.244-1.768-.732-.977-.976-.977-2.559-.001-3.535 33.124-33.142 83.263-37.585 120.971-14.887 1.184.712 1.564 2.249.853 3.432s-2.25 1.563-3.431.853c-35.735-21.512-83.356-17.38-114.856 14.136-.488.489-1.129.733-1.768.733z" fill="#f8e5b0"/><path d="m80.66 217.742v16.758h-17.83c-4.917 0-8.83 3.999-8.83 8.83 0 4.875 3.961 8.84 8.83 8.84h130.34c4.95 0 8.83-4.037 8.83-8.84 0-4.869-3.961-8.83-8.83-8.83h-17.83v-16.758c38.565-17.873 65.33-56.742 65.33-102.242 0-30-11.651-58.316-32.984-79.65-.006-.006-.01-.014-.016-.02s-.014-.01-.02-.016c-44.011-44.009-115.281-44.017-159.297-.002-.007.007-.016.011-.023.018s-.012.016-.019.023c-21.268 21.27-32.981 49.554-32.981 79.647 0 45.521 26.844 84.405 65.33 102.242zm5-43.072c0-1.378 1.121-2.5 2.5-2.5h10c1.379 0 2.5 1.122 2.5 2.5v59.83h-15c0-7.26 0-54.185 0-59.83zm20 51.274c3.273.657 6.563 1.16 9.84 1.517v7.039h-9.84zm34.84 1.517c3.276-.356 6.567-.86 9.84-1.516v8.556h-9.84zm-5 7.039h-15v-45.83c0-1.378 1.121-2.5 2.5-2.5h10c1.379 0 2.5 1.122 2.5 2.5zm61.5 8.83c0 2.066-1.674 3.84-3.83 3.84h-130.34c-2.112 0-3.83-1.723-3.83-3.84 0-2.065 1.681-3.83 3.83-3.83h130.34c2.112 0 3.83 1.718 3.83 3.83zm-41.66-8.83v-76.167c0-1.378 1.121-2.5 2.5-2.5h10c1.379 0 2.5 1.122 2.5 2.5v76.167zm50.539-44.657-13.032-13.031c-2.707-2.708-2.978-6.958-.628-9.889 11.64-14.519 18.05-32.782 18.05-51.423 0-6.49-.763-12.943-2.269-19.215l9.95-3.625c4.291-1.561 6.824-6.022 5.938-10.537-1.134-5.679-7.018-8.867-12.305-6.952-7.151 2.605-4.932 1.797-9.952 3.624-3.582-7.2-8.185-13.798-13.72-19.667l17.968-17.968c18.651 19.454 29.791 45.727 29.791 74.34 0 27.722-10.468 54.143-29.791 74.343zm-3.538-152.224-17.971 17.971c-4.29-4.05-9.03-7.64-14.08-10.67-1.141-.68-2.75-.28-3.431.86-.71 1.18-.329 2.72.851 3.43 12.146 7.283 22.467 18.063 29.181 31.311l-37.813 13.765c-6.989-10.339-18.453-16.456-31.078-16.456-20.771 0-37.67 16.898-37.67 37.67 0 20.985 17.083 37.67 37.67 37.67 21.685 0 39.946-18.848 37.487-41.408l12.293-4.482c1.3-.47 1.97-1.9 1.5-3.2-.461-1.26-1.931-1.96-3.211-1.5l-11.47 4.182c-.682-2.794-1.672-5.496-2.96-8.082l51.66-18.81c2.246-.814 4.729.408 5.51 2.58.817 2.259-.392 4.722-2.569 5.51l-21.37 7.78c-1.232.45-1.984 1.829-1.5 3.21.454 1.238 1.855 1.974 3.21 1.49l6.687-2.435c1.327 5.717 2.002 11.589 2.002 17.495 0 17.763-5.861 34.463-16.95 48.296-3.947 4.923-3.521 12.039.993 16.552l13.013 13.012c-8.025 7.667-17.074 13.996-26.985 18.851v-53.877c0-4.136-3.364-7.5-7.5-7.5h-10c-4.136 0-7.5 3.364-7.5 7.5v62.501c-3.271.688-6.562 1.226-9.84 1.6v-33.765c0-4.136-3.364-7.5-7.5-7.5h-10c-4.136 0-7.5 3.364-7.5 7.5v33.764c-3.278-.374-6.569-.911-9.84-1.6v-46.164c0-4.136-3.364-7.5-7.5-7.5h-10c-4.136 0-7.5 3.364-7.5 7.5v37.541c-9.912-4.855-18.961-11.184-26.987-18.853l13.016-13.008c4.438-4.437 4.967-11.613.99-16.55-2.93-3.66-5.54-7.61-7.77-11.73-.657-1.251-2.222-1.664-3.38-1.02-1.281.694-1.645 2.241-1.021 3.39 2.36 4.38 5.14 8.58 8.271 12.48 2.3 2.877 2.117 7.143-.631 9.89l-13.031 13.031c-19.227-20.111-29.787-46.41-29.787-74.341s10.56-54.229 29.789-74.341l17.983 17.983c-14.16 15.033-22.373 34.915-22.373 56.358 0 6.67.801 13.31 2.38 19.74.299 1.194 1.464 2.143 3.03 1.83 1.34-.33 2.16-1.69 1.83-3.03-1.49-6.03-2.24-12.27-2.24-18.54 0-51.695 49.886-88.797 99.311-74.08 1.3.39 2.729-.4 3.109-1.68.36-1.215-.234-2.627-1.681-3.112-23.971-8.029-56.728-2.82-79.839 18.962l-17.97-17.971c41.534-39.712 107.064-39.791 148.682 0zm-74.342 110.548c-8.554 0-17.019-3.437-23.224-9.697 3.623-9.656 12.78-16.046 23.224-16.046 10.282 0 19.63 6.53 23.224 16.046-6.067 6.112-14.47 9.697-23.224 9.697zm-11.323-42.067c0-6.244 5.079-11.323 11.323-11.323s11.323 5.08 11.323 11.323-5.079 11.323-11.323 11.323-11.323-5.079-11.323-11.323zm38.136 28.081c-3.461-7.166-9.583-12.54-16.962-15.096 3.924-2.984 6.472-7.687 6.472-12.985 0-9-7.322-16.323-16.323-16.323s-16.323 7.323-16.323 16.323c0 5.299 2.55 10.003 6.474 12.986-7.369 2.555-13.488 7.923-16.953 15.081-3.803-5.463-5.867-11.955-5.867-18.667 0-18.014 14.655-32.67 32.67-32.67 26.904 0 41.63 30.388 26.812 51.351z"/><path d="m52.64 141.84c-1.277.495-1.939 1.916-1.43 3.23.474 1.229 1.872 1.945 3.229 1.43 1.28-.49 1.931-1.94 1.431-3.23-.48-1.24-1.98-1.92-3.23-1.43z"/><path d="m159.12 44.76c1.258.552 2.738-.018 3.3-1.28.55-1.26-.021-2.74-1.28-3.3-1.24-.54-2.76.06-3.3 1.28-.55 1.26.019 2.74 1.28 3.3z"/><path d="m187.18 103.86c1.272-.445 1.964-1.868 1.5-3.2-.46-1.26-1.939-1.96-3.21-1.49-1.279.446-1.969 1.885-1.49 3.2.459 1.251 1.859 1.969 3.2 1.49z"/><path d="m153.271 72.432c5.831 1.927 6.493 4.782 7.496 9.104.599 2.578 4.272 2.578 4.871 0 1.665-7.178 3.985-7.944 7.496-9.104 2.279-.753 2.284-3.994 0-4.748-3.282-1.076-5.799-1.795-7.497-9.104-.597-2.573-4.275-2.566-4.87 0-1.667 7.179-3.986 7.945-7.496 9.104-2.278.754-2.284 3.994 0 4.748zm9.94-6.112c.992 1.721 2.105 2.902 3.256 3.759-1.195.872-2.275 2.018-3.221 3.627-.799-1.289-1.882-2.51-3.413-3.593 1.259-.897 2.393-2.088 3.378-3.793z"/><path d="m39.085 207.157c-.597-2.573-4.275-2.566-4.87 0-1.667 7.179-3.986 7.945-7.496 9.104-2.279.753-2.284 3.993 0 4.748 5.831 1.927 6.493 4.782 7.496 9.104.599 2.578 4.272 2.578 4.871 0 1.665-7.178 3.985-7.944 7.496-9.104 2.279-.753 2.284-3.994 0-4.748-3.283-1.075-5.8-1.795-7.497-9.104zm-2.391 15.126c-.799-1.289-1.882-2.51-3.413-3.593 1.258-.897 2.392-2.088 3.377-3.793.992 1.721 2.105 2.902 3.256 3.759-1.194.872-2.274 2.018-3.22 3.627z"/><path d="m221.784 207.157c-.597-2.573-4.275-2.566-4.87 0-1.667 7.179-3.986 7.945-7.496 9.104-2.278.753-2.284 3.993 0 4.748 5.831 1.927 6.493 4.782 7.496 9.104.599 2.578 4.272 2.578 4.871 0 1.665-7.178 3.985-7.944 7.496-9.104 2.279-.753 2.284-3.994 0-4.748-3.282-1.075-5.799-1.795-7.497-9.104zm-2.391 15.126c-.799-1.289-1.882-2.51-3.413-3.593 1.258-.897 2.392-2.088 3.377-3.793.992 1.721 2.105 2.902 3.256 3.759-1.193.872-2.274 2.018-3.22 3.627z"/></svg>