<svg id="Layer_1" enable-background="new 0 0 468 468" height="512" viewBox="0 0 468 468" width="512" xmlns="http://www.w3.org/2000/svg" xmlns:xlink="http://www.w3.org/1999/xlink"><clipPath id="SVGID_2_"><path id="SVGID_1_" d="m11.486 2.062 34.213 115.998 81.043-81.563z"/></clipPath><g><g fill="#c2ace5"><path d="m97.176 84.779c-.81-.797-2.115-.788-2.914.024-.798.811-.787 2.116.024 2.914l13.224 13.009c1.878 1.904 4.825-1.092 2.89-2.939z"/><path d="m123.624 110.795c-.81-.797-2.115-.788-2.914.024-.798.811-.787 2.116.024 2.914l13.224 13.009c1.878 1.904 4.825-1.092 2.89-2.939z"/><path d="m70.728 58.762c-.81-.797-2.115-.788-2.914.024-.798.811-.787 2.116.024 2.914l13.224 13.009c1.878 1.904 4.825-1.092 2.89-2.939z"/><path d="m176.52 162.829c-.81-.797-2.115-.788-2.914.024-.798.811-.787 2.116.024 2.914l13.224 13.009c1.878 1.904 4.825-1.092 2.89-2.939z"/><path d="m206.65 192.468-3.683-3.623c-.81-.797-2.115-.788-2.914.024-.798.811-.787 2.116.024 2.914l3.683 3.623c1.879 1.905 4.825-1.091 2.89-2.938z"/><path d="m150.072 136.812c-.81-.797-2.116-.788-2.914.024-.798.811-.788 2.116.024 2.914l13.224 13.009c1.878 1.904 4.825-1.092 2.89-2.939z"/></g><g><g><g><g><path d="m11.486 2.062 34.213 115.998 81.043-81.563z" fill="#61ceac"/></g></g></g><g><g><g><path d="m11.486 2.062 115.257 34.435-9.016 9.073-102.436-30.604z" fill="#52c1a1"/></g></g></g><g><g clip-path="url(#SVGID_2_)"><g><g><path d="m86.221 79.34c-.53 0-1.059-.203-1.462-.609l-74.736-75.217c-.802-.807-.798-2.112.01-2.914.807-.803 2.112-.798 2.915.01l74.735 75.217c.802.807.798 2.112-.01 2.914-.402.399-.927.599-1.452.599z" fill="#fff"/></g></g></g></g><g><g><g><path d="m61.379 84.545c-.53 0-1.059-.203-1.462-.609l-18.467-18.586c-.802-.807-.798-2.112.01-2.914.807-.803 2.112-.798 2.915.01l18.467 18.586c.802.807.798 2.112-.01 2.914-.402.399-.928.599-1.453.599z" fill="#fff"/></g></g></g><g><g><g><path d="m91.105 54.327c-.53 0-1.059-.203-1.462-.609l-17.973-18.089c-.802-.807-.798-2.112.01-2.914.807-.803 2.112-.798 2.915.01l17.973 18.089c.802.807.798 2.112-.01 2.914-.403.4-.928.599-1.453.599z" fill="#fff"/></g></g></g></g><g><g><g><g><path d="m75.249 377.171v-234.24l193.903 125.799 193.903-125.799v234.24z" fill="#865acc"/></g></g></g><g><g><g><path d="m463.055 142.931-194.181-125.104-193.625 125.104 193.625 125.799z" fill="#865acc"/></g></g></g><g><g><g><path d="m420.338 60.675h-302.669v109.817l151.483 98.238 151.186-98.126z" fill="#f0e8f9"/></g></g></g><g><g><g><path d="m129.439 60.675h-11.769v109.817l151.482 98.239 9.662-6.271-102.394-66.404c-29.298-19-46.981-51.544-46.981-86.463z" fill="#e2d2f7"/></g></g></g></g><g><g><g><g><path d="m43.512 223.802c-16.274-20.594-6.363-34.324.061-40.171 2.33-2.121 4.039-4.864 4.712-7.943 1.25-5.72 4.584-9.546 7.817-12.009 3.706-2.824 5.99-7.176 6.085-11.835.117-5.71 2.914-9.419 5.627-11.683 3.057-2.551 5.148-6.072 5.708-10.014 4.58-32.286 33.675-26.589 33.675-26.589s51.961-16.916 49.565 34.908l.076 13.607c.018 3.287 1.136 6.455 3.094 9.095 3.279 4.423 7.596 12.775 4.331 23.379-1.038 3.372-.768 6.993.562 10.261 3.031 7.445 5.809 21.316-9.353 31.058l-80.761 16.084z" fill="#333"/></g></g></g><g><g><g><path d="m107.197 103.557s-29.095-5.697-33.675 26.589c-.559 3.942-2.651 7.463-5.708 10.014-2.713 2.264-5.51 5.973-5.627 11.683-.095 4.659-2.379 9.011-6.085 11.835-3.233 2.464-6.566 6.289-7.817 12.009-.673 3.079-2.381 5.822-4.712 7.943-6.424 5.847-16.336 19.577-.061 40.171l31.199 18.149 8.767-1.746-28.197-16.403c-16.274-20.594-6.363-34.324.061-40.171 2.33-2.121 4.039-4.864 4.712-7.943 1.25-5.72 4.584-9.546 7.817-12.009 3.706-2.824 5.99-7.176 6.085-11.835.117-5.71 2.914-9.419 5.627-11.683 3.057-2.551 5.148-6.072 5.708-10.014 4.58-32.286 38.604-28.191 45.353-28.898-11.936-1.436-23.447 2.309-23.447 2.309z" fill="#212121"/></g></g></g><g><g><g><g><path d="" fill="#fff"/></g></g></g><g><g><g><path d="" style="fill:none;stroke:#000;stroke-width:4;stroke-linecap:round;stroke-linejoin:round;stroke-miterlimit:10"/></g></g></g></g><g><g><g><path d="m67.901 315.723s-18.39 23.25-12.528 154.339h-.001 40.196l10.339-112.235h-.125l10.339 112.235h40.196c5.862-131.089-12.528-154.339-12.528-154.339h-78.078" fill="#131c46"/></g></g></g><g><g><g><path d="m79.67 315.723h-2.19-9.579s-18.39 23.25-12.528 154.339h11.768.001c-5.862-131.089 12.528-154.339 12.528-154.339z" fill="#0b1226"/></g></g></g><g><g><g><g><g><g><path d="m351.588 120.828c-3.359.112-4.273-4.999-1.006-6.016l11.371-3.915c1.617-.556 3.373.304 3.93 1.917.556 1.614-.303 3.373-1.917 3.93l-11.371 3.915c-.334.115-.674.169-1.007.169z" fill="#192f5c"/></g></g></g><g><g><g><path d="m335.371 102.5c-2.217.048-3.808-2.462-2.777-4.448l5.271-10.809c.749-1.535 2.599-2.173 4.134-1.423 1.535.749 2.172 2.599 1.423 4.134l-5.271 10.809c-.535 1.098-1.636 1.737-2.78 1.737z" fill="#192f5c"/></g></g></g><g><g><g><path d="m360.901 150.525c-.455 0-.917-.101-1.354-.314l-10.809-5.271c-1.535-.749-2.172-2.599-1.423-4.134s2.598-2.173 4.134-1.423l10.809 5.271c2.938 1.313 1.791 5.988-1.357 5.871z" fill="#192f5c"/></g></g></g></g><g><g><g><ellipse cx="309.846" cy="127.697" fill="#192f5c" rx="20.986" ry="21.028" transform="matrix(.946 -.326 .326 .946 -24.695 107.858)"/></g></g></g><g><g><g><path d="m253.62 232.254c-4.842 1.775-10.202-.746-11.922-5.608l-20.936-59.159 17.578-5.857 20.825 58.834c1.694 4.786-.778 10.043-5.545 11.79z" fill="#192f5c"/></g></g></g><path d="m264.158 213.942-.078-.193c-.929-2.299-3.545-3.409-5.843-2.48l.001-.001c2.298-.928 3.408-3.544 2.48-5.843l-.078-.193c-.928-2.298-3.545-3.409-5.843-2.48h.001c2.298-.929 3.408-3.544 2.48-5.843l-.078-.194c-.928-2.298-3.545-3.409-5.843-2.48l-4.803 1.941c-2.298.929-3.408 3.544-2.48 5.843l.078.194c.929 2.298 3.545 3.409 5.843 2.48h-.001c-2.298.929-3.408 3.544-2.48 5.843l.078.193c.928 2.299 3.545 3.409 5.843 2.48l-.001.001c-2.298.928-3.408 3.544-2.48 5.843l.078.193c.929 2.298 3.545 3.409 5.843 2.48l4.803-1.941c2.299-.929 3.409-3.544 2.48-5.843z" fill="#ffc0b3"/><g><g><g><path d="m279.451 87.062c-11.277 24.474-32.043 43.268-57.494 52.033l-10.739 3.698c-6.353 2.188-9.726 9.122-7.535 15.488l3.769 10.95c2.191 6.366 9.118 9.752 15.471 7.564l10.739-3.698c25.451-8.766 53.382-6.744 77.333 5.597z" fill="#ffc31a"/></g></g></g><g><g><g><path d="m215.141 152.601 10.739-3.698c25.218-8.685 45.831-27.219 57.177-51.367l-3.606-10.474c-11.277 24.474-32.043 43.268-57.494 52.033l-10.739 3.698c-6.353 2.188-9.726 9.122-7.535 15.488l3.769 10.95c.397 1.154.954 2.206 1.631 3.149l-1.477-4.291c-2.191-6.366 1.183-13.3 7.535-15.488z" fill="#ffaf00"/></g></g></g><g><g><g><g><path d="m221.957 139.095-10.739 3.698c-6.353 2.188-9.726 9.122-7.535 15.488l3.769 10.95c2.191 6.366 9.118 9.752 15.471 7.564l10.739-3.698c5.49-1.891 11.096-3.277 16.752-4.169l-12.69-36.865c-5.006 2.781-10.277 5.141-15.767 7.032z" fill="#ff8f33"/></g></g></g></g><g><g><g><path d="m234.066 133.993c-6.495 3.418-15.855 6.378-22.848 8.801-6.234 2.037-9.788 9.305-7.535 15.488l1.707 4.959c.868 2.274 2.174 7.244 3.693 9.139l-1.477-4.291c-2.191-6.366 1.182-13.3 7.535-15.488 8.34-2.844 18.478-6.11 26.045-10.479l-3.462-10.058c-1.204.669-2.424 1.31-3.658 1.929z" fill="#ff740d"/></g></g></g><g><g><g><path d="m283.275 78.823c-4.405 1.552-6.73 6.371-5.202 10.785l30.34 87.785c1.54 4.449 6.406 6.797 10.846 5.232 4.405-1.552 6.73-6.371 5.202-10.785l-30.34-87.785c-1.54-4.449-6.406-6.796-10.846-5.232z" fill="#ff8f33"/></g></g></g></g><path d="m231.643 198.698 4.27-2.535c2.207-1.31 3.13-4.034 2.174-6.416-1.201-2.992-4.805-4.184-7.553-2.499l-5.996 3.676c-1.454.892-2.212 2.585-1.907 4.264l1.5 8.269c.158.872.049 1.768-.317 2.575-1.083 2.389-3.888 7.873-3.888 7.874l-24.317 41.197-15.287-15.212-18.141 31.106 13.807 12.801s50.729 46.323 62.622-65.914z" fill="#ffc0b3"/></g><path d="m140.755 200.317-15.328-7.753v-7.488c22.615.344 17.943-43.889 13.26-54.65-9.369 1.562-21.666-7.614-21.666-7.614-1.562 16.01-22.698 23.005-22.698 23.005-6.381-2.842-8.444.318-9.027 3.627-.517 2.932.134 5.954 1.635 8.524 1.828 3.13 3.622 4.558 5.253 5.012v20.243.116c-.036 5.8-4.604 10.572-10.376 11.129l-13.75 4.455c-8.369 2.712-14.425 10.006-15.549 18.732l42.911 14.979 37.477-6.931 8.589-16.107-.707-9.322z" fill="#ffc0b3"/><g><g><g><path d="m124.596 186.078c-.022 0-.043-.001-.064-.002-1.952-.121-5.242-.734-7.152-1.515-.527-.215-.779-.817-.564-1.344.216-.527.816-.779 1.344-.565 1.813.742 4.94 1.269 6.499 1.366.568.035 1 .524.965 1.092-.034.547-.488.968-1.028.968z" fill="#f9a395"/></g></g></g><g><g><g><path d="m61.393 236.586c-3.644 18.483 3.644 19.784 8.589 43.213s-4.164 35.924-4.164 35.924h80.16v-40.609s13.794-22.648-2.603-44.254" fill="#f955af"/></g></g></g><g><g><g><path d="m75.462 239.603-32.591 27.586-24.358-32.795c.01-.009 20.991-18.25 31.767-27.619 4.105-3.569 8.948-6.176 14.186-7.641l16.456-4.601c-.782 2.234-1.201 4.597-1.201 7.04 0 13.937 13.63 25.234 30.443 25.234s30.712-11.298 30.712-25.234c0-.438-.014-.872-.041-1.304l-.058.004 13.508 6.868c4.76 2.42 8.934 5.85 12.231 10.051l20.093 25.598-24.107 33.156-12.031-13.008" fill="#f955af"/></g></g></g><path d="m146.072 303.068h-44.408c-13.285 0-24.582-9.42-27.276-22.429-.019-.093-.039-.186-.058-.28-4.957-23.484-12.261-24.789-8.609-43.315h-.157c.001-.966-.678-1.829-1.661-2.022-1.116-.227-2.2.507-2.421 1.623-.027.138-.046.263-.072.399h-.123c-3.652 18.526 3.652 19.831 8.609 43.315 2.651 13.864 1.96 24.962-3.623 34.795-.318.364-.263.87-.551 1.214h.162c-.045 1.073.965 2.101 2.054 2.061 1.389-.123 1.57-.664 2.44-2.061h75.694z" fill="#ef009f"/><path d="m71.935 320.736 4.354-1.401c2.117-.681 3.145-3.077 2.179-5.08-.625-1.295-1.945-2.105-3.383-2.069-3.59.088-10.459.238-14.738.216l.035-.084-11.017-19.306-12.745-22.335 5.116-5.015-21.792-29.339c-15.078 15.811-21.699 30.475-5.929 52.224 5.942 8.194 12.068 15.61 17.631 21.886 11.55 13.032 20.671 21.156 20.671 21.156v-.001l.043.049c3.182 3.371 7.906 8.514 17.045 9.507 15.453 1.679 12.061-18.582 2.53-20.408z" fill="#ffc0b3"/><g><g><g><path d="m62.169 330.656-.043-.049v.001s-9.121-8.123-20.671-21.156c-5.563-6.277-11.689-13.692-17.631-21.886-15.117-20.849-9.661-35.186 4.098-50.264l-3.799-5.2c-17.919 17.498-27.27 32.775-10.106 56.446 5.942 8.194 12.068 15.61 17.631 21.886 11.55 13.032 20.671 21.156 20.671 21.156v-.001l.043.049c3.182 3.371 7.906 8.514 17.045 9.507 3.173.345 5.54-.245 7.234-1.402-7.474-1.584-11.605-6.049-14.472-9.087z" fill="#f9a395"/></g></g></g><g><g><g><path d="m69.37 206.98 10.499-2.935c-.095-.813-.147-1.637-.147-2.472 0-2.443.419-4.806 1.201-7.04l-16.456 4.601c-5.239 1.465-10.081 4.071-14.186 7.641-10.777 9.369-31.758 27.609-31.767 27.619l5.465 7.358c3.395-2.952 21.466-18.663 31.206-27.131 4.104-3.569 8.946-6.176 14.185-7.641z" fill="#ef009f"/></g></g></g></g><g><g><g><g><circle cx="410.279" cy="60.675" fill="#f955af" r="44.049"/></g></g></g><g><g><g><path d="m377.999 60.675c0-22.331 16.621-40.768 38.164-43.646-1.926-.257-3.888-.403-5.885-.403-24.328 0-44.049 19.721-44.049 44.049s19.721 44.049 44.049 44.049c1.997 0 3.958-.145 5.885-.403-21.543-2.878-38.164-21.316-38.164-43.646z" fill="#ef009f"/></g></g></g><g><g><g><path d="m388.488 64.244 31.219 18.025c2.748 1.587 6.183-.397 6.183-3.57v-36.049c0-3.173-3.435-5.157-6.183-3.57l-31.219 18.025c-2.748 1.586-2.748 5.553 0 7.139z" fill="#fff"/></g></g></g></g><g><g><g><g><path d="m382.254 388.062v-22.827l-14.961-2.172c-1.112-3.995-2.699-7.79-4.701-11.322l9.042-12.099-16.171-16.142-12.121 9.026c-3.539-1.999-7.341-3.583-11.343-4.693l-2.176-14.934h-22.869l-2.176 14.934c-4.002 1.11-7.804 2.694-11.343 4.693l-12.121-9.026-16.171 16.141 9.042 12.099c-2.002 3.533-3.59 7.327-4.701 11.322l-14.961 2.172v22.827l14.961 2.172c1.112 3.995 2.699 7.79 4.701 11.322l-9.042 12.099 16.171 16.141 12.121-9.026c3.539 1.999 7.341 3.583 11.343 4.693l2.176 14.934h22.869l2.176-14.934c4.002-1.11 7.804-2.694 11.343-4.693l12.121 9.026 16.171-16.141-9.042-12.099c2.002-3.533 3.59-7.327 4.701-11.322z" fill="#ffaf00"/></g></g></g><g><g><g><g><path d="m355.177 376.541c-.972-49.467-73.512-49.25-74.199.216.972 49.465 73.512 49.248 74.199-.216z" fill="#fff"/></g></g></g><g><g><g><g><path d="m292.578 376.754c-.053-18.613 13.549-34.075 31.373-36.908-1.948-.309-3.944-.472-5.98-.467-20.583.059-37.221 16.792-37.163 37.375.059 20.583 16.792 37.221 37.375 37.163 1.97-.006 3.903-.166 5.79-.466-17.748-2.812-31.343-18.15-31.395-36.697z" fill="#f0e8f9"/></g></g></g></g><path d="m327.196 377.889c-1.967-2.036-4.778-3.23-7.71-3.279l-2.749-.045c-3.29.01-6.49-2.585-6.401-5.921.056-3.207 3.054-5.751 6.61-5.712l9.308.152h.034c1.122 0 2.041-.901 2.06-2.028.018-1.137-.89-2.075-2.028-2.094l-5.87-.096.084-4.736c.02-1.138-.887-2.077-2.025-2.097h-.037c-1.121 0-2.04.899-2.06 2.025l-.084 4.775c-5.509.259-10.021 4.478-10.113 9.739-.185 5.558 4.948 10.133 10.454 10.115l2.749.045c3.291-.01 6.491 2.584 6.401 5.921-.055 3.173-2.955 5.713-6.488 5.713-.04 0-.082 0-.122-.001l-9.308-.152c-.011 0-.022 0-.034 0-1.122 0-2.041.901-2.06 2.028-.018 1.137.89 2.075 2.028 2.094l5.87.096-.084 4.735c-.02 1.138.887 2.077 2.025 2.097h.037c1.121 0 2.04-.899 2.06-2.025l.084-4.773c5.544-.243 10.021-4.478 10.113-9.74.045-2.532-.93-4.96-2.744-6.836z" fill="#ff740d"/></g></g></g></svg>