<svg clip-rule="evenodd" fill-rule="evenodd" height="512" image-rendering="optimizeQuality" shape-rendering="geometricPrecision" text-rendering="geometricPrecision" viewBox="0 0 173.397 173.397" width="512" xmlns="http://www.w3.org/2000/svg"><g id="Layer_x0020_1"><circle cx="86.699" cy="86.699" fill="#4d3292" r="84.667"/><g id="_208705136"><path id="_208707224" d="m82.4313 65.3807v37.9783l27.9445-.0611v-37.9166zm34.2543 37.9172c1.8484-1.7128 3.0099-4.1578 3.0099-6.8612v-21.6935c0-4.2979-2.9352-7.9429-6.8998-9.031v37.5804c1.2978-.0029 2.5867.0053 3.8899.0053zm-36.6741-37.9172h-6.8999v37.9987l6.8999-.0151z" fill="#fff"/><path id="_208707128" d="m70.6919 74.9716h-8.0844v21.2367h8.0844z" fill="#fff"/><path id="_208707008" d="m60.1878 73.5377-17.8295-10.5655c-1.9546-1.1583-4.4129.2425-4.4129 2.5145v40.2064c0 2.2721 2.4583 3.6729 4.4129 2.5145l17.8295-10.5654z" fill="#fff"/><path id="_208706456" d="m84.736 52.6509h-7.5695c-1.6098 0-2.9228 1.3131-2.9228 2.9229 0 1.6099 1.3131 2.9229 2.9228 2.9229h3.277l1.2891 4.4644h6.08z" fill="#fff"/><path id="_208706744" d="m99.7195 50.2311h-29.7198v-6.9714h29.7198z" fill="#fff"/><path id="_208706816" d="" fill="none"/><g fill="#fff"><path id="_208706264" d="m114.26 63.6384-1.5155-5.6562h-6.1862l1.334 4.9789c2.8362 0 3.5071-.3381 6.3677.6773z"/><path id="_208706240" d="m53.8236 33.8607 16.1761-1.5626c2.7747-.2682 5.1602 1.4085 5.1602 4.3151v2.3314c0 2.9064-2.3856 4.5831-5.1602 4.3151l-16.1761-1.5626c-1.4206-.1372-2.4056-1.4491-2.4056-2.8767v-2.083c0-1.4276.9848-2.7395 2.4056-2.8767z"/><path id="_208706048" d="m102.139 43.26h19.067v12.303h-19.067z"/><path id="_208705520" d="m123.626 42.267 11.826-4.8527v23.9941l-11.826-4.8528z"/><path id="_208705976" d="m73.1116 105.799 38.4742-.0842v5.4033c0 2.1117-1.7282 3.8398-3.8399 3.8398h-30.7945c-2.1116 0-3.8398-1.7279-3.8398-3.8398z"/><path id="_208705352" d="m90.4675 117.378-5.407 19.4906c-1.9404 7.2415-12.0867 4.5228-10.1464-2.7188l4.494-16.7718z"/><path id="_208705064" d="m105.289 117.378 4.494 16.7718c1.9403 7.2416-8.206 9.9603-10.1464 2.7188l-5.407-19.4906z"/></g></g></g></svg>