<svg clip-rule="evenodd" fill-rule="evenodd" height="512" image-rendering="optimizeQuality" shape-rendering="geometricPrecision" text-rendering="geometricPrecision" viewBox="0 0 173.397 173.397" width="512" xmlns="http://www.w3.org/2000/svg"><g id="Layer_x0020_1"><g id="_404306200"><g><path id="_404309392" d="m72.5112 136.351h-61.6773c-.9351 0-1.6939-.7584-1.6939-1.6932v-97.3479c0-.9347.7584-1.6932 1.6933-1.6932l96.3886-.0003c.9351 0 1.6928.7588 1.6928 1.6936l.0003 25.7251c0 2.2259-3.387 2.2296-3.387.0001v-24.0318h-93.001v93.9606h59.9842c2.227 0 2.2268 3.3872 0 3.387z"/><path id="_404308936" d="m107.222 56.604h-96.388c-.9351 0-1.6939-.7581-1.6939-1.6965 0-.9351.7584-1.6933 1.6933-1.6933l96.3886-.0003c.9351 0 1.6928.7588 1.6928 1.6936.0003.9381-.7584 1.6969-1.6928 1.6965z"/><path id="_404309632" d="m99.4604 47.6047h-6.5192c-.9351 0-1.694-.7584-1.694-1.6933.0001-.9384.7586-1.6932 1.6935-1.6932h6.5197c.9351 0 1.693.7549 1.693 1.6932.0001.9349-.7584 1.6934-1.693 1.6933z"/><path id="_404309488" d="m86.4212 47.6047h-6.516c-.9343 0-1.6934-.7584-1.6934-1.6933.0002-.9384.7585-1.6932 1.6934-1.6932h6.516c.939 0 1.6933.7549 1.6933 1.6932.0006.9349-.755 1.6934-1.6933 1.6933z"/><path id="_404309176" d="m73.3859 47.6047h-6.516c-.9351 0-1.6935-.7584-1.6935-1.6933.0004-.9384.7584-1.6932 1.6934-1.6932h6.5161c.9351 0 1.6932.7549 1.6932 1.6932.0007.9349-.7586 1.6934-1.6932 1.6933z"/><path id="_404308576" d="m47.5202 47.6047h-28.9256c-.9343 0-1.6933-.7584-1.6933-1.6933.0002-.9384.7584-1.6932 1.6933-1.6932h28.9256c.9343 0 1.6927.7549 1.6927 1.6932.0005.9349-.7585 1.6934-1.6927 1.6933z"/><path id="_404308432" d="m20.2884 82.5091h25.5379v-16.1678h-25.5379zm27.2318 3.387h-28.9256c-.9343 0-1.6933-.7584-1.6933-1.6933l.0002-19.5551c0-.9346.7582-1.6931 1.6931-1.6931l28.9256-.0004c.9343 0 1.6927.7589 1.6927 1.6937l.0005 19.5546c0 .9352-.759 1.6937-1.6932 1.6936z"/><path id="_404308312" d="m64.6021 76.1205h-9.6911c-.935 0-1.694-.7584-1.694-1.6934.0001-.9352.7585-1.6934 1.6933-1.6934l9.6918-.0003c.9342 0 1.6927.7588 1.6927 1.6937.0005.9349-.7587 1.6934-1.6927 1.6934z"/><path id="_404308360" d="m64.6021 85.8961h-9.6911c-.935 0-1.694-.7584-1.694-1.6933.0001-.9349.7585-1.6934 1.6933-1.6934l9.6918-.0003c.9342 0 1.6927.7588 1.6927 1.6937.0005.9349-.7587 1.6934-1.6927 1.6933z"/><path id="_404308864" d="m55.6587 95.6717h-37.0641c-.9343 0-1.6933-.7548-1.6933-1.6932.0002-.935.7584-1.6898 1.6933-1.6898h37.0641c.9351 0 1.6931.7549 1.6931 1.6898.0001.9384-.7587 1.6934-1.6931 1.6932z"/><path id="_404308216" d="m55.6587 105.451h-37.0641c-.9343 0-1.6933-.7583-1.6933-1.6931.0002-.935.7584-1.6935 1.6933-1.6935h37.0641c.9351 0 1.6931.7586 1.6931 1.6935.0001.9347-.7587 1.6933-1.6931 1.6931z"/><path id="_404308840" d="m55.6587 115.227h-37.0641c-.9343 0-1.6933-.7583-1.6933-1.6932.0002-.9349.7584-1.6933 1.6933-1.6933l37.0641-.0001c.9351 0 1.6931.7586 1.6931 1.6934.0001.9347-.7587 1.6934-1.6931 1.6932z"/><path id="_404308120" d="m55.6587 125.002h-37.0641c-.9343 0-1.6933-.7547-1.6933-1.6931.0002-.935.7584-1.6933 1.6933-1.6933l37.0641-.0001c.9351 0 1.6931.7585 1.6931 1.6934.0001.9382-.7587 1.6933-1.6931 1.6931z"/><path id="_404308624" d="m90.1932 66.3448h-35.2822c-.935 0-1.694-.7585-1.694-1.6934.0001-.9383.7585-1.6933 1.6933-1.6933l35.2829-.0003c.9342 0 1.6926.7553 1.6926 1.6936.0005.9345-.7585 1.6934-1.6926 1.6934z"/><path id="_404308720" d="m132.001 72.2328.0007-59.7022h-93.0017v24.7798c0 .935-.7553 1.6936-1.6937 1.6936-.9345-.0001-1.6933-.7586-1.6933-1.6935l.0007-26.4731c0-.9386.7578-1.6932 1.6926-1.6932l96.3885-.0003c.9351 0 1.6929.7552 1.6929 1.6936l.0002 61.3951c0 2.2277-3.3869 2.227-3.3869.0002z"/><path id="_404308048" d="m133.695 30.1276h-96.388c-.935 0-1.6938-.7583-1.6938-1.6931.0007-.9351.7585-1.6934 1.6933-1.6934l96.3885-.0001c.9351 0 1.6929.7586 1.6929 1.6935.0002.9346-.7584 1.6934-1.6929 1.6931z"/><path id="_404307688" d="m125.933 21.1283h-6.5193c-.935 0-1.6938-.7585-1.6938-1.6934 0-.9352.7586-1.6934 1.6934-1.6934l6.5197-.0003c.935 0 1.6931.7588 1.6931 1.6937 0 .9348-.7585 1.6934-1.6931 1.6934z"/><path id="_404307664" d="m112.898 21.1283h-6.5192c-.9351 0-1.694-.7585-1.694-1.6934.0001-.9352.7584-1.6934 1.6933-1.6934l6.5199-.0003c.9351 0 1.693.7588 1.693 1.6937.0001.9348-.7585 1.6934-1.693 1.6934z"/><path id="_404307400" d="m99.8629 21.1283h-6.5201c-.9342 0-1.6934-.7585-1.6934-1.6934.0003-.9352.7585-1.6934 1.6934-1.6934l6.5201-.0003c.935 0 1.6927.7588 1.6927 1.6937.0003.9348-.7584 1.6934-1.6927 1.6934z"/><path id="_404307568" d="m73.9932 21.1283h-28.9249c-.935 0-1.6941-.7585-1.6941-1.6934.0001-.9352.7586-1.6934 1.6934-1.6934l28.9256-.0003c.9342 0 1.6927.7588 1.6927 1.6937.0004.9348-.7585 1.6934-1.6927 1.6934z"/><path id="_404307856" d="m88.7286 89.0712h.0032zm17.6677-5.6271c-6.2231 0-12.0727 2.4239-16.472 6.8231l.0006-.0002c-9.0807 9.0843-9.0813 23.8626-.0006 32.9433 9.0813 9.0807 23.8589 9.0807 32.9432 0 9.081-9.0807 9.0806-23.8588 0-32.9431-4.4027-4.3993-10.252-6.8229-16.4712-6.8231zm0 49.9613c-6.8335 0-13.6639-2.5996-18.8675-7.7996-10.4034-10.4038-10.4035-27.3303 0-37.7341h.0005c5.0412-5.038 11.7403-7.8141 18.8666-7.8141 7.1269 0 13.8257 2.7764 18.8634 7.8141 10.4041 10.4036 10.4038 27.3304 0 37.7341-5.1999 5.1997-12.0335 7.8-18.863 7.7996z"/><path id="_404307952" d="m132.467 138.683 21.3897 21.3896c.589.589 1.4566.8644 2.4408.7762 1.105-.1027 2.1874-.6386 3.0552-1.5064 1.6899-1.6863 2.0214-4.2052.7268-5.4964l-21.3854-21.3897zm23.4566 25.57c-1.7351 0-3.3021-.6243-4.4627-1.7849l-22.5889-22.5889c-.6596-.66-.6597-1.7322 0-2.3919l8.6228-8.6224c.3175-.3175.7471-.4971 1.1987-.4971.4484-.0002.8785.1799 1.1961.4974l22.5859 22.5851c2.6352 2.6354 2.3101 7.2501-.7273 10.2875-1.4247 1.425-3.2491 2.3072-5.1402 2.4836-.2287.0209-.4586.0318-.6844.0316z"/><path id="_404307472" d="m130.579 138.176-10.308-10.3086c-1.5701-1.5701.8194-3.9674 2.3949-2.3916l10.3085 10.3047c1.5981 1.6066-.8533 3.9541-2.3954 2.3955z"/><path id="_404307640" d="m135.437 133.318-10.308-10.3085c-1.5742-1.5742.8209-3.9695 2.395-2.3954l10.3085 10.3085c1.5838 1.5925-.8321 3.9589-2.3955 2.3954z"/><path id="_404307448" d="m113.84 152.135h-14.8879c-.8429 0-1.5596-.6208-1.6796-1.4534l-1.4463-10.1605c-1.855-.5783-3.662-1.3085-5.3906-2.1835l-8.6392 6.0289c-.6739.4691-1.5845.3884-2.1666-.1902l-10.6012-10.6015c-.5921-.5961-.6597-1.5414-.1553-2.2152l6.1602-8.2026c-.9002-1.7181-1.6586-3.5135-2.2655-5.3585l-10.3712-1.8454c-.8082-.1444-1.3977-.8464-1.3977-1.6684l.0006-15.0923c0-.8183.5885-1.5239 1.3965-1.665l10.3719-1.8486c.6072-1.8451 1.3652-3.6408 2.2648-5.3588l-6.159-8.2023c-.5049-.6739-.438-1.6192.1545-2.2154l10.6018-10.5981c.5819-.5818 1.4918-.6628 2.1655-.1937l8.6401 6.0291c1.7288-.8715 3.5347-1.6051 5.3902-2.1837l1.4465-10.1605c.1206-.8323.8362-1.4533 1.6793-1.4533l14.8882-.0002c.843 0 1.5585.6212 1.675 1.4538l1.4469 10.1599c1.8558.5786 3.6614 1.3127 5.3937 2.184l8.6362-6.0294c.6738-.4691 1.5875-.3877 2.1661.1944l10.6016 10.5977c.5961.5961.6628 1.5417.1584 2.2155l-6.1593 8.2019c.8993 1.718 1.6577 3.5141 2.2645 5.3591l10.3723 1.8486c.808.1409 1.3966.8468 1.3966 1.6652l.0004 15.0921c0 .8219-.5896 1.524-1.3974 1.6687l-10.3718 1.8449c-1.351 4.1205-3.4256 7.9132-6.1809 11.2893-.5923.7231-1.6581.8325-2.3812.2399-.7265-.5927-.8326-1.6581-.2435-2.3813 2.692-3.2986 4.6673-7.0381 5.8703-11.1128.1801-.6177.695-1.0759 1.3264-1.1888l9.9911-1.7784v-12.2558l-9.9904-1.778c-.6318-.1127-1.1472-.5712-1.3271-1.1851-.6843-2.3142-1.6298-4.5474-2.8117-6.6429-.3309-.5859-.2822-1.3088.1198-1.8485l5.9305-7.8955-8.5585-8.5588-8.3187 5.8036c-.5254.3667-1.2172.4057-1.7781.0988-2.109-1.1466-4.3603-2.0532-6.6854-2.6988-.6489-.1801-1.1287-.7268-1.224-1.3935l-1.3894-9.7827h-11.9526l-1.3939 9.7823c-.0952.6668-.5749 1.214-1.2243 1.3939-2.3246.6454-4.572 1.5522-6.6817 2.6988-.5643.3068-1.2522.2681-1.778-.0988l-8.3186-5.8036-8.5584 8.5588 5.927 7.8952c.4056.5398.4512 1.2632.1229 1.8488-1.1849 2.0954-2.1307 4.3287-2.8114 6.6429-.1833.6136-.6952 1.0726-1.3267 1.1854l-9.9908 1.7777v12.2558l9.9911 1.778c.6319.1132 1.1429.5719 1.3264 1.1892.6811 2.3106 1.6262 4.5439 2.8114 6.6395.3288.5853.2822 1.3123-.1234 1.8485l-5.9265 7.8989 8.5584 8.5548 8.3187-5.8032c.5263-.3667 1.2134-.4056 1.7779-.0985 2.1099 1.1462 4.357 2.0531 6.6817 2.6987.6497.1799 1.1291.7267 1.2243 1.3934l1.3939 9.7826h11.9526l1.3898-9.7829c.0953-.6667.5746-1.2132 1.2236-1.3931 4.2693-1.1854 8.1777-3.2068 11.6137-6.0115.7274-.5893 1.7921-.4797 2.3849.2435.5896.7229.4798 1.7921-.2434 2.3812-3.5137 2.8682-7.472 4.9955-11.7795 6.3361l-1.4459 10.1599c-.1167.8326-.8331 1.4538-1.6756 1.4537z"/></g><path id="_404306608" d="m89.9243 123.2103c9.0812 9.0807 23.8589 9.0807 32.9432 0 9.081-9.0807 9.0806-23.8588 0-32.9431-4.4027-4.3993-10.2521-6.8228-16.4711-6.823-6.2232 0-12.0728 2.4238-16.4715 6.8227-9.0807 9.0844-9.0813 23.8627-.0006 32.9434z" fill="#d8d8d8"/><path id="_404307184" d="m106.396 80.0576c7.1268 0 13.8256 2.7764 18.8634 7.8142 9.1632 9.1628 10.2558 23.3857 3.2784 33.7555l3.8271 3.8271c2.1123-2.92 3.6982-6.1487 4.7233-9.6209.1801-.6177.6951-1.0759 1.3264-1.1888l9.991-1.7785v-12.2557l-9.9903-1.778c-.6317-.1127-1.1472-.5712-1.3271-1.1851-.6843-2.3142-1.6298-4.5473-2.8117-6.6429-.3308-.586-.2822-1.3088.1199-1.8485l5.9304-7.8955-7.6875-7.6877c-.1268-.0925-.2405-.2044-.3356-.3357l-.5354-.5354-8.3187 5.8037c-.5254.3667-1.2173.4057-1.7781.0988-2.1089-1.1467-4.3603-2.0533-6.6854-2.6989-.6489-.1802-1.1287-.7267-1.224-1.3935l-1.3894-9.7827h-11.9526l-1.3939 9.7823c-.0952.6669-.5749 1.2139-1.2242 1.3939-2.3247.6454-4.572 1.5522-6.6818 2.6989-.5643.3068-1.2523.2681-1.7781-.0988l-8.3185-5.8037-8.5584 8.5588 5.927 7.8952c.4056.5398.4512 1.2631.1229 1.8488-1.1849 2.0955-2.1307 4.3287-2.8114 6.6429-.1833.6136-.6952 1.0726-1.3266 1.1854l-9.9909 1.7777v12.2557l9.9912 1.7781c.6319.1132 1.1427.5719 1.3263 1.1892.6811 2.3106 1.6262 4.5439 2.8114 6.6395.3288.5853.2822 1.3123-.1234 1.8485l-5.9265 7.8989 1.0395 1.039c.1395.0992.2575.2193.3539.3538l7.165 7.162 8.3186-5.8033c.5263-.3667 1.2135-.4055 1.778-.0985 2.11 1.1463 4.357 2.0532 6.6818 2.6988.6496.18 1.129.7267 1.2242 1.3935l1.3939 9.7824h11.9526l1.3898-9.7827c.0953-.6668.5746-1.2132 1.2236-1.3932 3.6641-1.0174 7.0623-2.6504 10.1242-4.8661l-3.8252-3.8255c-4.4829 3.0166-9.6871 4.5251-14.8887 4.5248-6.8337 0-13.6639-2.5996-18.8676-7.7997-10.4034-10.4037-10.4035-27.3302.0005-37.7339 5.0412-5.0381 11.7403-7.8142 18.8667-7.8142z" fill="#a5a5a5"/><path id="_404307232" d="m160.079 153.846-21.3854-21.3897-6.2271 6.2268 21.3896 21.3895c.5891.589 1.4567.8644 2.4409.7763 1.105-.1028 2.1874-.6387 3.0552-1.5065 1.6899-1.6864 2.0214-4.2052.7268-5.4964z" fill="#fd8087"/><path id="_404306848" d="m131.777 134.583 2.4627-2.4626-7.7869-7.7872c-.3813.4341-.779.8587-1.1933 1.273-.4136.4136-.8375.8107-1.2709 1.1913z" fill="#ffe600"/><path id="_404306920" d="m62.3965 97.5276 10.3719-1.8487c.6073-1.8451 1.3652-3.6407 2.2649-5.3589l-6.1591-8.2022c-.5049-.6739-.438-1.6192.1545-2.2154l10.6018-10.5981c.5818-.5818 1.4917-.6628 2.1655-.1937l8.6401 6.0292c1.7288-.8716 3.5347-1.6052 5.3902-2.1838l1.4465-10.1606c.1206-.8323.8362-1.4532 1.6792-1.4532l6.576-.0001v-4.7381h-93.001v76.3605h56.1132c-.1929-.5257-.1205-1.1321.2334-1.6048l6.1603-8.2026c-.9003-1.7182-1.6587-3.5135-2.2656-5.3586l-10.3713-1.8452c-.8081-.1444-1.3976-.8465-1.3976-1.6685l.0006-15.0923c0-.8183.5885-1.5239 1.3965-1.6649zm2.2056-11.6315h-9.6911c-.935 0-1.694-.7585-1.694-1.6933.0001-.9348.7585-1.6934 1.6933-1.6934l9.6918-.0003c.9343 0 1.6927.7589 1.6927 1.6937.0005.9348-.7587 1.6934-1.6927 1.6933zm25.5911-19.5514h-35.2822c-.935 0-1.694-.7584-1.694-1.6932.0001-.9384.7585-1.6934 1.6933-1.6934l35.2829-.0003c.9342 0 1.6927.7553 1.6927 1.6937.0004.9344-.7586 1.6932-1.6927 1.6932zm-25.5911 9.7758h-9.6911c-.935 0-1.694-.7584-1.694-1.6934.0001-.9352.7585-1.6935 1.6933-1.6935l9.6918-.0002c.9343 0 1.6927.7588 1.6927 1.6937.0005.9349-.7587 1.6934-1.6927 1.6934zm-46.0075 25.9438h37.0641c.9351 0 1.693.7585 1.693 1.6935.0001.9347-.7585 1.6933-1.693 1.6931h-37.0641c-.9343 0-1.6933-.7583-1.6933-1.6931.0002-.9351.7584-1.6935 1.6933-1.6935zm0 9.7758 37.0641-.0001c.9351 0 1.693.7585 1.693 1.6934.0001.9347-.7585 1.6935-1.693 1.6932h-37.0641c-.9343 0-1.6933-.7583-1.6933-1.6932.0002-.9349.7584-1.6933 1.6933-1.6933zm0 9.7757 37.0641-.0001c.9351 0 1.693.7585 1.693 1.6934.0001.9382-.7585 1.6933-1.693 1.6931h-37.0641c-.9343 0-1.6933-.7547-1.6933-1.6931.0002-.935.7584-1.6933 1.6933-1.6933zm37.0641-29.3271c.9351 0 1.693.7549 1.693 1.6898.0001.9384-.7585 1.6934-1.693 1.6932h-37.0641c-.9343 0-1.6933-.7548-1.6933-1.6932.0002-.935.7584-1.6898 1.6933-1.6898zm-8.1385-6.3926h-28.9256c-.9343 0-1.6933-.7585-1.6933-1.6933l.0002-19.5551c0-.9346.7582-1.6931 1.6931-1.6931l28.9256-.0004c.9343 0 1.6927.7589 1.6927 1.6937l.0005 19.5546c0 .9351-.759 1.6937-1.6932 1.6936z" fill="#62dbfb"/><path id="_404307160" d="m45.8263 82.5091v-16.1678h-25.5378v16.1678z" fill="#ffe600"/><path id="_404306824" d="m12.527 53.2141 93.001-.0002v-14.21h-68.203c-.0062.0001-.0125.0001-.0187.0001-.0061 0-.0123 0-.0184-.0001h-24.7609zm34.9932-5.6094h-28.9256c-.9343 0-1.6933-.7584-1.6933-1.6933.0002-.9385.7584-1.6932 1.6933-1.6932h28.9256c.9343 0 1.6927.7548 1.6927 1.6932.0005.9349-.7585 1.6934-1.6927 1.6933zm25.8657 0h-6.5161c-.9349 0-1.6934-.7584-1.6934-1.6933.0004-.9385.7585-1.6932 1.6933-1.6932h6.5162c.9351 0 1.6933.7548 1.6933 1.6932.0007.9349-.7587 1.6934-1.6933 1.6933zm13.0353 0h-6.516c-.9342 0-1.6934-.7584-1.6934-1.6933.0002-.9385.7586-1.6932 1.6934-1.6932h6.516c.939 0 1.6934.7548 1.6934 1.6932.0006.9349-.755 1.6934-1.6934 1.6933zm13.0392 0h-6.5191c-.9352 0-1.6941-.7584-1.6941-1.6933.0001-.9385.7586-1.6932 1.6936-1.6932h6.5196c.9351 0 1.693.7548 1.693 1.6932.0001.9349-.7584 1.6934-1.693 1.6933z" fill="#fd8087"/><path id="_404307064" d="m108.915 54.9075.0003 6.4346 4.9253-.0001c.843 0 1.5585.6211 1.675 1.4537l1.4469 10.16c1.8558.5786 3.6615 1.3128 5.3936 2.1841l8.6363-6.0295c.3049-.2123.659-.3118 1.0089-.3033l.0005-38.6794h-93.0015v5.4895l68.2219-.0002c.9351 0 1.6928.7588 1.6928 1.6936z" fill="#62dbfb"/><path id="_404306248" d="m39 26.7411 93.0015-.0001.0002-14.2104h-93.0017zm34.9932-5.6128h-28.9249c-.9351 0-1.6941-.7585-1.6941-1.6933.0001-.9353.7585-1.6935 1.6934-1.6935l28.9256-.0003c.9343 0 1.6926.7588 1.6926 1.6938.0004.9347-.7583 1.6933-1.6926 1.6933zm25.8697 0h-6.5201c-.9342 0-1.6934-.7585-1.6934-1.6933.0003-.9353.7585-1.6935 1.6934-1.6935l6.5201-.0003c.935 0 1.6927.7588 1.6927 1.6938.0003.9347-.7584 1.6933-1.6927 1.6933zm13.0351 0h-6.5191c-.9351 0-1.694-.7585-1.694-1.6933.0001-.9353.7584-1.6935 1.6933-1.6935l6.5198-.0003c.9352 0 1.6931.7588 1.6931 1.6938.0001.9347-.7585 1.6933-1.6931 1.6933zm13.0353 0h-6.5192c-.935 0-1.6938-.7585-1.6938-1.6933 0-.9353.7586-1.6935 1.6934-1.6935l6.5196-.0003c.9351 0 1.6932.7588 1.6932 1.6938 0 .9347-.7585 1.6933-1.6932 1.6933z" fill="#fd8087"/></g></g></svg>