<svg id="Layer_1" enable-background="new 0 0 68 68" viewBox="0 0 68 68" xmlns="http://www.w3.org/2000/svg"><g><g><g><g><g><path d="m38.57 37.148h5.603v8.235h-5.603z" fill="#b9b9b9" transform="matrix(.707 -.707 .707 .707 -17.062 41.341)"/></g></g></g><g><g><g><path d="m50.1391182 40.7730217 15.3778038 15.3778038c.6795654.6795654.6841583 1.7733917.0047073 2.4528427l-6.4624825 6.4624786c-.6794472.679451-1.7779808.6795654-2.45755 0l-15.3778-15.3778c-.6795692-.6795692-.6747437-1.7733955.0047035-2.4528427l6.4624825-6.4624825c.6794472-.6794471 1.76857-.6795653 2.4481354.0000001z" fill="#488ff7"/></g></g></g><g><g><g><g><path d="m47.069 46.277h12.608v13.29h-12.608z" fill="#304056" transform="matrix(.707 -.707 .707 .707 -21.789 53.241)"/></g></g></g></g><g><g><g><circle cx="24.54" cy="24.407" fill="#dbdbdb" r="22.568"/></g></g></g><g><g><g><circle cx="24.54" cy="24.407" fill="#fff" r="17.074"/></g></g></g><g><g><g><g><path d="m6.1122489 55.638401h-.0000081c-2.2551603 0-4.0833292-1.828167-4.0833292-4.0833282v-.0000076c0-2.2551613 1.8281689-4.0833282 4.0833292-4.0833282h.0000081c2.2551608 0 4.0833297 1.828167 4.0833297 4.0833282v.0000076c0 2.2551613-1.8281689 4.0833282-4.0833297 4.0833282z" fill="#304056"/></g></g></g><g><g><g><path d="m6.1122489 66.1615524h-.0000081c-2.2551603 0-4.0833292-1.8281708-4.0833292-4.0833321v-.0000076c0-2.2551613 1.8281689-4.0833282 4.0833292-4.0833282h.0000081c2.2551608 0 4.0833297 1.828167 4.0833297 4.0833282v.0000076c0 2.2551614-1.8281689 4.0833321-4.0833297 4.0833321z" fill="#488ff7"/></g></g></g><g><g><g><g><path d="m23.2037468 49.1800842h-10.4375c-.2763672 0-.5-.2236328-.5-.5s.2236328-.5.5-.5h10.4375c.2763672 0 .5.2236328.5.5s-.2236328.5-.5.5z"/></g></g></g><g><g><g><path d="m23.2037468 52.0550842h-10.4375c-.2763672 0-.5-.2236328-.5-.5s.2236328-.5.5-.5h10.4375c.2763672 0 .5.2236328.5.5s-.2236328.5-.5.5z"/></g></g></g><g><g><g><path d="m18.3287468 54.9300842h-5.5625c-.2763672 0-.5-.2236328-.5-.5s.2236328-.5.5-.5h5.5625c.2763672 0 .5.2236328.5.5s-.2236328.5-.5.5z"/></g></g></g></g><g><g><g><g><path d="m23.2037468 59.7030334h-10.4375c-.2763672 0-.5-.2236328-.5-.5s.2236328-.5.5-.5h10.4375c.2763672 0 .5.2236328.5.5s-.2236328.5-.5.5z"/></g></g></g><g><g><g><path d="m23.2037468 62.5780334h-10.4375c-.2763672 0-.5-.2236328-.5-.5s.2236328-.5.5-.5h10.4375c.2763672 0 .5.2236328.5.5s-.2236328.5-.5.5z"/></g></g></g><g><g><g><path d="m18.3287468 65.4530334h-5.5625c-.2763672 0-.5-.2236328-.5-.5s.2236328-.5.5-.5h5.5625c.2763672 0 .5.2236328.5.5s-.2236328.5-.5.5z"/></g></g></g></g></g></g><g><g><g><g><path d="m17.1933727 24.1349545c-.4296875-.1679688-.9980469-.3378906-1.6933594-.5048828-.5151367-.1181641-.9282227-.2314453-1.2270508-.3369141-.2729492-.0957031-.5004883-.2299805-.6777344-.3994141-.1533203-.1474609-.2280273-.3369141-.2280273-.5800781 0-.3779297.1708984-.6650391.5229492-.878418.3876953-.2348633.90625-.3540039 1.5415039-.3540039.6879883 0 1.3647461.1132813 2 .3330078.1176758.046875.2158203.0703125.3012695.0703125.2294922 0 .4257813-.0893555.5678711-.2578125.1342773-.1582031.2021484-.3398438.2021484-.5385742 0-.3647461-.1879883-.6333008-.5268555-.7543945-.7963867-.2949219-1.6962891-.4448242-2.6748047-.4448242-.7436523 0-1.394043.128418-1.9331055.3813477-.5473633.2578125-.9697266.6118164-1.2543945 1.0527344-.2856445.4433594-.4301758.9414063-.4301758 1.4814453 0 .6254883.1796875 1.1376953.534668 1.5214844.3364258.3652344.7436523.6420898 1.2109375.8242188.440918.171875 1.0234375.3525391 1.730957.5356445.5209961.1367188.9257813.2553711 1.203125.3520508.253418.0878906.4682617.2094727.6376953.3603516.1425781.1264648.2089844.2739258.2089844.4628906 0 .3081055 0 1.2451172-2.0253906 1.2451172-.8710938 0-1.6987305-.171875-2.4599609-.5112305-.3125-.1391602-.690918-.074707-.9165039.1699219-.1430664.1557617-.215332.3413086-.215332.5527344 0 .1645508.050293.3198242.1484375.4609375.0966797.1386719.2202148.2407227.3681641.3022461.9887695.4277344 2.0629883.644043 3.1918945.644043.6894531 0 1.309082-.1162109 1.8417969-.3457031.5424805-.2338867.9707031-.565918 1.2739258-.9868164.3071289-.4277344.4628906-.9165039.4628906-1.453125 0-.6484375-.1713867-1.1757813-.5092773-1.5673828-.324707-.3764651-.7207031-.6582034-1.1772461-.8369143z"/></g></g></g><g><g><g><path d="m26.2495251 21.2243099c.21875 0 .4155273-.078125.5698242-.2260742.1567383-.1503906.2392578-.3476563.2392578-.5703125 0-.2197266-.081543-.4179688-.2358398-.5732422-.1542969-.1542969-.3525391-.2353516-.5732422-.2353516h-5.2143555c-.230957 0-.4370117.0869141-.5961914.2519531-.1582031.1640625-.2387695.3647461-.2387695.5957031v7.8925781c0 .2299805.0839844.4350586.2421875.5932617.1586914.1582031.3637695.2416992.5927734.2416992h5.2143555c.21875 0 .4155273-.078125.5698242-.2255859.1567383-.1508789.2392578-.3481445.2392578-.5703125 0-.2197266-.081543-.4179688-.2358398-.5732422-.1542969-.1542969-.3525391-.2358398-.5732422-.2358398h-4.3662109v-2.3862305h3.8979492c.21875 0 .4155273-.078125.5693359-.2255859.1567383-.1503906.2397461-.3476563.2397461-.5708008 0-.2207031-.081543-.4189453-.2358398-.5732422s-.3525391-.2358398-.5732422-.2358398h-3.8979492v-2.3735352h4.3662109z"/></g></g></g><g><g><g><path d="m36.8652458 21.877142c-.3969727-.7441406-.9624023-1.3349609-1.6801758-1.7558594-.7167969-.4194336-1.5625-.6323242-2.5126953-.6323242-.9501934 0-1.7973614.2124023-2.5180645.6323242-.7226563.4208984-1.2885742 1.0097656-1.6811523 1.75-.3896484.7333984-.5966797 1.5849609-.6142578 2.5400391.0175781.9462891.2246094 1.7978516.6142578 2.53125.3930664.7407227.9584961 1.3295898 1.6811523 1.75.7202148.4199219 1.5673828.6323242 2.5180645.6323242.9506836 0 1.7958984-.2128906 2.5126953-.6323242.7177734-.4208984 1.2832031-1.0117188 1.6801758-1.7558594.3935547-.7373047.6025391-1.5869141.6210938-2.534668-.0185547-.9379883-.2275391-1.7875977-.6210938-2.5249023zm-4.1928711 5.8427734c-.6518555 0-1.2182598-.1455078-1.6826153-.4316406-.4648438-.2861328-.8251953-.6806641-1.0712891-1.1728516-.25-.5-.3764648-1.074707-.3764648-1.7084961 0-.6333008.1264648-1.2084961.3764648-1.7084961.2460938-.4921875.6064453-.887207 1.0717773-1.1728516.4638672-.2861328 1.0302715-.4316406 1.682127-.4316406.6435547 0 1.2080078.1455078 1.6772461.4316406.4682617.2861328.8305664.6806641 1.0766602 1.1728516.25.5009766.3769531 1.0751953.3769531 1.7084961s-.1269531 1.2080078-.3769531 1.7084961c-.2456055.4921875-.6079102.8867188-1.0766602 1.1728516-.4692382.2861328-1.0336913.4316406-1.677246.4316406z"/></g></g></g></g></g></svg>