<svg id="Layer_1" enable-background="new 0 0 500 500" height="512" viewBox="0 0 500 500" width="512" xmlns="http://www.w3.org/2000/svg"><g><g><circle cx="250" cy="250" fill="#1c3b5c" r="250"/></g><g><g><g><path d="m59.958 198.019h320.372v67.08h-320.372z" fill="#fff"/></g><g><path d="m380.33 198.019h71.194v67.08h-71.194z" fill="#00daa9"/></g><g><path d="m432.34 198.019h19.184v67.08h-19.184z" fill="#01c499"/></g></g><g><g><g><path d="m89.725 437.88-19.237-19.361 78.132-78.638 19.237 19.362z" fill="#fff"/></g><g><path d="m32.412 476.201c11.656 11.731 30.554 11.731 42.21 0l69.417-69.866-42.21-42.483-69.417 69.866c-11.656 11.732-11.656 30.752 0 42.483z" fill="#ff576b"/></g><g><path d="m131.613 393.829-68.501 68.944c-10.03 10.094-25.417 11.494-36.943 4.217 1.45 3.342 3.526 6.476 6.243 9.211 11.656 11.731 30.554 11.731 42.21 0l69.417-69.866z" fill="#e64e60"/></g></g></g><g><g><ellipse cx="217.596" cy="289.09" fill="#f5f5f5" rx="105.202" ry="105.881"/></g></g><g><path d="m217.596 183.209c-31.803 0-60.31 14.204-79.6 36.652 17.613-13.373 39.532-21.305 63.294-21.305 58.101 0 105.202 47.405 105.202 105.881 0 26.468-9.65 50.667-25.601 69.229 25.452-19.325 41.907-50.015 41.907-84.576 0-58.476-47.1-105.881-105.202-105.881z" fill="#e0e0e0"/></g><g><g><path d="m292.563 299.766v-20.599l-18.241-.752c-1.5-8.032-4.651-15.486-9.098-21.986l12.91-12.946-15.056-15.098-12.91 12.946c-6.483-4.46-13.916-7.619-21.925-9.124v-18.292h-21.292v18.292c-8.01 1.504-15.442 4.664-21.925 9.124l-12.91-12.946-15.056 15.098 12.91 12.946c-4.448 6.501-7.598 13.954-9.098 21.986h-18.242v21.351h18.241c1.5 8.032 4.651 15.485 9.098 21.986l-12.91 12.946 15.056 15.098 12.91-12.946c6.483 4.46 13.916 7.619 21.925 9.124v18.292h21.292v-18.292c8.01-1.504 15.442-4.664 21.925-9.124l12.91 12.946 15.056-15.098-12.91-12.946c4.448-6.501 7.598-13.954 9.098-21.986z" fill="#53b3ec"/></g><g><ellipse cx="217.596" cy="289.09" fill="#479fdb" rx="31.716" ry="31.618"/></g></g><g><g><path d="m15 15h168.087v130.326h-168.087z" fill="#ffc42e"/></g><g><path d="m99.043 60.997-84.043 84.329h168.087z" fill="#f4b42e"/></g><g><path d="m15 15 84.043 74.746 84.044-74.746z" fill="#f5f5f5"/></g></g><g><g><path d="m316.913 15h168.087v130.326h-168.087z" fill="#eee"/></g><g><path d="m465.816 15h19.184v130.326h-19.184z" fill="#e0e0e0"/></g><g><path d="m436.203 82.081-54.936 34.593v-69.185z" fill="#ff5477"/></g><g><path d="m424.186 89.648 12.016-7.567-54.935-34.592v15.134z" fill="#e64e60"/></g></g></g></g></svg>