<svg height="512" viewBox="0 0 64 64" width="512" xmlns="http://www.w3.org/2000/svg" xmlns:xlink="http://www.w3.org/1999/xlink"><linearGradient id="New_Gradient_Swatch_copy_2" gradientUnits="userSpaceOnUse" x1="47.565" x2="47.565" y1="65.193" y2="-.234"><stop offset="0" stop-color="#6713d2"/><stop offset="1" stop-color="#cc208e"/></linearGradient><linearGradient id="New_Gradient_Swatch_copy_2-2" x1="45.739" x2="45.739" xlink:href="#New_Gradient_Swatch_copy_2" y1="65.193" y2="-.234"/><linearGradient id="New_Gradient_Swatch_copy_2-3" x1="19" x2="19" xlink:href="#New_Gradient_Swatch_copy_2" y1="65.193" y2="-.234"/><linearGradient id="New_Gradient_Swatch_copy_2-5" x1="43.913" x2="43.913" xlink:href="#New_Gradient_Swatch_copy_2" y1="65.193" y2="-.234"/><linearGradient id="New_Gradient_Swatch_copy_2-6" x1="32" x2="32" xlink:href="#New_Gradient_Swatch_copy_2" y1="65.193" y2="-.234"/><g id="Service-Development"><path d="m43.219 50h9.91l-1.218-4h-9.909z" fill="url(#New_Gradient_Swatch_copy_2)"/><path d="m41.393 44h9.91l-1.218-4h-9.909z" fill="url(#New_Gradient_Swatch_copy_2-2)"/><path d="m24.748 28.715a1 1 0 0 1 .958-.715h2.294v-2h-2.294a1 1 0 0 1 -.958-.715 5.987 5.987 0 0 0 -.469-1.139 1 1 0 0 1 .172-1.183l1.62-1.62-1.414-1.414-1.62 1.62a1 1 0 0 1 -1.183.172 5.987 5.987 0 0 0 -1.139-.469 1 1 0 0 1 -.715-.958v-2.294h-2v2.294a1 1 0 0 1 -.715.958 5.987 5.987 0 0 0 -1.139.469 1 1 0 0 1 -1.183-.172l-1.62-1.62-1.414 1.414 1.62 1.62a1 1 0 0 1 .172 1.183 5.987 5.987 0 0 0 -.469 1.139 1 1 0 0 1 -.958.715h-2.294v2h2.294a1 1 0 0 1 .958.715 5.987 5.987 0 0 0 .469 1.139 1 1 0 0 1 -.172 1.183l-1.62 1.62 1.414 1.414 1.62-1.62a1 1 0 0 1 1.183-.172 5.987 5.987 0 0 0 1.139.469 1 1 0 0 1 .715.958v2.294h2v-2.294a1 1 0 0 1 .715-.958 5.987 5.987 0 0 0 1.139-.469 1 1 0 0 1 1.183.172l1.62 1.62 1.414-1.414-1.62-1.62a1 1 0 0 1 -.172-1.183 5.987 5.987 0 0 0 .469-1.139zm-5.748 2.285a4 4 0 1 1 4-4 4 4 0 0 1 -4 4z" fill="url(#New_Gradient_Swatch_copy_2-3)"/><circle cx="19" cy="27" fill="url(#New_Gradient_Swatch_copy_2-3)" r="2"/><path d="m48.259 34h-9.91l1.218 4h9.91z" fill="url(#New_Gradient_Swatch_copy_2-5)"/><g fill="url(#New_Gradient_Swatch_copy_2-6)"><path d="m60 12h-56v45a3 3 0 0 0 3 3h50a3 3 0 0 0 3-3zm-22 4h14v2h-14zm6 6v-2h8v2zm8 2v2h-6v-2zm-20-8h4v2h-4zm0 4h10v2h-10zm12 4v2h-4v-2zm-12 0h6v2h-6zm-24 16h2v2h-2zm0 4h8v2h-8zm4-2v-2h2v2zm8 8h-12v-2h12zm0-4h-2v-2h2zm-4-4v-2h2v2zm8 8h-2v-2h2zm-4-8v-2h2v2zm8.192-10.05a1 1 0 0 1 0 1.414l-2.828 2.828a1 1 0 0 1 -1.414 0l-1.827-1.827-.123.051v2.584a1 1 0 0 1 -1 1h-4a1 1 0 0 1 -1-1v-2.584l-.123-.051-1.827 1.827a1.029 1.029 0 0 1 -1.414 0l-2.828-2.828a1 1 0 0 1 0-1.414l1.827-1.827-.051-.123h-2.584a1 1 0 0 1 -1-1v-4a1 1 0 0 1 1-1h2.584l.051-.123-1.827-1.827a1 1 0 0 1 0-1.414l2.828-2.828a1 1 0 0 1 1.414 0l1.827 1.827.123-.051v-2.584a1 1 0 0 1 1-1h4a1 1 0 0 1 1 1v2.584l.123.051 1.827-1.827a1.029 1.029 0 0 1 1.414 0l2.828 2.828a1 1 0 0 1 0 1.414l-1.827 1.827.051.123h2.584a1 1 0 0 1 1 1v4a1 1 0 0 1 -1 1h-2.584l-.051.123zm26.851 24.341-1.306-4.291h-9.909l1.129 3.709-1.914.582-6.043-19.857-6.043 19.857-1.914-.582 7-23a1 1 0 0 1 .957-.709h12a1 1 0 0 1 .957.709l7 23z"/><path d="m60 7a3 3 0 0 0 -3-3h-50a3 3 0 0 0 -3 3v3h56zm-50 1h-2v-2h2zm4 0h-2v-2h2zm4 0h-2v-2h2z"/></g></g></svg>