<?xml version="1.0" standalone="no"?>
<svg xmlns:xlink="http://www.w3.org/1999/xlink" id="wave" style="transform:rotate(0deg); transition: 0.3s" viewBox="0 0 1440 490" version="1.1" xmlns="http://www.w3.org/2000/svg"><defs><linearGradient id="sw-gradient-0" x1="0" x2="0" y1="1" y2="0"><stop stop-color="rgba(142, 68, 173, 1)" offset="0%"/><stop stop-color="rgba(201.656, 133.339, 230.276, 1)" offset="100%"/></linearGradient></defs><path style="transform:translate(0, 0px); opacity:1" fill="url(#sw-gradient-0)" d="M0,147L80,179.7C160,212,320,278,480,277.7C640,278,800,212,960,204.2C1120,196,1280,245,1440,294C1600,343,1760,392,1920,375.7C2080,359,2240,278,2400,204.2C2560,131,2720,65,2880,98C3040,131,3200,261,3360,302.2C3520,343,3680,294,3840,269.5C4000,245,4160,245,4320,277.7C4480,310,4640,376,4800,375.7C4960,376,5120,310,5280,294C5440,278,5600,310,5760,318.5C5920,327,6080,310,6240,318.5C6400,327,6560,359,6720,383.8C6880,408,7040,425,7200,416.5C7360,408,7520,376,7680,359.3C7840,343,8000,343,8160,302.2C8320,261,8480,180,8640,138.8C8800,98,8960,98,9120,98C9280,98,9440,98,9600,98C9760,98,9920,98,10080,98C10240,98,10400,98,10560,106.2C10720,114,10880,131,11040,187.8C11200,245,11360,343,11440,392L11520,441L11520,490L11440,490C11360,490,11200,490,11040,490C10880,490,10720,490,10560,490C10400,490,10240,490,10080,490C9920,490,9760,490,9600,490C9440,490,9280,490,9120,490C8960,490,8800,490,8640,490C8480,490,8320,490,8160,490C8000,490,7840,490,7680,490C7520,490,7360,490,7200,490C7040,490,6880,490,6720,490C6560,490,6400,490,6240,490C6080,490,5920,490,5760,490C5600,490,5440,490,5280,490C5120,490,4960,490,4800,490C4640,490,4480,490,4320,490C4160,490,4000,490,3840,490C3680,490,3520,490,3360,490C3200,490,3040,490,2880,490C2720,490,2560,490,2400,490C2240,490,2080,490,1920,490C1760,490,1600,490,1440,490C1280,490,1120,490,960,490C800,490,640,490,480,490C320,490,160,490,80,490L0,490Z"/></svg>